<svg id="Layer_1" data-name="Layer 1" xmlns="http://www.w3.org/2000/svg" xmlns:xlink="http://www.w3.org/1999/xlink" viewBox="0 0 335.78 268.624"><defs><style>.cls-1{fill:url(#linear-gradient);}.cls-2{fill:url(#linear-gradient-2);}.cls-3{fill:url(#linear-gradient-3);}.cls-4{fill:url(#linear-gradient-4);}.cls-5{fill:#e6e7e8;}.cls-6{fill:url(#linear-gradient-5);}.cls-7{fill:url(#linear-gradient-6);}.cls-8{fill:url(#linear-gradient-7);}.cls-9{fill:url(#linear-gradient-8);}.cls-10{fill:url(#linear-gradient-9);}.cls-11{fill:url(#linear-gradient-10);}.cls-12{fill:url(#linear-gradient-11);}.cls-13{fill:url(#linear-gradient-12);}.cls-14{fill:url(#linear-gradient-13);}.cls-15{fill:url(#linear-gradient-14);}.cls-16{fill:url(#linear-gradient-15);}.cls-17{fill:url(#linear-gradient-16);}.cls-18{fill:url(#linear-gradient-17);}.cls-19{fill:url(#linear-gradient-18);}.cls-20{fill:url(#linear-gradient-19);}.cls-21{fill:url(#linear-gradient-20);}.cls-22{fill:url(#linear-gradient-21);}.cls-23{fill:url(#linear-gradient-22);}.cls-24{fill:url(#linear-gradient-23);}.cls-25{fill:url(#linear-gradient-24);}</style><linearGradient id="linear-gradient" x1="11.526" y1="255.485" x2="51.945" y2="223.323" gradientUnits="userSpaceOnUse"><stop offset="0" stop-color="#261b2d"/><stop offset="1" stop-color="#6c6173"/></linearGradient><linearGradient id="linear-gradient-2" x1="22.341" y1="269.077" x2="62.76" y2="236.916" xlink:href="#linear-gradient"/><linearGradient id="linear-gradient-3" x1="14.37" y1="103.464" x2="32.542" y2="81.936" gradientUnits="userSpaceOnUse"><stop offset="0" stop-color="#5a965f"/><stop offset="0.496" stop-color="#73b075"/><stop offset="1" stop-color="#8cca8b"/></linearGradient><linearGradient id="linear-gradient-4" x1="22.663" y1="124.864" x2="38.04" y2="109.767" gradientUnits="userSpaceOnUse"><stop offset="0" stop-color="#4b87aa"/><stop offset="0.997" stop-color="#9cd3e7"/></linearGradient><linearGradient id="linear-gradient-5" x1="48.479" y1="43.759" x2="97.932" y2="17.13" xlink:href="#linear-gradient"/><linearGradient id="linear-gradient-6" x1="30.769" y1="71.509" x2="46.984" y2="53.337" gradientUnits="userSpaceOnUse"><stop offset="0" stop-color="#b46964"/><stop offset="1" stop-color="#eb9590"/></linearGradient><linearGradient id="linear-gradient-7" x1="239.965" y1="243.531" x2="284.807" y2="192.673" gradientTransform="translate(486.532 -28.331) rotate(90)" xlink:href="#linear-gradient-4"/><linearGradient id="linear-gradient-8" x1="239.912" y1="243.484" x2="284.754" y2="192.627" gradientTransform="translate(486.532 -28.331) rotate(90)" xlink:href="#linear-gradient-4"/><linearGradient id="linear-gradient-9" x1="240.717" y1="244.193" x2="285.559" y2="193.336" gradientTransform="translate(486.532 -28.331) rotate(90)" xlink:href="#linear-gradient-4"/><linearGradient id="linear-gradient-10" x1="205.639" y1="37.865" x2="247.472" y2="-11.35" xlink:href="#linear-gradient-6"/><linearGradient id="linear-gradient-11" x1="191.485" y1="48.157" x2="238.865" y2="2.439" xlink:href="#linear-gradient-4"/><linearGradient id="linear-gradient-12" x1="217.795" y1="199.757" x2="338.542" y2="-37.989" xlink:href="#linear-gradient"/><linearGradient id="linear-gradient-13" x1="228.988" y1="210.95" x2="349.734" y2="-26.797" xlink:href="#linear-gradient-3"/><linearGradient id="linear-gradient-14" x1="240.18" y1="222.142" x2="360.927" y2="-15.604" xlink:href="#linear-gradient-6"/><linearGradient id="linear-gradient-15" x1="240.18" y1="233.335" x2="360.927" y2="-4.411" xlink:href="#linear-gradient-6"/><linearGradient id="linear-gradient-16" x1="240.18" y1="244.528" x2="360.927" y2="6.781" xlink:href="#linear-gradient-6"/><linearGradient id="linear-gradient-17" x1="228.988" y1="255.72" x2="349.734" y2="17.974" xlink:href="#linear-gradient-3"/><linearGradient id="linear-gradient-18" x1="240.18" y1="266.968" x2="360.927" y2="29.222" xlink:href="#linear-gradient-6"/><linearGradient id="linear-gradient-19" x1="251.373" y1="278.161" x2="372.12" y2="40.415" xlink:href="#linear-gradient-4"/><linearGradient id="linear-gradient-20" x1="251.373" y1="289.133" x2="372.12" y2="51.387" xlink:href="#linear-gradient-4"/><linearGradient id="linear-gradient-21" x1="240.07" y1="300.436" x2="360.817" y2="62.69" xlink:href="#linear-gradient-6"/><linearGradient id="linear-gradient-22" x1="106.478" y1="195.724" x2="229.794" y2="72.409" xlink:href="#linear-gradient"/><linearGradient id="linear-gradient-23" x1="124.424" y1="182.531" x2="93.708" y2="220.182" xlink:href="#linear-gradient-3"/><linearGradient id="linear-gradient-24" x1="157.659" y1="146.07" x2="83.678" y2="210.803" xlink:href="#linear-gradient-3"/></defs><title>skillset-icons</title><path class="cls-1" d="M47.746,223.853a1.213,1.213,0,0,0-.633.147c-.439,1.023-1.17,1.072-4.387,1.072H24.594c-3.705,0-3.851-.195-4.094-1.024a1.124,1.124,0,0,0-.683-.195,1.162,1.162,0,0,0-.682.244,59.706,59.706,0,0,1-1.609,8.287,1.366,1.366,0,0,0,1.8.438c1.463-3.558,2.486-5.508,6.045-5.508H28.4c1.17,0,1.17.244,1.17,1.413v21.5c0,4.533-.293,4.972-2.486,5.216l-2.194.243a1.39,1.39,0,0,0,0,1.706c3.412-.1,5.947-.146,8.286-.146,2.194,0,4.631.049,7.8.146a1.55,1.55,0,0,0,0-1.706l-1.95-.243c-2.193-.293-2.485-.683-2.485-5.216v-21.5c0-1.267.146-1.413,1.316-1.413h2.924c3.656,0,4.338,2.291,5.167,5.411.244.389,1.56.292,1.8-.147a34.513,34.513,0,0,1,.732-8.383A1.039,1.039,0,0,0,47.746,223.853Z"/><path class="cls-2" d="M65.266,238.577H60.124V233.49a1.807,1.807,0,0,0-3.613,0v5.087H51.644a1.807,1.807,0,0,0,0,3.613h4.867v5.221a1.807,1.807,0,0,0,3.613,0V242.19h5.142a1.807,1.807,0,0,0,0-3.613Z"/><rect class="cls-3" x="20.92" y="80.181" width="14.212" height="14.212" rx="7.106"/><rect class="cls-4" x="27.025" y="106.498" width="14.212" height="14.212" rx="7.106"/><rect class="cls-5" x="13.814" y="127.816" width="14.212" height="14.212" rx="7.106"/><path class="cls-6" d="M91.1,25.324l-1.752-1.752a1.131,1.131,0,0,1,0-1.6L93.93,17.39a3.61,3.61,0,1,0-5.106-5.106l-4.581,4.581a1.132,1.132,0,0,1-1.6,0l-1.753-1.752a3.61,3.61,0,0,0-5.106,0h0a3.611,3.611,0,0,0,0,5.106l.667.667L61.015,36.323a7.7,7.7,0,0,0-1.962,3.285,12.143,12.143,0,0,1-1.971,2.63l-.686.686-1.142,1.959c-.26.446-2.481,4.421-.415,6.487s6.054-.162,6.5-.425l1.991-1.169.644-.644a12.182,12.182,0,0,1,2.627-1.97A7.713,7.713,0,0,0,69.891,45.2L85.327,29.762,86,30.43a3.61,3.61,0,0,0,5.106,0h0A3.61,3.61,0,0,0,91.1,25.324ZM67.554,42.862a4.893,4.893,0,0,1-2.081,1.253,13.417,13.417,0,0,0-3.835,2.68l-.394.394-1.685.99a7.126,7.126,0,0,1-2.419.89,7.21,7.21,0,0,1,.885-2.414l.961-1.647.432-.433A13.369,13.369,0,0,0,62.1,40.74a4.874,4.874,0,0,1,1.253-2.08L78.788,23.223l4.2,4.2Z"/><path class="cls-7" d="M49.343,54.863H39.275a7.106,7.106,0,0,0,0,14.212h0a7.269,7.269,0,0,0,.742-.039c.145-.015.284-.042.425-.065.1-.016.2-.027.29-.047.121-.025.238-.06.356-.091s.241-.061.359-.1c.057-.019.112-.042.169-.062a7.11,7.11,0,0,0,2.8-1.8C48.452,62.88,49.343,54.863,49.343,54.863Z"/><path class="cls-8" d="M268.928,217.055a3.013,3.013,0,1,0-5.94-.715,2.912,2.912,0,0,0,.04.389,13.6,13.6,0,0,1-13.191,13.19,2.914,2.914,0,0,0-.388-.04,3.018,3.018,0,1,0,.716,5.94A19.511,19.511,0,0,0,268.928,217.055Z"/><path class="cls-9" d="M283.02,213.45a2.959,2.959,0,0,0,.039-.391,3.017,3.017,0,0,0-6.034,0,2.984,2.984,0,0,0,.059.579,30.165,30.165,0,0,1-29.74,29.556,2.9,2.9,0,0,0-.386-.04,3.018,3.018,0,1,0,.654,5.959A36.1,36.1,0,0,0,283.02,213.45Z"/><path class="cls-10" d="M245.046,263.656A52.673,52.673,0,0,0,296.8,211.7a2.982,2.982,0,0,0,.075-.652,3.018,3.018,0,1,0-5.987.466,46.76,46.76,0,0,1-46.7,46.245h0a3.017,3.017,0,1,0,.858,5.895Z"/><rect class="cls-11" x="190.737" y="7.976" width="61.771" height="22.17" rx="11.085"/><path class="cls-12" d="M242.673,37.267H200.739a18.27,18.27,0,0,1,0-36.54h41.934a18.27,18.27,0,0,1,0,36.54ZM200.739,4.083a14.914,14.914,0,1,0,0,29.828h41.934a14.914,14.914,0,0,0,0-29.828Z"/><path class="cls-13" d="M299.452,65.663H270.567a1.75,1.75,0,0,0,0,3.5h28.885a1.75,1.75,0,0,0,0-3.5Z"/><path class="cls-14" d="M310.645,76.856H281.76a1.75,1.75,0,0,0,0,3.5h28.885a1.75,1.75,0,0,0,0-3.5Z"/><path class="cls-15" d="M321.838,88.049H292.952a1.75,1.75,0,0,0,0,3.5h28.886a1.75,1.75,0,0,0,0-3.5Z"/><path class="cls-16" d="M321.838,99.242H292.952a1.75,1.75,0,0,0,0,3.5h28.886a1.75,1.75,0,0,0,0-3.5Z"/><path class="cls-17" d="M321.838,110.434H292.952a1.75,1.75,0,0,0,0,3.5h28.886a1.75,1.75,0,0,0,0-3.5Z"/><path class="cls-18" d="M310.645,121.627H281.76a1.75,1.75,0,0,0,0,3.5h28.885a1.75,1.75,0,0,0,0-3.5Z"/><path class="cls-19" d="M321.838,132.875H292.952a1.75,1.75,0,0,0,0,3.5h28.886a1.75,1.75,0,0,0,0-3.5Z"/><path class="cls-20" d="M333.03,144.067H304.145a1.75,1.75,0,0,0,0,3.5H333.03a1.75,1.75,0,0,0,0-3.5Z"/><path class="cls-21" d="M333.03,155.039H304.145a1.75,1.75,0,0,0,0,3.5H333.03a1.75,1.75,0,0,0,0-3.5Z"/><path class="cls-22" d="M321.727,166.342H292.842a1.75,1.75,0,0,0,0,3.5h28.885a1.75,1.75,0,0,0,0-3.5Z"/><path class="cls-23" d="M167.89,55.963a78.349,78.349,0,1,0,78.349,78.349A78.349,78.349,0,0,0,167.89,55.963Zm0,20.7A11.193,11.193,0,1,1,156.7,87.855,11.193,11.193,0,0,1,167.89,76.662Zm35.469,34.469-27.369,5.16a1.725,1.725,0,0,0-1.406,1.7v15.7a44,44,0,0,0,2.733,15.268l13.116,35.467a5.6,5.6,0,0,1-3.308,7.19h0a5.6,5.6,0,0,1-7.19-3.308l-11.564-31.27a.518.518,0,0,0-.971,0l-11.564,31.27a5.6,5.6,0,1,1-10.5-3.882l13.126-35.493a44.025,44.025,0,0,0,2.732-15.267V117.987a1.725,1.725,0,0,0-1.406-1.7l-27.471-5.179a5.6,5.6,0,0,1,2.073-11l22.307,4.2a81.84,81.84,0,0,0,22.382,0l22.2-4.186a5.6,5.6,0,0,1,2.074,11Z"/><path class="cls-24" d="M167.716,212.661a78.335,78.335,0,0,1-65.567-121.22A78.344,78.344,0,1,0,211.072,199.568,77.966,77.966,0,0,1,167.716,212.661Z"/><path class="cls-25" d="M167.89,212.661A78.338,78.338,0,0,1,102.427,91.28a78.342,78.342,0,1,0,108.495,108.5A77.962,77.962,0,0,1,167.89,212.661Z"/></svg>