<svg id="Layer_1" data-name="Layer 1" xmlns="http://www.w3.org/2000/svg" xmlns:xlink="http://www.w3.org/1999/xlink" viewBox="0 0 335.78 268.624"><defs><style>.cls-1{fill:url(#linear-gradient);}.cls-2{fill:url(#linear-gradient-2);}.cls-3{fill:url(#linear-gradient-3);}.cls-4{fill:url(#linear-gradient-4);}.cls-5{fill:url(#linear-gradient-5);}.cls-6{fill:url(#linear-gradient-6);}.cls-7{fill:url(#linear-gradient-7);}.cls-8{fill:url(#linear-gradient-8);}.cls-9{fill:url(#linear-gradient-9);}.cls-10{fill:#bbbdbf;}.cls-11{fill:url(#linear-gradient-10);}.cls-12{fill:url(#linear-gradient-11);}.cls-13{fill:url(#linear-gradient-12);}.cls-14{fill:url(#linear-gradient-13);}.cls-15{fill:url(#linear-gradient-14);}.cls-16{fill:url(#linear-gradient-15);}.cls-17{fill:url(#linear-gradient-16);}.cls-18{fill:url(#linear-gradient-17);}.cls-19{fill:url(#linear-gradient-18);}.cls-20{fill:#3a2f37;}.cls-21{fill:url(#linear-gradient-19);}</style><linearGradient id="linear-gradient" x1="114.84" y1="148.111" x2="154.215" y2="102.678" gradientTransform="translate(167.68 359.232) rotate(180)" gradientUnits="userSpaceOnUse"><stop offset="0" stop-color="#4b87aa"/><stop offset="0.997" stop-color="#9cd3e7"/></linearGradient><linearGradient id="linear-gradient-2" x1="253.808" y1="264.672" x2="298.725" y2="220.416" gradientUnits="userSpaceOnUse"><stop offset="0" stop-color="#261b2d"/><stop offset="1" stop-color="#6c6173"/></linearGradient><linearGradient id="linear-gradient-3" x1="259.389" y1="270.336" x2="304.306" y2="226.08" xlink:href="#linear-gradient-2"/><linearGradient id="linear-gradient-4" x1="265.832" y1="276.876" x2="310.749" y2="232.619" xlink:href="#linear-gradient-2"/><linearGradient id="linear-gradient-5" x1="271.226" y1="282.35" x2="316.143" y2="238.094" xlink:href="#linear-gradient-2"/><linearGradient id="linear-gradient-6" x1="277.441" y1="288.658" x2="322.358" y2="244.402" xlink:href="#linear-gradient-2"/><linearGradient id="linear-gradient-7" x1="281.74" y1="293.021" x2="326.657" y2="248.765" xlink:href="#linear-gradient-2"/><linearGradient id="linear-gradient-8" x1="272.636" y1="62.048" x2="322.838" y2="1.278" gradientTransform="translate(576.147 116.448) rotate(180)" xlink:href="#linear-gradient-2"/><linearGradient id="linear-gradient-9" x1="315.476" y1="24.291" x2="268.356" y2="59.96" gradientTransform="translate(562.81 103.111) rotate(180)" gradientUnits="userSpaceOnUse"><stop offset="0" stop-color="#5a965f"/><stop offset="1" stop-color="#8cca8b"/></linearGradient><linearGradient id="linear-gradient-10" x1="128.303" y1="180.222" x2="142.724" y2="162.103" gradientUnits="userSpaceOnUse"><stop offset="0" stop-color="#b46964"/><stop offset="1" stop-color="#eb9590"/></linearGradient><linearGradient id="linear-gradient-11" x1="91.522" y1="216.215" x2="211.417" y2="11.737" xlink:href="#linear-gradient-2"/><linearGradient id="linear-gradient-12" x1="113.559" y1="199.821" x2="222.851" y2="13.425" xlink:href="#linear-gradient-2"/><linearGradient id="linear-gradient-13" x1="107.863" y1="235.55" x2="236.45" y2="16.247" xlink:href="#linear-gradient-2"/><linearGradient id="linear-gradient-14" x1="141.886" y1="248.663" x2="257.939" y2="50.737" xlink:href="#linear-gradient-2"/><linearGradient id="linear-gradient-15" x1="145.9" y1="251.016" x2="261.952" y2="53.09" xlink:href="#linear-gradient-2"/><linearGradient id="linear-gradient-16" x1="146.911" y1="251.609" x2="262.964" y2="53.683" xlink:href="#linear-gradient-2"/><linearGradient id="linear-gradient-17" x1="162.349" y1="137.318" x2="89.688" y2="221.428" gradientTransform="matrix(1, 0, 0, 1, 0, 0)" xlink:href="#linear-gradient-9"/><linearGradient id="linear-gradient-18" x1="128.58" y1="68.016" x2="143.553" y2="47.319" gradientTransform="translate(1.109 113.588) rotate(-45)" xlink:href="#linear-gradient"/><linearGradient id="linear-gradient-19" x1="8.922" y1="103.959" x2="44.306" y2="49.245" xlink:href="#linear-gradient-10"/></defs><title>skillset-icons</title><path class="cls-1" d="M.256,246.27a23.466,23.466,0,0,0,46.885-1.5,28.724,28.724,0,0,1,8.215-20.11,1.947,1.947,0,0,0-1.344-3.356H23.676A23.469,23.469,0,0,0,.256,246.27ZM34.1,258.339H14.3a1.834,1.834,0,1,1,0-3.668H34.1a1.834,1.834,0,1,1,0,3.668ZM14.3,231.205H34.1a1.835,1.835,0,1,1,0,3.669H14.3a1.835,1.835,0,0,1,0-3.669ZM9.06,242.938H38.291a1.835,1.835,0,1,1,0,3.669H9.06a1.835,1.835,0,0,1,0-3.669Z"/><path class="cls-2" d="M254.953,258.294v-2.143l8.993-3.784v2.6L258.193,257l-.666.235.666.236,5.753,1.99v2.614Z"/><path class="cls-3" d="M266.918,252.572h2.4l.164,1.558a4.53,4.53,0,0,1,.487-.579,3.971,3.971,0,0,1,.559-.466,3.844,3.844,0,0,1,1.077-.534,4.093,4.093,0,0,1,1.24-.184,4.637,4.637,0,0,1,1.543.246,3.074,3.074,0,0,1,1.216.779,3.633,3.633,0,0,1,.779,1.374,6.559,6.559,0,0,1,.277,2.031v6.87h-2.646v-6.829a3.484,3.484,0,0,0-.154-1.124,1.636,1.636,0,0,0-.44-.7,1.581,1.581,0,0,0-.693-.369,3.766,3.766,0,0,0-.917-.1,2.988,2.988,0,0,0-.806.1,2.235,2.235,0,0,0-.65.3,2.293,2.293,0,0,0-.431.363,2.869,2.869,0,0,0-.349.467v7.9h-2.655Z"/><path class="cls-4" d="M285.824,263.179a5,5,0,0,1-.113-.589,3.858,3.858,0,0,1-.564.5,4.124,4.124,0,0,1-.7.4,4.375,4.375,0,0,1-.851.277,4.5,4.5,0,0,1-.985.1,4.788,4.788,0,0,1-1.573-.246,3.593,3.593,0,0,1-1.216-.687,3.046,3.046,0,0,1-.794-1.052,3.081,3.081,0,0,1-.282-1.317,3.556,3.556,0,0,1,.358-1.63,3.007,3.007,0,0,1,1.067-1.169,4.829,4.829,0,0,1,1.594-.651,9.572,9.572,0,0,1,2.159-.221h1.692v-.7a1.977,1.977,0,0,0-.134-.749,1.486,1.486,0,0,0-.4-.564,1.912,1.912,0,0,0-.681-.379,3.006,3.006,0,0,0-.939-.133,2.73,2.73,0,0,0-.825.112,1.561,1.561,0,0,0-.579.318,1.107,1.107,0,0,0-.318.447,1.522,1.522,0,0,0-.1.568h-2.656a2.86,2.86,0,0,1,.313-1.307,3.362,3.362,0,0,1,.908-1.1,4.509,4.509,0,0,1,1.451-.764,6.227,6.227,0,0,1,1.953-.282,6.745,6.745,0,0,1,1.846.241,4.417,4.417,0,0,1,1.486.723,3.454,3.454,0,0,1,.975,1.205,3.748,3.748,0,0,1,.358,1.686v4.84a7.945,7.945,0,0,0,.108,1.41,3.835,3.835,0,0,0,.323,1.02v.175H286A2.462,2.462,0,0,1,285.824,263.179ZM284,261.672a3.007,3.007,0,0,0,.707-.292,2.369,2.369,0,0,0,.548-.4,2.156,2.156,0,0,0,.365-.467v-1.979H284.1a5.161,5.161,0,0,0-1.261.134,2.283,2.283,0,0,0-.851.389,1.521,1.521,0,0,0-.446.564,1.706,1.706,0,0,0-.149.718,1.519,1.519,0,0,0,.113.589,1.231,1.231,0,0,0,.338.467,1.709,1.709,0,0,0,.544.282,2.422,2.422,0,0,0,.759.108A3.182,3.182,0,0,0,284,261.672Z"/><path class="cls-5" d="M292.732,253.854a2.689,2.689,0,0,1,.877-1.087,2.253,2.253,0,0,1,1.349-.4,2.592,2.592,0,0,1,.717.092,1.53,1.53,0,0,1,.554.287,1.485,1.485,0,0,1,.318.343,2.139,2.139,0,0,1,.226.457,2.5,2.5,0,0,1,.328-.446,2.19,2.19,0,0,1,.4-.344,2.314,2.314,0,0,1,.615-.287,2.582,2.582,0,0,1,.748-.1,2.5,2.5,0,0,1,.954.18,1.967,1.967,0,0,1,.769.568,2.826,2.826,0,0,1,.508,1.031,5.647,5.647,0,0,1,.179,1.523v8h-2.43v-8.009a1.747,1.747,0,0,0-.072-.538.95.95,0,0,0-.195-.354.692.692,0,0,0-.287-.174,1.2,1.2,0,0,0-.359-.051,1.1,1.1,0,0,0-.348.051,1.165,1.165,0,0,0-.277.133.99.99,0,0,0-.19.205.852.852,0,0,0-.118.257v8.48h-2.369v-8.019a2.028,2.028,0,0,0-.061-.538.836.836,0,0,0-.174-.344.69.69,0,0,0-.288-.174,1.2,1.2,0,0,0-.358-.051,1.082,1.082,0,0,0-.38.061.908.908,0,0,0-.3.185.72.72,0,0,0-.159.2,2.052,2.052,0,0,0-.118.256v8.419h-2.43V252.572h2.286Z"/><path class="cls-6" d="M306.138,263.457a5.329,5.329,0,0,1-1.769-1.144,4.933,4.933,0,0,1-1.138-1.7,5.512,5.512,0,0,1-.4-2.107v-.41a6.478,6.478,0,0,1,.4-2.344,5.466,5.466,0,0,1,1.123-1.809,5.1,5.1,0,0,1,1.687-1.164,5.24,5.24,0,0,1,2.087-.415,5.328,5.328,0,0,1,2.128.4,4.469,4.469,0,0,1,1.574,1.117,4.817,4.817,0,0,1,.963,1.728,7.151,7.151,0,0,1,.329,2.22v1.128h-7.619V259a4.333,4.333,0,0,0,.364,1.149,2.878,2.878,0,0,0,.62.81,3.033,3.033,0,0,0,.939.574,3.174,3.174,0,0,0,1.163.2,4.181,4.181,0,0,0,1.661-.338,3.2,3.2,0,0,0,1.292-.985l1.364,1.405a4.778,4.778,0,0,1-1.707,1.42,5.738,5.738,0,0,1-2.774.631A6.089,6.089,0,0,1,306.138,263.457Zm1.046-8.763a2.113,2.113,0,0,0-.744.513,2.923,2.923,0,0,0-.548.81,4.182,4.182,0,0,0-.324,1.067h4.943v-.2a2.518,2.518,0,0,0-.169-.9,2.145,2.145,0,0,0-1.21-1.266,2.552,2.552,0,0,0-1.021-.19A2.421,2.421,0,0,0,307.184,254.694Z"/><path class="cls-7" d="M315.4,259.483l6.029-2.082.626-.194-.616-.2-6.039-2.051v-2.584l9.187,3.773v2.154l-9.187,3.794Z"/><path class="cls-8" d="M279.47,73.166h1.971a9.121,9.121,0,0,0,.75,1.847L280.808,76.4a2.5,2.5,0,0,0,0,3.535h0a2.5,2.5,0,0,0,3.535,0l1.354-1.354a9.1,9.1,0,0,0,1.876.808v1.884a2.5,2.5,0,0,0,2.5,2.5h0a2.5,2.5,0,0,0,2.5-2.5V79.445a9.082,9.082,0,0,0,1.963-.78l1.266,1.266a2.5,2.5,0,0,0,3.536,0h0a2.5,2.5,0,0,0,0-3.535L298.1,75.158a9.053,9.053,0,0,0,.838-1.992h1.738a2.5,2.5,0,0,0,2.5-2.5h0a2.5,2.5,0,0,0-2.5-2.5h-1.738a9.012,9.012,0,0,0-.838-1.992l1.238-1.238a2.5,2.5,0,0,0,0-3.535h0a2.5,2.5,0,0,0-3.536,0l-1.266,1.266a9.082,9.082,0,0,0-1.963-.78V60.063a2.5,2.5,0,0,0-2.5-2.5h0a2.5,2.5,0,0,0-2.5,2.5v1.884a9.1,9.1,0,0,0-1.876.808L284.344,61.4a2.5,2.5,0,0,0-3.535,0h0a2.5,2.5,0,0,0,0,3.535l1.383,1.383a9.121,9.121,0,0,0-.75,1.847H279.47a2.5,2.5,0,0,0-2.5,2.5h0A2.5,2.5,0,0,0,279.47,73.166Zm10.72-8.243a5.743,5.743,0,1,1-5.743,5.743A5.743,5.743,0,0,1,290.19,64.923Z"/><path class="cls-9" d="M280.808,64.936a2.5,2.5,0,0,1,0-3.535h0a2.5,2.5,0,0,1,3.535,0l1.354,1.355a9.1,9.1,0,0,1,1.876-.808V60.063a2.5,2.5,0,0,1,2.5-2.5h0a2.5,2.5,0,0,1,2.5,2.5v1.824a9.082,9.082,0,0,1,1.963.78L295.8,61.4a2.5,2.5,0,0,1,3.535,0h0a2.5,2.5,0,0,1,0,3.535l-.068.068a5.6,5.6,0,0,0,1.621-2.261h2.841a5.136,5.136,0,0,0,5.13-5.129V43.5a5.6,5.6,0,1,0-4,0V57.614a1.131,1.131,0,0,1-1.13,1.129h-2.841a5.6,5.6,0,0,0-5.222-3.6h-3.6V43.5a5.6,5.6,0,1,0-4,0v11.65h-3.6a5.593,5.593,0,0,0-5.222,3.6h-2.842a1.13,1.13,0,0,1-1.129-1.129V43.5a5.6,5.6,0,1,0-4,0V57.614a5.135,5.135,0,0,0,5.129,5.129h2.842a5.613,5.613,0,0,0,1.621,2.262Z"/><path class="cls-10" d="M317.77,219.2a2.047,2.047,0,0,0-2.354.447l-3.137,3.137-.1-.036a62.079,62.079,0,0,0-46.655-55.262.317.317,0,0,1-.114-.564,62.106,62.106,0,0,0,24.677-48.961L293.125,121a2.047,2.047,0,0,0,2.354.447,2.007,2.007,0,0,0,.534-3.216l-6.848-6.848a1.507,1.507,0,0,0-2.132,0l-7.676,7.676a1.171,1.171,0,0,0,.828,2h0a2,2,0,0,0,2.828,0l3.065-3.065a58.122,58.122,0,0,1-25.615,47.563h0a3.356,3.356,0,0,1-2.317.541,62.4,62.4,0,0,0-7.906-.507h-2a2,2,0,0,0-1.98,2.291,2.108,2.108,0,0,0,2.133,1.709h1.847A58.016,58.016,0,0,1,308.1,222.236a.06.06,0,0,1-.1.048l-2.636-2.636a2.047,2.047,0,0,0-2.354-.447,2.007,2.007,0,0,0-.534,3.216l7.1,7.1a1.145,1.145,0,0,0,1.619,0l7.1-7.1A2.007,2.007,0,0,0,317.77,219.2Z"/><rect class="cls-11" x="129.711" y="160.501" width="15.912" height="15.912" rx="7.956"/><path class="cls-12" d="M134.578,134.013h31a6.182,6.182,0,0,0,6.178-6.178v-22.76a6.916,6.916,0,0,0-2.424-5.258L152.088,84.248a3.154,3.154,0,0,0-4.1,0L130.814,99.82a6.916,6.916,0,0,0-2.414,5.25v22.765A6.178,6.178,0,0,0,134.578,134.013Zm33.312-27.4v20.143l-9.622-13Zm-20.144,11.487a3.911,3.911,0,0,0,4.663,0l2.754-2.037L165.6,130.1l-.026.053h-31l-.019-.04,10.475-14.041Zm-15.482-11.487,9.665,7.146-9.665,13.018Z"/><path class="cls-13" d="M196,76.082a.715.715,0,0,1,.7.709v8.337a1.307,1.307,0,0,0,1.943,1.145c5.035-2.793,18.117-11.824,18.117-30.239A20.062,20.062,0,1,0,196,76.082Zm11.427-23.87a3.243,3.243,0,1,1-3.243,3.243A3.243,3.243,0,0,1,207.428,52.212Zm-10.723,0a3.243,3.243,0,1,1-3.244,3.243A3.243,3.243,0,0,1,196.705,52.212Zm-10.724,0a3.243,3.243,0,1,1-3.243,3.243A3.243,3.243,0,0,1,185.981,52.212Z"/><path class="cls-14" d="M221.826,11.808H124.45a12.757,12.757,0,0,0-12.743,12.743V223.9a12.757,12.757,0,0,0,12.743,12.743h97.376A12.757,12.757,0,0,0,234.569,223.9V24.551A12.758,12.758,0,0,0,221.826,11.808Zm-53.362,4.618h12.963a1.486,1.486,0,1,1,0,2.972H168.464a1.486,1.486,0,1,1,0-2.972Zm60.1,105.781V223.973L117.707,223.9V24.551H228.569Z"/><path class="cls-15" d="M179.852,162.089a4.936,4.936,0,0,0-8.426,3.476l-.042,14.763-8.366,8.366a7.051,7.051,0,0,0,9.564,10.348l2.6,7.8a4.223,4.223,0,0,0,6.992,1.651h0a4.223,4.223,0,0,0,1.02-4.322L179.269,192.4l2.091-2.091L195,188.432a4.936,4.936,0,0,0,2.819-8.38Z"/><path class="cls-16" d="M190.387,154.812a2.5,2.5,0,0,0-.6-.08,2.545,2.545,0,1,0,0,5.09,2.351,2.351,0,0,0,.328-.033,11.471,11.471,0,0,1,11.127,11.129,2.515,2.515,0,0,0-.033.327,2.546,2.546,0,1,0,5.011-.6A16.46,16.46,0,0,0,190.387,154.812Z"/><path class="cls-17" d="M187.346,142.923a2.54,2.54,0,1,0-.33,5.058,2.524,2.524,0,0,0,.488-.05,25.447,25.447,0,0,1,24.934,25.09,2.484,2.484,0,0,0-.033.325,2.546,2.546,0,0,0,5.091,0,2.511,2.511,0,0,0-.064-.552A30.456,30.456,0,0,0,187.346,142.923Z"/><path class="cls-18" d="M124.45,236.715a12.757,12.757,0,0,1-12.743-12.742V56.783h-7.845A14.762,14.762,0,0,0,89.1,71.545V243.108a14.761,14.761,0,0,0,14.761,14.761h82.4a14.762,14.762,0,0,0,14.762-14.761v-6.393ZM94.615,170.632a2.175,2.175,0,1,1,2.175-2.175A2.175,2.175,0,0,1,94.615,170.632Zm9.634,0a2.175,2.175,0,1,1,2.175-2.175A2.175,2.175,0,0,1,104.249,170.632Z"/><rect class="cls-19" x="130.654" y="48.442" width="14.027" height="14.027" transform="translate(79.535 -81.103) rotate(45)"/><path class="cls-10" d="M228.569,126.7a11.733,11.733,0,1,1,0-21.267v-5.153a16.592,16.592,0,0,0-2.436-.582V97.192a2.5,2.5,0,0,0-2.5-2.5h0a2.5,2.5,0,0,0-2.5,2.5V99.7a16.4,16.4,0,0,0-3.629.979l-1.265-2.157a2.5,2.5,0,0,0-3.421-.891h0a2.5,2.5,0,0,0-.892,3.421l1.265,2.156a16.644,16.644,0,0,0-2.44,2.446l-2.159-1.261a2.5,2.5,0,0,0-3.419.9h0a2.5,2.5,0,0,0,.9,3.419l2.158,1.26a16.475,16.475,0,0,0-.968,3.6h-2.5a2.5,2.5,0,0,0-2.5,2.5h0a2.5,2.5,0,0,0,2.5,2.5h2.5a16.478,16.478,0,0,0,.978,3.632l-2.151,1.262a2.5,2.5,0,0,0-.892,3.421h0a2.5,2.5,0,0,0,3.421.892l2.151-1.262a16.727,16.727,0,0,0,2.448,2.443l-1.257,2.153a2.5,2.5,0,0,0,.9,3.419h0a2.5,2.5,0,0,0,3.419-.9l1.257-2.153a16.422,16.422,0,0,0,3.6.968v2.5a2.5,2.5,0,0,0,2.5,2.5h0a2.5,2.5,0,0,0,2.5-2.5v-2.5a16.718,16.718,0,0,0,2.436-.581Z"/><path class="cls-10" d="M60.339,84.247a17.44,17.44,0,0,1,0-24.636l.12-.121a22.038,22.038,0,0,0,0-31.169l-.057-.058a2.31,2.31,0,0,0-3.267,3.267l.058.057a17.44,17.44,0,0,1,0,24.636l-.121.121a22.066,22.066,0,0,0,0,31.17,17.44,17.44,0,0,1,.01,24.626l-.114.109A2.309,2.309,0,0,0,60.15,115.6l.189-.18A22.065,22.065,0,0,0,60.339,84.247Z"/><circle class="cls-20" cx="26.265" cy="112.085" r="2.175"/><circle class="cls-20" cx="26.265" cy="122.169" r="2.175"/><circle class="cls-20" cx="26.265" cy="132.253" r="2.175"/><circle class="cls-20" cx="26.265" cy="142.337" r="2.175"/><circle class="cls-20" cx="26.265" cy="152.421" r="2.175"/><circle class="cls-20" cx="26.265" cy="162.505" r="2.175"/><circle class="cls-20" cx="32.662" cy="168.457" r="2.175"/><circle class="cls-20" cx="42.939" cy="168.457" r="2.175"/><circle class="cls-20" cx="53.216" cy="168.457" r="2.175"/><circle class="cls-20" cx="63.492" cy="168.457" r="2.175"/><circle class="cls-20" cx="73.769" cy="168.457" r="2.175"/><circle class="cls-20" cx="84.046" cy="168.457" r="2.175"/><path class="cls-21" d="M38.717,95.357l-.546-.507a3.592,3.592,0,0,0-1.654-.819,3.859,3.859,0,0,1-2.866-2.844c0-.017-.015-.03-.02-.047a1.585,1.585,0,0,0-.187-.445l0-.008a2.311,2.311,0,0,0-1.273-.906,3.806,3.806,0,0,1,.351-7.352A1.588,1.588,0,0,0,33.75,80.9V77.53c0-.012.005-.024.005-.037V76.251a2.166,2.166,0,0,0,0-4.326V67.376a1.592,1.592,0,0,0-1.241-1.538,3.911,3.911,0,0,1-3.007-3.744,3.854,3.854,0,0,1,2.945-3.745,1.591,1.591,0,0,0,1.238-1.537h0a2.219,2.219,0,0,0-2.22-2.22h-.786a6.818,6.818,0,0,0,.671-.606l.034-.034.008-.006h0c.665-.668,1.652-.2,2.3-.684h0a1.032,1.032,0,0,0,.155-.149.411.411,0,0,0,.03-.029,1.441,1.441,0,0,0,.129-.2c.009-.018.021-.03.031-.049a2.176,2.176,0,0,0,.1-.244c.011-.03.024-.054.034-.087.026-.085.046-.189.067-.29.01-.047.023-.085.032-.136.016-.093.025-.207.036-.313.009-.075.02-.139.026-.221.014-.2.022-.415.022-.654V44.332a.93.93,0,0,0-.93-.929h-.262a.9.9,0,0,0-.893.682,2.267,2.267,0,0,1-4.369.214c-.135-.415-.515-.9-.952-.9H25.577c-.436,0-.816.481-.951.9a2.194,2.194,0,0,1-4.254-.214.9.9,0,0,0-.894-.682H19.1a.929.929,0,0,0-.93.929v6.559c0,3.832,1.894,1.984,2.962,3.055h.05a6.945,6.945,0,0,0,.7.646H21.1a2.22,2.22,0,0,0-2.22,2.22v.054a1.569,1.569,0,0,0,1.18,1.511,3.849,3.849,0,0,1,2.853,3.717A3.907,3.907,0,0,1,20,65.81a1.572,1.572,0,0,0-1.184,1.512v4.594a2.172,2.172,0,0,0,0,4.343v4.63A1.573,1.573,0,0,0,20,82.4a3.919,3.919,0,0,1,2.914,3.717,3.849,3.849,0,0,1-2.528,3.614,3.024,3.024,0,0,0-.929.555l-.043.037a2.038,2.038,0,0,0-.278.313c-.024.036-.048.071-.07.109a1.279,1.279,0,0,0-.154.365c-.008.027-.026.049-.032.077a3.858,3.858,0,0,1-2.866,2.844,3.587,3.587,0,0,0-1.654.819l-.476.442a3.568,3.568,0,0,0-1.2,2.641v2.551a4.275,4.275,0,0,0,4.275,4.274h18.6a4.275,4.275,0,0,0,4.275-4.274V97.933A3.513,3.513,0,0,0,38.717,95.357Z"/></svg>