<svg id="Layer_1" data-name="Layer 1" xmlns="http://www.w3.org/2000/svg" xmlns:xlink="http://www.w3.org/1999/xlink" viewBox="0 0 335.78 268.624"><defs><style>.cls-1{fill:url(#linear-gradient);}.cls-2{fill:url(#linear-gradient-2);}.cls-3{fill:url(#linear-gradient-3);}.cls-4{fill:#261b2d;}.cls-5{fill:url(#linear-gradient-4);}.cls-6{fill:url(#linear-gradient-5);}.cls-7{fill:url(#linear-gradient-6);}.cls-8{fill:url(#linear-gradient-7);}.cls-9{fill:url(#linear-gradient-8);}.cls-10{fill:url(#linear-gradient-9);}.cls-11{fill:url(#linear-gradient-10);}.cls-12{fill:url(#linear-gradient-11);}.cls-13{fill:url(#linear-gradient-12);}.cls-14{fill:url(#linear-gradient-13);}.cls-15{fill:url(#linear-gradient-14);}.cls-16{fill:url(#linear-gradient-15);}.cls-17{fill:#bbbdbf;}.cls-18{fill:url(#linear-gradient-16);}.cls-19{fill:url(#linear-gradient-17);}.cls-20{fill:url(#linear-gradient-18);}.cls-21{fill:url(#linear-gradient-19);}.cls-22{fill:url(#linear-gradient-20);}.cls-23{fill:url(#linear-gradient-21);}.cls-24{fill:url(#linear-gradient-22);}.cls-25{fill:url(#linear-gradient-23);}.cls-26{fill:url(#linear-gradient-24);}.cls-27{fill:url(#linear-gradient-25);}.cls-28{fill:url(#linear-gradient-26);}</style><linearGradient id="linear-gradient" x1="80.839" y1="180.649" x2="94.05" y2="154.558" gradientUnits="userSpaceOnUse"><stop offset="0" stop-color="#261b2d"/><stop offset="1" stop-color="#6c6173"/></linearGradient><linearGradient id="linear-gradient-2" x1="163.957" y1="148.565" x2="66.654" y2="248.73" gradientUnits="userSpaceOnUse"><stop offset="0" stop-color="#4b87aa"/><stop offset="0.997" stop-color="#9cd3e7"/></linearGradient><linearGradient id="linear-gradient-3" x1="173.776" y1="249.818" x2="174.431" y2="219.37" xlink:href="#linear-gradient"/><linearGradient id="linear-gradient-4" x1="44.573" y1="112.402" x2="89.491" y2="63.081" gradientUnits="userSpaceOnUse"><stop offset="0" stop-color="#b46964"/><stop offset="1" stop-color="#eb9590"/></linearGradient><linearGradient id="linear-gradient-5" x1="49.91" y1="117.262" x2="94.828" y2="67.941" xlink:href="#linear-gradient-4"/><linearGradient id="linear-gradient-6" x1="54.671" y1="121.598" x2="99.589" y2="72.277" xlink:href="#linear-gradient-4"/><linearGradient id="linear-gradient-7" x1="56.536" y1="253.649" x2="291.691" y2="30.384" xlink:href="#linear-gradient"/><linearGradient id="linear-gradient-8" x1="33.068" y1="228.932" x2="268.224" y2="5.666" xlink:href="#linear-gradient"/><linearGradient id="linear-gradient-9" x1="53.846" y1="250.816" x2="289.001" y2="27.55" xlink:href="#linear-gradient"/><linearGradient id="linear-gradient-10" x1="0.952" y1="195.105" x2="236.108" y2="-28.16" xlink:href="#linear-gradient"/><linearGradient id="linear-gradient-11" x1="6.957" y1="201.43" x2="242.112" y2="-21.836" xlink:href="#linear-gradient"/><linearGradient id="linear-gradient-12" x1="11.829" y1="206.561" x2="246.984" y2="-16.704" xlink:href="#linear-gradient"/><linearGradient id="linear-gradient-13" x1="16.701" y1="211.693" x2="251.856" y2="-11.573" xlink:href="#linear-gradient"/><linearGradient id="linear-gradient-14" x1="21.573" y1="216.824" x2="256.728" y2="-6.441" xlink:href="#linear-gradient"/><linearGradient id="linear-gradient-15" x1="251.848" y1="146.866" x2="282.674" y2="112.518" gradientUnits="userSpaceOnUse"><stop offset="0" stop-color="#5a965f"/><stop offset="1" stop-color="#8cca8b"/></linearGradient><linearGradient id="linear-gradient-16" x1="48.226" y1="244.897" x2="283.381" y2="21.631" xlink:href="#linear-gradient"/><linearGradient id="linear-gradient-17" x1="74.892" y1="272.983" x2="310.048" y2="49.718" xlink:href="#linear-gradient"/><linearGradient id="linear-gradient-18" x1="79.764" y1="278.115" x2="314.92" y2="54.849" xlink:href="#linear-gradient"/><linearGradient id="linear-gradient-19" x1="187.486" y1="36.949" x2="228.44" y2="7.885" xlink:href="#linear-gradient-15"/><linearGradient id="linear-gradient-20" x1="195.42" y1="48.13" x2="236.374" y2="19.066" xlink:href="#linear-gradient-15"/><linearGradient id="linear-gradient-21" x1="204.113" y1="60.379" x2="245.067" y2="31.314" xlink:href="#linear-gradient-15"/><linearGradient id="linear-gradient-22" x1="336.734" y1="242.467" x2="306.349" y2="270.541" gradientUnits="userSpaceOnUse"><stop offset="0.022" stop-color="#e6e7e8"/><stop offset="1" stop-color="#bbbdbf"/></linearGradient><linearGradient id="linear-gradient-23" x1="314.089" y1="20.591" x2="337.428" y2="-0.326" gradientUnits="userSpaceOnUse"><stop offset="0" stop-color="#b46964"/><stop offset="0.927" stop-color="#eb9590"/></linearGradient><linearGradient id="linear-gradient-24" x1="12.505" y1="41.268" x2="31.44" y2="23.873" gradientTransform="matrix(0, 1, 1, 0, -0.196, -9.087)" xlink:href="#linear-gradient"/><linearGradient id="linear-gradient-25" x1="90.409" y1="-2.34" x2="15.106" y2="64.045" gradientTransform="matrix(1, 0, 0, -1, 0, 36.055)" xlink:href="#linear-gradient-22"/><linearGradient id="linear-gradient-26" x1="66.513" y1="-29.446" x2="-8.79" y2="36.939" gradientTransform="matrix(1, 0, 0, -1, 0, 36.055)" xlink:href="#linear-gradient-22"/></defs><title>skillset-icons</title><path class="cls-1" d="M99.776,172.509l-5.469-5.469,3.287-3.287a.5.5,0,0,0-.126-.8l-18.342-9.345a.9.9,0,0,0-1.217,1.217l9.345,18.342a.5.5,0,0,0,.8.126l3.286-3.287,5.469,5.469a2.1,2.1,0,1,0,2.971-2.97Z"/><path class="cls-2" d="M52.634,223.87c-9.571,0-14.087-4.517-14.087-10.088V77.743H26.365A10.087,10.087,0,0,0,16.277,87.831V236.052a10.087,10.087,0,0,0,10.088,10.087h249.2a10.087,10.087,0,0,0,10.088-10.087V223.87Z"/><path class="cls-3" d="M203.468,223.87h-67.39c0,19.413-18.151,20.635-18.151,20.635H229.853S203.468,242.4,203.468,223.87Z"/><path class="cls-4" d="M239.3,244.505H108.484a1.75,1.75,0,1,0,0,3.5H239.3a1.75,1.75,0,0,0,0-3.5Z"/><path class="cls-5" d="M67.769,67.344h12.74A12.593,12.593,0,0,1,93.1,79.938v0A12.593,12.593,0,0,1,80.508,92.531H67.769A12.593,12.593,0,0,1,55.176,79.938v0A12.594,12.594,0,0,1,67.769,67.344Z"/><path class="cls-6" d="M80.508,95.805H67.769A12.586,12.586,0,0,1,55.6,86.4a12.551,12.551,0,0,0,12.171,15.778H80.508A12.551,12.551,0,0,0,92.68,86.4,12.588,12.588,0,0,1,80.508,95.805Z"/><path class="cls-7" d="M80.508,105.368H67.769A12.586,12.586,0,0,1,55.6,95.96a12.551,12.551,0,0,0,12.171,15.778H80.508A12.551,12.551,0,0,0,92.68,95.96,12.588,12.588,0,0,1,80.508,105.368Z"/><path class="cls-8" d="M181.747,123.036a11.733,11.733,0,1,0,11.733,11.733A11.733,11.733,0,0,0,181.747,123.036Z"/><circle class="cls-9" cx="157.76" cy="110.545" r="5.743"/><path class="cls-10" d="M297.831,50.754H48.634A10.088,10.088,0,0,0,38.547,60.842v152.94c0,5.571,4.516,10.088,12.087,10.088h249.2c3.571,0,8.088-4.517,8.088-10.088V60.842A10.089,10.089,0,0,0,297.831,50.754ZM173.89,214.05A7.106,7.106,0,1,1,181,206.944,7.106,7.106,0,0,1,173.89,214.05Zm127.886-23.457H44.683V61.125a4.9,4.9,0,0,1,4.9-4.9h246.61a5.584,5.584,0,0,1,5.583,5.584Z"/><circle class="cls-11" cx="80.524" cy="119.557" r="2.175"/><circle class="cls-12" cx="86.921" cy="125.509" r="2.175"/><circle class="cls-13" cx="97.198" cy="125.509" r="2.175"/><circle class="cls-14" cx="107.474" cy="125.509" r="2.175"/><circle class="cls-15" cx="117.751" cy="125.509" r="2.175"/><rect class="cls-16" x="251.551" y="109.074" width="38.508" height="33.339" rx="4.53"/><path class="cls-17" d="M288.308,150.106H253.3a1.75,1.75,0,0,0,0,3.5h35.007a1.75,1.75,0,0,0,0-3.5Z"/><path class="cls-17" d="M288.308,161.3H253.3a1.75,1.75,0,0,0,0,3.5h35.007a1.75,1.75,0,0,0,0-3.5Z"/><path class="cls-17" d="M288.308,172.491H253.3a1.75,1.75,0,0,0,0,3.5h35.007a1.75,1.75,0,0,0,0-3.5Z"/><path class="cls-18" d="M173.89,74.394a51.192,51.192,0,1,0,51.192,51.192A51.193,51.193,0,0,0,173.89,74.394Zm-45.862,53.29a2.175,2.175,0,1,1,2.175-2.175A2.174,2.174,0,0,1,128.028,127.684Zm10.277,0a2.175,2.175,0,1,1,2.175-2.175A2.175,2.175,0,0,1,138.305,127.684Zm21.955-6.653a2.5,2.5,0,0,1-2.5,2.5h0a2.5,2.5,0,0,1-2.5-2.5v-1.738a9.1,9.1,0,0,1-1.992-.837l-1.237,1.237a2.5,2.5,0,0,1-3.536,0h0a2.5,2.5,0,0,1,0-3.535l1.266-1.266a9.111,9.111,0,0,1-.78-1.964h-1.824a2.5,2.5,0,0,1-2.5-2.5h0a2.5,2.5,0,0,1,2.5-2.5h1.885a9.03,9.03,0,0,1,.807-1.875L148.5,104.7a2.5,2.5,0,0,1,0-3.535h0a2.5,2.5,0,0,1,3.535,0l1.383,1.382a9.061,9.061,0,0,1,1.847-.749V99.825a2.5,2.5,0,0,1,2.5-2.5h0a2.5,2.5,0,0,1,2.5,2.5V101.8a9.038,9.038,0,0,1,1.847.749l1.383-1.382a2.5,2.5,0,0,1,3.535,0h0a2.5,2.5,0,0,1,0,3.535l-1.355,1.355a9.033,9.033,0,0,1,.808,1.875h1.884a2.5,2.5,0,0,1,2.5,2.5h0a2.5,2.5,0,0,1-2.5,2.5h-1.824a9.06,9.06,0,0,1-.78,1.964l1.266,1.266a2.5,2.5,0,0,1,0,3.535h0a2.5,2.5,0,0,1-3.535,0l-1.238-1.237a9.057,9.057,0,0,1-1.992.837Zm42.863,13.738a2.5,2.5,0,0,1-2.5,2.5h-2.5a16.475,16.475,0,0,1-.968,3.6l2.158,1.26a2.5,2.5,0,0,1,.9,3.418h0a2.5,2.5,0,0,1-3.419.9l-2.159-1.261a16.644,16.644,0,0,1-2.44,2.446l1.265,2.156a2.5,2.5,0,0,1-.892,3.421h0a2.5,2.5,0,0,1-3.421-.891l-1.265-2.157a16.454,16.454,0,0,1-3.629.979v2.507a2.5,2.5,0,0,1-2.5,2.5h0a2.5,2.5,0,0,1-2.5-2.5v-2.507a16.409,16.409,0,0,1-3.6-.967l-1.261,2.16a2.5,2.5,0,0,1-3.419.9h0a2.5,2.5,0,0,1-.9-3.419l1.261-2.16a16.742,16.742,0,0,1-2.447-2.439l-2.155,1.264a2.5,2.5,0,0,1-3.421-.891h0a2.5,2.5,0,0,1,.892-3.421l2.155-1.264a16.4,16.4,0,0,1-.98-3.63h-2.5a2.5,2.5,0,0,1-2.5-2.5h0a2.5,2.5,0,0,1,2.5-2.5h2.5a16.426,16.426,0,0,1,.967-3.6l-2.156-1.258a2.5,2.5,0,0,1-.9-3.419h0a2.5,2.5,0,0,1,3.419-.9l2.155,1.257A16.72,16.72,0,0,1,171.3,121.9l-1.261-2.15a2.5,2.5,0,0,1,.891-3.421h0a2.5,2.5,0,0,1,3.421.891l1.261,2.15a16.42,16.42,0,0,1,3.633-.98v-2.5a2.5,2.5,0,0,1,2.5-2.5h0a2.5,2.5,0,0,1,2.5,2.5v2.5a16.422,16.422,0,0,1,3.6.968l1.257-2.153a2.5,2.5,0,0,1,3.419-.9h0a2.5,2.5,0,0,1,.9,3.419l-1.257,2.153a16.727,16.727,0,0,1,2.448,2.443l2.151-1.262a2.5,2.5,0,0,1,3.421.892h0a2.5,2.5,0,0,1-.892,3.421l-2.151,1.262a16.478,16.478,0,0,1,.978,3.632h2.5a2.5,2.5,0,0,1,2.5,2.5Zm16.821-11.435a2.175,2.175,0,1,1-2.176,2.175A2.175,2.175,0,0,1,219.944,123.334Zm-8.1,2.175a2.175,2.175,0,1,1-2.175-2.175A2.175,2.175,0,0,1,211.842,125.509Z"/><circle class="cls-19" cx="230.22" cy="125.509" r="2.175"/><circle class="cls-20" cx="240.497" cy="125.509" r="2.175"/><path class="cls-21" d="M197.917,37.142l1.576-1.576h0l1.259-1.265a.905.905,0,0,0,0-1.278l-1.261-1.267h.006l-1.171-1.17-.007-.008-2.286-2.3h-6.241a5.6,5.6,0,1,0,0,11.192h5.843Z"/><path class="cls-22" d="M205.77,32.646a1.436,1.436,0,0,1,0,2.031l-4.743,4.8h28.565l2.288-2.33,1.575-1.576h0L234.71,34.3a.907.907,0,0,0,0-1.278l-1.261-1.267h0l-1.17-1.17-.008-.008-2.285-2.3H201.418Z"/><path class="cls-23" d="M245.75,28.28H235.381l4.352,4.366a1.436,1.436,0,0,1,0,2.031l-4.743,4.8h10.76a5.6,5.6,0,1,0,0-11.192Z"/><path class="cls-24" d="M313.122,267.963l4.845-4.845a11.187,11.187,0,1,0-2.829-2.828l-4.844,4.845a2,2,0,0,0,2.828,2.828Zm11.193-21.188a7.167,7.167,0,1,1-7.168,7.167A7.175,7.175,0,0,1,324.315,246.775Z"/><path class="cls-25" d="M335.466.118,313.5.151l5.57,5.57a.851.851,0,0,0,.6.251l10.1.056.057,10.1a.855.855,0,0,0,.25.6l5.543,5.543.061-21.94A.2.2,0,0,0,335.466.118Z"/><path class="cls-26" d="M45.018,13.387h0a2.5,2.5,0,0,0-2.5-2.5H40.633a9.03,9.03,0,0,0-.807-1.875L41.18,7.656a2.5,2.5,0,0,0,0-3.535h0a2.5,2.5,0,0,0-3.535,0L36.262,5.5a9.008,9.008,0,0,0-1.847-.75V2.783a2.5,2.5,0,0,0-2.5-2.5h0a2.5,2.5,0,0,0-2.5,2.5V4.754a8.985,8.985,0,0,0-1.847.75L26.185,4.121a2.5,2.5,0,0,0-3.535,0h0a2.5,2.5,0,0,0,0,3.535L24,9.011a9.033,9.033,0,0,0-.808,1.875H21.312a2.5,2.5,0,0,0-2.5,2.5h0a2.5,2.5,0,0,0,2.5,2.5h1.824a9.04,9.04,0,0,0,.78,1.964L22.65,19.116a2.5,2.5,0,0,0,0,3.535h0a2.5,2.5,0,0,0,3.535,0l1.238-1.238a9.009,9.009,0,0,0,1.992.837V23.99a2.5,2.5,0,0,0,2.5,2.5h0a2.5,2.5,0,0,0,2.5-2.5V22.251a9.05,9.05,0,0,0,1.992-.837l1.237,1.238a2.5,2.5,0,0,0,3.536,0h0a2.5,2.5,0,0,0,0-3.535L39.914,17.85a9.037,9.037,0,0,0,.779-1.964h1.825A2.5,2.5,0,0,0,45.018,13.387Zm-7.36.116A5.743,5.743,0,1,1,31.915,7.76,5.743,5.743,0,0,1,37.658,13.5Z"/><path class="cls-27" d="M74.139,19.011A5.625,5.625,0,0,1,68.928,15.5H43.836a2.493,2.493,0,0,0,1.182-2.116h0a2.482,2.482,0,0,0-.873-1.883h24.7a5.624,5.624,0,1,1,5.3,7.508Z"/><path class="cls-28" d="M22.65,4.121h0a2.5,2.5,0,0,0,0,3.534L24,9.011a9.033,9.033,0,0,0-.808,1.875H21.312a2.5,2.5,0,0,0-2.5,2.5h0a2.5,2.5,0,0,0,2.5,2.5h1.824a9.04,9.04,0,0,0,.78,1.964L22.65,19.116a2.5,2.5,0,0,0,0,3.535h0a2.5,2.5,0,0,0,3.535,0l.068-.068a5.612,5.612,0,0,1-2.261,1.621v2.841a5.135,5.135,0,0,1-5.129,5.129H10.746a5.6,5.6,0,1,1,0-4h8.117a1.131,1.131,0,0,0,1.129-1.129V24.205a5.6,5.6,0,0,1-3.6-5.222v-3.6h-5.65a5.6,5.6,0,1,1,0-4H16.4V7.79c0-.02,0-.04,0-.06h.026A5.513,5.513,0,0,1,16.8,5.756c.038-.1.074-.2.118-.29s.085-.182.13-.271a5.624,5.624,0,0,1,2.949-2.627V2.551a5.494,5.494,0,0,1,4,.01v.007A5.6,5.6,0,0,1,26.253,4.19l-.068-.069A2.5,2.5,0,0,0,22.65,4.121Z"/></svg>