<svg id="Layer_1" data-name="Layer 1" xmlns="http://www.w3.org/2000/svg" xmlns:xlink="http://www.w3.org/1999/xlink" viewBox="0 0 335.78 268.624"><defs><style>.cls-1{fill:url(#linear-gradient);}.cls-2{fill:url(#linear-gradient-2);}.cls-3{fill:url(#linear-gradient-3);}.cls-4{fill:url(#linear-gradient-4);}.cls-5{fill:url(#linear-gradient-5);}.cls-6{fill:url(#linear-gradient-6);}.cls-7{fill:url(#linear-gradient-7);}.cls-8{fill:url(#linear-gradient-8);}.cls-9{fill:url(#linear-gradient-9);}.cls-10{fill:url(#linear-gradient-10);}.cls-11{fill:url(#linear-gradient-11);}.cls-12{fill:url(#linear-gradient-12);}.cls-13{fill:url(#linear-gradient-13);}.cls-14{fill:url(#linear-gradient-14);}.cls-15{fill:url(#linear-gradient-15);}.cls-16{fill:url(#linear-gradient-16);}.cls-17{fill:url(#linear-gradient-17);}.cls-18{fill:url(#linear-gradient-18);}.cls-19{fill:url(#linear-gradient-19);}.cls-20{fill:url(#linear-gradient-20);}.cls-21{fill:url(#linear-gradient-21);}.cls-22{fill:url(#linear-gradient-22);}.cls-23{fill:#bbbdbf;}.cls-24{fill:url(#linear-gradient-23);}.cls-25{fill:url(#linear-gradient-24);}.cls-26{fill:url(#linear-gradient-25);}.cls-27{fill:url(#linear-gradient-26);}.cls-28{fill:url(#linear-gradient-27);}.cls-29{fill:url(#linear-gradient-28);}.cls-30{fill:url(#linear-gradient-29);}.cls-31{fill:url(#linear-gradient-30);}.cls-32{fill:url(#linear-gradient-31);}.cls-33{fill:url(#linear-gradient-32);}.cls-34{fill:url(#linear-gradient-33);}.cls-35{fill:url(#linear-gradient-34);}.cls-36{fill:url(#linear-gradient-35);}</style><linearGradient id="linear-gradient" x1="1.215" y1="300.978" x2="67.27" y2="228.758" gradientUnits="userSpaceOnUse"><stop offset="0" stop-color="#5a965f"/><stop offset="1" stop-color="#8cca8b"/></linearGradient><linearGradient id="linear-gradient-2" x1="-43.186" y1="260.368" x2="22.869" y2="188.148" xlink:href="#linear-gradient"/><linearGradient id="linear-gradient-3" x1="-49.756" y1="254.359" x2="16.299" y2="182.139" xlink:href="#linear-gradient"/><linearGradient id="linear-gradient-4" x1="-6.01" y1="294.37" x2="60.045" y2="222.15" xlink:href="#linear-gradient"/><linearGradient id="linear-gradient-5" x1="-64.473" y1="240.898" x2="1.582" y2="168.678" xlink:href="#linear-gradient"/><linearGradient id="linear-gradient-6" x1="-49.923" y1="254.206" x2="16.132" y2="181.986" xlink:href="#linear-gradient"/><linearGradient id="linear-gradient-7" x1="-14.049" y1="287.017" x2="52.006" y2="214.797" xlink:href="#linear-gradient"/><linearGradient id="linear-gradient-8" x1="-26.914" y1="275.25" x2="39.141" y2="203.03" xlink:href="#linear-gradient"/><linearGradient id="linear-gradient-9" x1="-45.932" y1="257.856" x2="20.123" y2="185.636" xlink:href="#linear-gradient"/><linearGradient id="linear-gradient-10" x1="-20.152" y1="281.436" x2="45.903" y2="209.216" xlink:href="#linear-gradient"/><linearGradient id="linear-gradient-11" x1="-54.141" y1="250.348" x2="11.914" y2="178.128" xlink:href="#linear-gradient"/><linearGradient id="linear-gradient-12" x1="-11.843" y1="289.035" x2="54.212" y2="216.815" xlink:href="#linear-gradient"/><linearGradient id="linear-gradient-13" x1="-31.62" y1="270.946" x2="34.435" y2="198.726" xlink:href="#linear-gradient"/><linearGradient id="linear-gradient-14" x1="-69.166" y1="236.606" x2="-3.111" y2="164.386" xlink:href="#linear-gradient"/><linearGradient id="linear-gradient-15" x1="-62.596" y1="242.615" x2="3.459" y2="170.395" xlink:href="#linear-gradient"/><linearGradient id="linear-gradient-16" x1="-35.693" y1="267.221" x2="30.362" y2="195.001" xlink:href="#linear-gradient"/><linearGradient id="linear-gradient-17" x1="-35.538" y1="267.363" x2="30.517" y2="195.143" xlink:href="#linear-gradient"/><linearGradient id="linear-gradient-18" x1="-55.872" y1="248.764" x2="10.183" y2="176.544" xlink:href="#linear-gradient"/><linearGradient id="linear-gradient-19" x1="255.729" y1="47.624" x2="292.148" y2="9.663" gradientUnits="userSpaceOnUse"><stop offset="0" stop-color="#4b87aa"/><stop offset="0.997" stop-color="#9cd3e7"/></linearGradient><linearGradient id="linear-gradient-20" x1="268.127" y1="59.518" x2="304.546" y2="21.557" xlink:href="#linear-gradient-19"/><linearGradient id="linear-gradient-21" x1="277.62" y1="68.625" x2="314.038" y2="30.663" xlink:href="#linear-gradient-19"/><linearGradient id="linear-gradient-22" x1="340.969" y1="275.736" x2="378.62" y2="212.984" gradientTransform="translate(-36.892 -17.925) rotate(4.589)" gradientUnits="userSpaceOnUse"><stop offset="0" stop-color="#b46964"/><stop offset="0.927" stop-color="#eb9590"/></linearGradient><linearGradient id="linear-gradient-23" x1="317.53" y1="261.673" x2="355.182" y2="198.921" xlink:href="#linear-gradient-22"/><linearGradient id="linear-gradient-24" x1="351.243" y1="233.315" x2="368.509" y2="204.91" gradientTransform="translate(-36.892 -17.925) rotate(4.589)" gradientUnits="userSpaceOnUse"><stop offset="0" stop-color="#261b2d"/><stop offset="1" stop-color="#6c6173"/></linearGradient><linearGradient id="linear-gradient-25" x1="184.617" y1="125.67" x2="64.075" y2="227.536" xlink:href="#linear-gradient-19"/><linearGradient id="linear-gradient-26" x1="103.811" y1="225.083" x2="221.003" y2="59.635" gradientTransform="matrix(1, 0, 0, 1, 0, 0)" xlink:href="#linear-gradient-24"/><linearGradient id="linear-gradient-27" x1="129.043" y1="198.539" x2="214.874" y2="159.684" gradientTransform="matrix(1, 0, 0, 1, 0, 0)" xlink:href="#linear-gradient-22"/><linearGradient id="linear-gradient-28" x1="138.536" y1="150.891" x2="219.036" y2="97.031" gradientUnits="userSpaceOnUse"><stop offset="0" stop-color="#5a965f"/><stop offset="0.496" stop-color="#73b075"/><stop offset="1" stop-color="#8cca8b"/></linearGradient><linearGradient id="linear-gradient-29" x1="154.758" y1="36.08" x2="179.827" y2="7.358" xlink:href="#linear-gradient-28"/><linearGradient id="linear-gradient-30" x1="161.767" y1="42.197" x2="186.836" y2="13.475" xlink:href="#linear-gradient-28"/><linearGradient id="linear-gradient-31" x1="147.396" y1="29.654" x2="172.465" y2="0.932" xlink:href="#linear-gradient-28"/><linearGradient id="linear-gradient-32" x1="299.559" y1="134.204" x2="333.467" y2="96.113" xlink:href="#linear-gradient-28"/><linearGradient id="linear-gradient-33" x1="294.913" y1="130.068" x2="328.821" y2="91.977" xlink:href="#linear-gradient-28"/><linearGradient id="linear-gradient-34" x1="284.062" y1="120.409" x2="317.97" y2="82.317" xlink:href="#linear-gradient-28"/><linearGradient id="linear-gradient-35" x1="-0.313" y1="62.589" x2="44.934" y2="16.35" gradientTransform="matrix(1, 0, 0, 1, 0, 0)" xlink:href="#linear-gradient-22"/></defs><title>skillset-icons</title><path class="cls-1" d="M63.735,264.758H1.75a1.75,1.75,0,0,0,0,3.5H63.735a1.75,1.75,0,1,0,0-3.5Z"/><path class="cls-2" d="M1.75,208.891H9.245a1.75,1.75,0,1,0,0-3.5H1.75a1.75,1.75,0,0,0,0,3.5Z"/><path class="cls-3" d="M1.75,195.7H9.245a1.75,1.75,0,1,0,0-3.5H1.75a1.75,1.75,0,0,0,0,3.5Z"/><path class="cls-4" d="M1.75,261.662H49.263a1.75,1.75,0,0,0,0-3.5H1.75a1.75,1.75,0,0,0,0,3.5Z"/><path class="cls-5" d="M1.75,162.717H15.521a1.75,1.75,0,0,0,0-3.5H1.75a1.75,1.75,0,0,0,0,3.5Z"/><path class="cls-6" d="M1.75,189.1H20.7a1.75,1.75,0,1,0,0-3.5H1.75a1.75,1.75,0,0,0,0,3.5Z"/><path class="cls-7" d="M1.75,248.469H43.868a1.75,1.75,0,0,0,0-3.5H1.75a1.75,1.75,0,0,0,0,3.5Z"/><path class="cls-8" d="M1.75,235.276h19a1.75,1.75,0,1,0,0-3.5h-19a1.75,1.75,0,0,0,0,3.5Z"/><path class="cls-9" d="M1.75,202.3h9.475a1.75,1.75,0,0,0,0-3.5H1.75a1.75,1.75,0,0,0,0,3.5Z"/><path class="cls-10" d="M1.75,241.873H33.52a1.75,1.75,0,0,0,0-3.5H1.75a1.75,1.75,0,0,0,0,3.5Z"/><path class="cls-11" d="M1.75,182.506H17.271a1.75,1.75,0,0,0,0-3.5H1.75a1.75,1.75,0,0,0,0,3.5Z"/><path class="cls-12" d="M1.75,255.065H39.905a1.75,1.75,0,1,0,0-3.5H1.75a1.75,1.75,0,0,0,0,3.5Z"/><path class="cls-13" d="M1.75,228.68H15.527a1.75,1.75,0,1,0,0-3.5H1.75a1.75,1.75,0,0,0,0,3.5Z"/><path class="cls-14" d="M1.75,156.12h8.6a1.75,1.75,0,0,0,0-3.5H1.75a1.75,1.75,0,0,0,0,3.5Z"/><path class="cls-15" d="M1.75,169.313h8.6a1.75,1.75,0,0,0,0-3.5H1.75a1.75,1.75,0,0,0,0,3.5Z"/><path class="cls-16" d="M1.75,222.084H12.635a1.75,1.75,0,0,0,0-3.5H1.75a1.75,1.75,0,0,0,0,3.5Z"/><path class="cls-17" d="M1.75,215.487H25.27a1.75,1.75,0,1,0,0-3.5H1.75a1.75,1.75,0,0,0,0,3.5Z"/><path class="cls-18" d="M1.75,175.909H22.978a1.75,1.75,0,1,0,0-3.5H1.75a1.75,1.75,0,0,0,0,3.5Z"/><path class="cls-19" d="M277.616,41.553a1.14,1.14,0,0,1-.564-.643,4.215,4.215,0,0,1-.192-1.03q-.05-.611-.178-1.416a4.828,4.828,0,0,0-.4-1.624,5.391,5.391,0,0,0-.933-1.416,5.18,5.18,0,0,0-.921-.775,6.406,6.406,0,0,0,1.307-1.075,7.471,7.471,0,0,0,1.352-2.092,5.967,5.967,0,0,0,.5-2.38,7.04,7.04,0,0,0-.9-3.588,6.736,6.736,0,0,0-2.364-2.445,5.964,5.964,0,0,0-3.137-.885h-9.267a1.924,1.924,0,0,0-1.963,1.962v18.6a1.72,1.72,0,0,0,.708,1.4,2.511,2.511,0,0,0,1.609.563,1.517,1.517,0,0,0,1.255-.563,2.168,2.168,0,0,0,.45-1.4V36.5h6.017a4.2,4.2,0,0,1,1.287.177A2.226,2.226,0,0,1,272.725,38a2.619,2.619,0,0,1,.193,1.013,9.183,9.183,0,0,0,.338,2.735,4.723,4.723,0,0,0,.885,1.69,4.541,4.541,0,0,0,1.093.949,3.308,3.308,0,0,0,.9.3,2.683,2.683,0,0,0,1.093,0,1.56,1.56,0,0,0,.9-.53,1.5,1.5,0,0,0,.37-1.4A1.813,1.813,0,0,0,277.616,41.553Zm-4.569-10.344a4.008,4.008,0,0,1-.9,1.448,1.622,1.622,0,0,1-1.127.531h-7.046v-7.3h7.046a2.115,2.115,0,0,1,1.626.949A3.682,3.682,0,0,1,273.4,29.2,5.56,5.56,0,0,1,273.047,31.209Z"/><path class="cls-20" d="M300.992,25.256a10.525,10.525,0,0,0-3.475-2.493,10.632,10.632,0,0,0-4.393-.9,10.436,10.436,0,0,0-7.834,3.394,11.456,11.456,0,0,0-2.269,3.684,13.023,13.023,0,0,0,0,9.01,11.456,11.456,0,0,0,2.269,3.684,10.7,10.7,0,0,0,15.7,0,11.506,11.506,0,0,0,2.268-3.684,13.023,13.023,0,0,0,0-9.01A11.506,11.506,0,0,0,300.992,25.256Zm-1.979,12.1a7.11,7.11,0,0,1-2.382,2.784,6.491,6.491,0,0,1-7.014,0,6.983,6.983,0,0,1-2.365-2.784,9.43,9.43,0,0,1,0-7.834,7.01,7.01,0,0,1,2.365-2.768,6.491,6.491,0,0,1,7.014,0,7.117,7.117,0,0,1,2.382,2.784,9.236,9.236,0,0,1,0,7.818Z"/><path class="cls-21" d="M312.8,22.747a1.933,1.933,0,0,0-1.367-.563,2.036,2.036,0,0,0-1.48.563,1.872,1.872,0,0,0-.579,1.4v18.6a1.9,1.9,0,0,0,2,1.962,2.021,2.021,0,0,0,1.415-.563,1.822,1.822,0,0,0,.612-1.4v-18.6A1.847,1.847,0,0,0,312.8,22.747Z"/><path class="cls-22" d="M315.321,238.471l-19.315,6.806,5.439,19.733a1.045,1.045,0,0,0,1.421.688A24.213,24.213,0,0,0,316.7,239.246,1.046,1.046,0,0,0,315.321,238.471Z"/><path class="cls-23" d="M290.95,225.163a16.429,16.429,0,0,0-7.6,2.474.693.693,0,0,0-.148,1.034l7.544,8.844.932-11.6A.693.693,0,0,0,290.95,225.163Z"/><path class="cls-23" d="M285.311,258.762a15.053,15.053,0,0,0,9.4,1.864.721.721,0,0,0,.593-.908l-3.089-11.256-7.11,9.236A.719.719,0,0,0,285.311,258.762Z"/><path class="cls-24" d="M276.111,228.03a1.154,1.154,0,0,0-1.762,0c-.217.261-.435.534-.658.823a24.088,24.088,0,0,0,1.442,31.249,1.164,1.164,0,0,0,1.779-.065l12.572-16.328Z"/><path class="cls-25" d="M298.147,210.806l-2.329,29.007,27.4-9.782a1.332,1.332,0,0,0,.761-1.828A33.711,33.711,0,0,0,299.715,209.6,1.333,1.333,0,0,0,298.147,210.806Z"/><path class="cls-26" d="M90.516,213.41A10.013,10.013,0,0,1,80.5,203.4V80.258a.69.69,0,0,0-.691-.69H70.418a12.7,12.7,0,0,0-12.705,12.7V222.767a12.7,12.7,0,0,0,12.705,12.705H223.437a12.7,12.7,0,0,0,12.7-12.705V213.41Z"/><path class="cls-27" d="M248.343,213.41H90.519A10.016,10.016,0,0,1,80.5,203.394V58.9a3.31,3.31,0,0,1,3.309-3.31h0a3.31,3.31,0,0,1,3.31,3.31V203.4a3.4,3.4,0,0,0,3.4,3.4h4.84a.694.694,0,0,0,.693-.693V159.967a14.816,14.816,0,0,1,14.816-14.817h0a14.817,14.817,0,0,1,14.817,14.817V206.1a.693.693,0,0,0,.693.693h13.431a.694.694,0,0,0,.693-.693V123.872a14.816,14.816,0,0,1,14.816-14.817h0a14.817,14.817,0,0,1,14.817,14.817V206.1a.693.693,0,0,0,.693.693h13.431a.694.694,0,0,0,.693-.693v-67.41a14.816,14.816,0,0,1,14.816-14.816h0a14.816,14.816,0,0,1,14.817,14.816V206.1a.693.693,0,0,0,.693.693h13.431a.693.693,0,0,0,.693-.693V94.238a14.816,14.816,0,0,1,14.817-14.816h0a14.816,14.816,0,0,1,14.816,14.816v92.01l-.049,16.55A10.643,10.643,0,0,1,248.343,213.41Z"/><path class="cls-28" d="M243.6,180.442l-42.043-14.654a4.588,4.588,0,0,0-4.058.517l-41.543,27.756a1.994,1.994,0,0,1-2.232-.012l-40.375-27.594a4.587,4.587,0,0,0-4.791-.236l-21.43,11.732v6.037l22.52-12.329a1.991,1.991,0,0,1,2.081.1l40.514,27.688a4.588,4.588,0,0,0,5.137.027l41.942-28.022a2,2,0,0,1,1.764-.224l41.641,14.514a4.585,4.585,0,0,0,2.961.02l13.272-4.426v-5.583l-14.073,4.694A1.991,1.991,0,0,1,243.6,180.442Z"/><path class="cls-29" d="M243.585,128.632,203.263,86.246a4.582,4.582,0,0,0-6.985.408L155.2,141.427a.875.875,0,0,1-1.184.2l-40.284-26.857a4.582,4.582,0,0,0-5.952.753L87.123,138.544v7.929l23.513-26.2a1.162,1.162,0,0,1,1.508-.19l41.62,27.746a2.757,2.757,0,0,0,3.735-.64L199.186,91.6a1.159,1.159,0,0,1,1.767-.1l41.268,43.382a2.758,2.758,0,0,0,4,0l12.819-13.476v-7.683l-14.184,14.91A.874.874,0,0,1,243.585,128.632Z"/><path class="cls-30" d="M182.671.5h-23.18a5.289,5.289,0,0,0-5.289,5.29V28.968a5.289,5.289,0,0,0,5.289,5.289h23.18a5.289,5.289,0,0,0,5.289-5.289V5.789A5.289,5.289,0,0,0,182.671.5Zm-22.938,9.763a4.588,4.588,0,1,1,4.588,4.588A4.593,4.593,0,0,1,159.733,10.262Zm3.877,17.785a1.509,1.509,0,0,1-.418-2.093L176.457,6.415A1.51,1.51,0,1,1,178.97,8.09L165.7,27.629A1.51,1.51,0,0,1,163.61,28.047Zm14.23.322a4.588,4.588,0,1,1,4.589-4.587A4.593,4.593,0,0,1,177.84,28.369Z"/><path class="cls-31" d="M177.84,21.61a2.172,2.172,0,1,0,2.173,2.172A2.174,2.174,0,0,0,177.84,21.61Z"/><path class="cls-32" d="M166.493,10.262a2.172,2.172,0,1,0-2.172,2.172A2.174,2.174,0,0,0,166.493,10.262Z"/><path class="cls-33" d="M335.4,102.277a3.665,3.665,0,0,0-1.131-1.483,6.194,6.194,0,0,0-1.9-.968q-.576-.189-1.244-.354V94.848a9.8,9.8,0,0,1,1.056.389,4.551,4.551,0,0,1,1.081.667,1.1,1.1,0,0,0,.679.226,1.343,1.343,0,0,0,1.006-.453,1.433,1.433,0,0,0,.427-1.005,1.679,1.679,0,0,0-.729-1.333,7.053,7.053,0,0,0-2.276-1.244,8.389,8.389,0,0,0-1.244-.315v-.93a1.53,1.53,0,0,0-.415-1.093,1.4,1.4,0,0,0-1.068-.441,1.5,1.5,0,0,0-1.534,1.534v.867a7.651,7.651,0,0,0-1.936.491,5.272,5.272,0,0,0-2.275,1.76,4.608,4.608,0,0,0-.843,2.791,5.134,5.134,0,0,0,.352,1.948,4.177,4.177,0,0,0,1.044,1.509,5.553,5.553,0,0,0,1.722,1.056,10.213,10.213,0,0,0,1.936.525v4.923a4.847,4.847,0,0,1-1.119-.307,8.016,8.016,0,0,1-1.9-1.181,1.33,1.33,0,0,0-.855-.3,1.377,1.377,0,0,0-1.044.44,1.441,1.441,0,0,0-.414,1.018,1.553,1.553,0,0,0,.176.7,1.994,1.994,0,0,0,.5.629,7.592,7.592,0,0,0,2.691,1.546,9.794,9.794,0,0,0,1.961.36v1.437a1.507,1.507,0,0,0,.427,1.094,1.415,1.415,0,0,0,1.056.44,1.5,1.5,0,0,0,1.534-1.534v-1.555a7.679,7.679,0,0,0,1.37-.431,5.786,5.786,0,0,0,2.376-1.81,4.492,4.492,0,0,0,.9-2.816A5.576,5.576,0,0,0,335.4,102.277Zm-7.291-3.507c-.124-.038-.263-.073-.377-.113a2.983,2.983,0,0,1-1.27-.78,1.787,1.787,0,0,1-.44-1.244,1.735,1.735,0,0,1,.377-1.106,2.5,2.5,0,0,1,1.119-.755,4.217,4.217,0,0,1,.591-.148Zm4.174,6.977a3.33,3.33,0,0,1-1.157.731v-3.924a3.307,3.307,0,0,1,1.181.792,1.9,1.9,0,0,1,.453,1.282A1.562,1.562,0,0,1,332.286,105.747Z"/><path class="cls-34" d="M307.535,105.175a12.518,12.518,0,0,0-12.456,12.571v.855a1.854,1.854,0,1,0,3.707,0v-1.179a8.551,8.551,0,0,1,9.365-8.5,8.707,8.707,0,0,1,7.718,8.752v.929a1.854,1.854,0,1,0,3.708,0v-1.179A12.263,12.263,0,0,0,307.535,105.175Z"/><path class="cls-35" d="M307.013,103.456h.629a8.878,8.878,0,0,0,8.869-8.869v-.629a8.878,8.878,0,0,0-8.869-8.869h-.629a8.878,8.878,0,0,0-8.869,8.869v.629A8.878,8.878,0,0,0,307.013,103.456Zm-5.161-9.5a5.167,5.167,0,0,1,5.161-5.161h.629a5.167,5.167,0,0,1,5.162,5.161v.629a5.167,5.167,0,0,1-5.162,5.161h-.629a5.167,5.167,0,0,1-5.161-5.161Z"/><path class="cls-36" d="M50.23,34.477,33,17.248a3.8,3.8,0,0,0-2.686-1.111l-10.328,0a3.8,3.8,0,0,0-3.795,3.777L16.14,30.308a3.8,3.8,0,0,0,1.112,2.7L34.474,50.233a2.683,2.683,0,0,0,3.8,0L50.23,38.274A2.686,2.686,0,0,0,50.23,34.477ZM22.587,25.594a2.175,2.175,0,1,1,3.076,0A2.175,2.175,0,0,1,22.587,25.594Z"/></svg>