<svg id="Layer_1" data-name="Layer 1" xmlns="http://www.w3.org/2000/svg" xmlns:xlink="http://www.w3.org/1999/xlink" viewBox="0 0 335.78 268.624"><defs><style>.cls-1{fill:url(#linear-gradient);}.cls-2{fill:url(#linear-gradient-2);}.cls-3{fill:url(#linear-gradient-3);}.cls-4{fill:url(#linear-gradient-4);}.cls-5{fill:url(#linear-gradient-5);}.cls-6{fill:url(#linear-gradient-6);}.cls-7{fill:url(#linear-gradient-7);}.cls-8{fill:url(#linear-gradient-8);}.cls-9{fill:#3a2f37;}.cls-10{fill:url(#linear-gradient-9);}.cls-11{fill:#bbbdbf;}.cls-12{fill:url(#linear-gradient-10);}.cls-13{fill:url(#linear-gradient-11);}.cls-14{fill:url(#linear-gradient-12);}.cls-15{fill:url(#linear-gradient-13);}.cls-16{fill:url(#linear-gradient-14);}.cls-17{fill:url(#linear-gradient-15);}.cls-18{fill:url(#linear-gradient-16);}.cls-19{fill:url(#linear-gradient-17);}.cls-20{fill:url(#linear-gradient-18);}.cls-21{fill:url(#linear-gradient-19);}.cls-22{fill:url(#linear-gradient-20);}.cls-23{fill:url(#linear-gradient-21);}.cls-24{fill:url(#linear-gradient-22);}.cls-25{fill:url(#linear-gradient-23);}.cls-26{fill:url(#linear-gradient-24);}.cls-27{fill:url(#linear-gradient-25);}.cls-28{fill:url(#linear-gradient-26);}.cls-29{fill:url(#linear-gradient-27);}.cls-30{fill:url(#linear-gradient-28);}.cls-31{fill:url(#linear-gradient-29);}.cls-32{fill:url(#linear-gradient-30);}.cls-33{fill:url(#linear-gradient-31);}.cls-34{fill:url(#linear-gradient-32);}.cls-35{fill:#e6e7e8;}.cls-36{fill:url(#linear-gradient-33);}.cls-37{fill:url(#linear-gradient-34);}.cls-38{fill:url(#linear-gradient-35);}</style><linearGradient id="linear-gradient" x1="6.274" y1="266.855" x2="46.187" y2="216.964" gradientUnits="userSpaceOnUse"><stop offset="0" stop-color="#b46964"/><stop offset="1" stop-color="#eb9590"/></linearGradient><linearGradient id="linear-gradient-2" x1="6.732" y1="69.211" x2="48.052" y2="10.965" gradientUnits="userSpaceOnUse"><stop offset="0" stop-color="#5a965f"/><stop offset="1" stop-color="#8cca8b"/></linearGradient><linearGradient id="linear-gradient-3" x1="2.222" y1="66.012" x2="43.542" y2="7.766" xlink:href="#linear-gradient-2"/><linearGradient id="linear-gradient-4" x1="-2.357" y1="62.763" x2="38.963" y2="4.517" xlink:href="#linear-gradient-2"/><linearGradient id="linear-gradient-5" x1="257.317" y1="239.811" x2="301.394" y2="191.214" gradientTransform="translate(-0.561 0.785) rotate(-0.15)" gradientUnits="userSpaceOnUse"><stop offset="0" stop-color="#261b2d"/><stop offset="1" stop-color="#6c6173"/></linearGradient><linearGradient id="linear-gradient-6" x1="268.174" y1="250.368" x2="312.251" y2="201.771" xlink:href="#linear-gradient-5"/><linearGradient id="linear-gradient-7" x1="277.951" y1="262.5" x2="322.028" y2="213.903" xlink:href="#linear-gradient-5"/><linearGradient id="linear-gradient-8" x1="26.161" y1="111.657" x2="38.578" y2="91.238" gradientTransform="translate(-60.494 52.874) rotate(-45)" xlink:href="#linear-gradient-5"/><linearGradient id="linear-gradient-9" x1="276.206" y1="73.39" x2="315.582" y2="27.957" gradientUnits="userSpaceOnUse"><stop offset="0" stop-color="#4b87aa"/><stop offset="0.997" stop-color="#9cd3e7"/></linearGradient><linearGradient id="linear-gradient-10" x1="113.267" y1="264.115" x2="156.863" y2="204.665" xlink:href="#linear-gradient-2"/><linearGradient id="linear-gradient-11" x1="151.873" y1="292.426" x2="195.469" y2="232.976" xlink:href="#linear-gradient-2"/><linearGradient id="linear-gradient-12" x1="199.058" y1="327.028" x2="242.654" y2="267.578" xlink:href="#linear-gradient-2"/><linearGradient id="linear-gradient-13" x1="160.452" y1="298.717" x2="204.048" y2="239.268" xlink:href="#linear-gradient-2"/><linearGradient id="linear-gradient-14" x1="114.825" y1="265.258" x2="158.422" y2="205.808" xlink:href="#linear-gradient-2"/><linearGradient id="linear-gradient-15" x1="179.168" y1="312.442" x2="222.764" y2="252.993" xlink:href="#linear-gradient-2"/><linearGradient id="linear-gradient-16" x1="162.01" y1="299.86" x2="205.606" y2="240.41" xlink:href="#linear-gradient-2"/><linearGradient id="linear-gradient-17" x1="126.136" y1="273.552" x2="169.732" y2="214.102" xlink:href="#linear-gradient-2"/><linearGradient id="linear-gradient-18" x1="195.466" y1="324.394" x2="239.062" y2="264.944" xlink:href="#linear-gradient-2"/><linearGradient id="linear-gradient-19" x1="134.243" y1="279.497" x2="177.839" y2="220.047" xlink:href="#linear-gradient-2"/><linearGradient id="linear-gradient-20" x1="155.69" y1="295.225" x2="199.286" y2="235.776" xlink:href="#linear-gradient-2"/><linearGradient id="linear-gradient-21" x1="190.006" y1="320.39" x2="233.603" y2="260.941" xlink:href="#linear-gradient-2"/><linearGradient id="linear-gradient-22" x1="128.429" y1="275.233" x2="172.025" y2="215.784" xlink:href="#linear-gradient-2"/><linearGradient id="linear-gradient-23" x1="167.034" y1="303.544" x2="210.631" y2="244.095" xlink:href="#linear-gradient-2"/><linearGradient id="linear-gradient-24" x1="120.348" y1="269.308" x2="163.945" y2="209.858" xlink:href="#linear-gradient-2"/><linearGradient id="linear-gradient-25" x1="137.506" y1="281.89" x2="181.103" y2="222.441" xlink:href="#linear-gradient-2"/><linearGradient id="linear-gradient-26" x1="184.691" y1="316.492" x2="228.287" y2="257.043" xlink:href="#linear-gradient-2"/><linearGradient id="linear-gradient-27" x1="176.112" y1="310.201" x2="219.708" y2="250.752" xlink:href="#linear-gradient-2"/><linearGradient id="linear-gradient-28" x1="142.485" y1="285.541" x2="186.082" y2="226.092" xlink:href="#linear-gradient-2"/><linearGradient id="linear-gradient-29" x1="143.762" y1="286.478" x2="187.359" y2="227.029" xlink:href="#linear-gradient-2"/><linearGradient id="linear-gradient-30" x1="169.499" y1="305.352" x2="213.096" y2="245.902" xlink:href="#linear-gradient-2"/><linearGradient id="linear-gradient-31" x1="182.137" y1="134.267" x2="70.174" y2="223.441" xlink:href="#linear-gradient-9"/><linearGradient id="linear-gradient-32" x1="107.526" y1="81.575" x2="158.608" y2="56.915" xlink:href="#linear-gradient"/><linearGradient id="linear-gradient-33" x1="148.957" y1="217.168" x2="223.599" y2="116.545" gradientTransform="matrix(1, 0, 0, 1, 0, 0)" xlink:href="#linear-gradient-5"/><linearGradient id="linear-gradient-34" x1="83.596" y1="168.684" x2="158.238" y2="68.061" gradientTransform="matrix(1, 0, 0, 1, 0, 0)" xlink:href="#linear-gradient-5"/><linearGradient id="linear-gradient-35" x1="134.735" y1="206.618" x2="209.377" y2="105.995" gradientTransform="matrix(1, 0, 0, 1, 0, 0)" xlink:href="#linear-gradient-5"/></defs><title>skillset-icons</title><path class="cls-1" d="M50.209,228.768a21.9,21.9,0,0,0-5.07-7.344,22.673,22.673,0,0,0-7.494-4.674,25.379,25.379,0,0,0-9.118-1.636,29.023,29.023,0,0,0-9.589,1.574,21.662,21.662,0,0,0-7.893,4.8,22.649,22.649,0,0,0-5.311,8.069,34.1,34.1,0,0,0,.092,22.917,23.011,23.011,0,0,0,5.521,8.159,22.1,22.1,0,0,0,8.164,4.8,31.524,31.524,0,0,0,9.913,1.541,35.1,35.1,0,0,0,5.193-.363,28.661,28.661,0,0,0,3.454-.668l.405-.127V265.8a1.942,1.942,0,0,0-1.011-3.743l-.006,0a17.872,17.872,0,0,1-2.608.554,35.406,35.406,0,0,1-5.426.325,24.7,24.7,0,0,1-8.363-1.388,18.287,18.287,0,0,1-6.68-4.149A19.506,19.506,0,0,1,9.935,250.5a26.37,26.37,0,0,1-1.625-9.64A27.028,27.028,0,0,1,9.788,231.6a19.278,19.278,0,0,1,4.122-6.8,17.47,17.47,0,0,1,6.351-4.2,22.725,22.725,0,0,1,8.266-1.445,19.73,19.73,0,0,1,8.013,1.559,17.722,17.722,0,0,1,9.709,10.267,20.869,20.869,0,0,1,1.3,7.313,29.483,29.483,0,0,1-.3,3.937,18.264,18.264,0,0,1-1.03,4.06,8.879,8.879,0,0,1-1.964,3.123,4.16,4.16,0,0,1-3.1,1.2,2.26,2.26,0,0,1-1.88-.9,5.181,5.181,0,0,1-.74-3.156V228.8l-.194-.079a23.825,23.825,0,0,0-3.672-1.063,24.527,24.527,0,0,0-5.244-.516,14.206,14.206,0,0,0-5.659,1.074,11.931,11.931,0,0,0-4.178,2.949,12.949,12.949,0,0,0-2.576,4.384,16.078,16.078,0,0,0-.885,5.371,17.006,17.006,0,0,0,.978,6.036,11.579,11.579,0,0,0,2.738,4.273,11.233,11.233,0,0,0,4.123,2.523,15.555,15.555,0,0,0,5.16.826,11.54,11.54,0,0,0,4.182-.74,16.857,16.857,0,0,0,2.746-1.309,5.767,5.767,0,0,0,1.626,1.291,6.594,6.594,0,0,0,3.236.7,9.49,9.49,0,0,0,4.392-1.051,10.33,10.33,0,0,0,3.549-3.084,15.535,15.535,0,0,0,2.354-5.039,25.691,25.691,0,0,0,.849-6.937A24.306,24.306,0,0,0,50.209,228.768ZM32.1,250.405a13.14,13.14,0,0,1-3.212.318,8.808,8.808,0,0,1-3.18-.577,6.662,6.662,0,0,1-2.574-1.774,8.758,8.758,0,0,1-1.732-3.064,13.786,13.786,0,0,1-.641-4.446,13.209,13.209,0,0,1,.584-4.006,8.515,8.515,0,0,1,1.731-3.12,7.89,7.89,0,0,1,2.851-2.014A10.017,10.017,0,0,1,29.843,231a16.312,16.312,0,0,1,2.933.2q.833.162,1.3.269v14.955c0,.446.031.989.091,1.615a6.484,6.484,0,0,0,.26,1.361A9.467,9.467,0,0,1,32.1,250.405Z"/><path class="cls-2" d="M27.9,35.887v5.7c.068-.024.133-.048.2-.074a3.593,3.593,0,0,0,1.547-1.107h0a2.344,2.344,0,0,0,.5-1.506,2.589,2.589,0,0,0-.567-1.782A5.249,5.249,0,0,0,27.9,35.887Z"/><path class="cls-3" d="M25.306,8.165A25.307,25.307,0,1,0,50.613,33.471,25.306,25.306,0,0,0,25.306,8.165Zm8.046,34.507a7.916,7.916,0,0,1-3.135,2.573,9.583,9.583,0,0,1-2.322.743v2.849a2.134,2.134,0,0,1-.595,1.487,2.155,2.155,0,0,1-3.105,0,2.134,2.134,0,0,1-.6-1.488V46.068a10.381,10.381,0,0,1-2.823-.778,13.612,13.612,0,0,1-3.926-2.735,2.332,2.332,0,0,1-.507-.609,2.036,2.036,0,0,1-.274-1.046,2.189,2.189,0,0,1,.634-1.526,2.107,2.107,0,0,1,1.548-.69,2.151,2.151,0,0,1,1.544.669,8.143,8.143,0,0,0,2.663,1.938,7.294,7.294,0,0,0,1.141.4V34.344c-.568-.192-1.089-.388-1.579-.593a11,11,0,0,1-2.494-1.438,6.377,6.377,0,0,1-1.851-2.284,7.307,7.307,0,0,1-.656-3.206A6.656,6.656,0,0,1,18.166,23a7.5,7.5,0,0,1,3.161-2.578,9.62,9.62,0,0,1,2.272-.7V18.106a2.112,2.112,0,0,1,.621-1.53,2.246,2.246,0,0,1,3.1.024,2.149,2.149,0,0,1,.58,1.506v1.583a12.186,12.186,0,0,1,2.193.578,7.81,7.81,0,0,1,3.419,2.345,2.522,2.522,0,0,1,.765,1.7,2.19,2.19,0,0,1-3.593,1.579l-.078-.087a4.852,4.852,0,0,0-1.185-1.028,6.24,6.24,0,0,0-1.521-.694v7.026c.487.161.929.32,1.335.479a11.139,11.139,0,0,1,2.641,1.455,6.672,6.672,0,0,1,1.96,2.365,7.788,7.788,0,0,1,.713,3.49A6.405,6.405,0,0,1,33.352,42.672Z"/><path class="cls-4" d="M21.866,25.255a2.313,2.313,0,0,0-.483,1.5,2.282,2.282,0,0,0,.529,1.589,5.054,5.054,0,0,0,1.687,1.2v-5.42c-.07.023-.14.048-.207.075A3.468,3.468,0,0,0,21.866,25.255Z"/><path class="cls-5" d="M279.923,201.386a2.07,2.07,0,0,0-.787-1.026,2.042,2.042,0,0,0-1.168-.363,1.831,1.831,0,0,0-1.236.317,2.278,2.278,0,0,0-.85,1.082l-8.619,20.854a2.255,2.255,0,0,0-.1.662,1.9,1.9,0,0,0,.456,1.288,1.75,1.75,0,0,0,1.4.519,1.836,1.836,0,0,0,1.1-.369,2.141,2.141,0,0,0,.746-1.03l1.8-4.254,10.388-.027,1.82,4.21a2.486,2.486,0,0,0,.786,1.043,1.83,1.83,0,0,0,1.133.38,1.994,1.994,0,0,0,1.946-2.06,2.352,2.352,0,0,0-.177-.836Zm-5.581,13.669,3.445-8.161,3.52,8.143Z"/><path class="cls-6" d="M302.332,196.56a2.084,2.084,0,0,0-2.119,2.13l.073,28.007a2.091,2.091,0,0,0,.6,1.514,1.958,1.958,0,0,0,1.465.6,2.081,2.081,0,0,0,2.119-2.13l-.073-28.006a2.126,2.126,0,0,0-.579-1.514A1.943,1.943,0,0,0,302.332,196.56Z"/><path class="cls-7" d="M333.366,213.514a6.187,6.187,0,0,0-2.165-2.085,9.716,9.716,0,0,0-1.205-.573,5.088,5.088,0,0,0,2.122-1.8,5.171,5.171,0,0,0,.794-2.876,6.13,6.13,0,0,0-1.65-4.629A6.965,6.965,0,0,0,326.277,200l-8.778.023a2.084,2.084,0,0,0-2.12,2.13l.053,20.134a2.084,2.084,0,0,0,2.13,2.12l8.674-.023a12.883,12.883,0,0,0,2.682-.3,7.571,7.571,0,0,0,2.609-1.1,5.8,5.8,0,0,0,1.962-2.269,8.246,8.246,0,0,0,.74-3.765A6.284,6.284,0,0,0,333.366,213.514Zm-13.453-9.388,5.747-.015a2.5,2.5,0,0,1,2.725,2.849,2.342,2.342,0,0,1-.8,1.918,2.77,2.77,0,0,1-1.81.667l-5.852.015Zm8.853,15.391a3.638,3.638,0,0,1-2.54.86l-6.271.017-.017-6.724,6.026-.015a8.207,8.207,0,0,1,1.6.17,2.685,2.685,0,0,1,1.5.867,3.337,3.337,0,0,1,.633,2.262A3.285,3.285,0,0,1,328.766,219.517Z"/><rect class="cls-8" x="26.565" y="92.446" width="14.027" height="14.027" transform="translate(80.164 5.388) rotate(45)"/><circle class="cls-9" cx="33.263" cy="151.046" r="2.175"/><circle class="cls-9" cx="33.263" cy="140.055" r="2.175"/><circle class="cls-9" cx="61.567" cy="179.926" r="2.175"/><circle class="cls-9" cx="50.606" cy="179.926" r="2.175"/><circle class="cls-9" cx="39.644" cy="179.926" r="2.175"/><circle class="cls-9" cx="33.263" cy="173.03" r="2.175"/><circle class="cls-9" cx="33.263" cy="162.038" r="2.175"/><circle class="cls-9" cx="33.263" cy="118.072" r="2.175"/><circle class="cls-9" cx="33.263" cy="129.063" r="2.175"/><path class="cls-10" d="M328.79,38.241a23.466,23.466,0,0,0-46.884,1.5,28.722,28.722,0,0,1-8.215,20.11,1.947,1.947,0,0,0,1.344,3.356h30.336A23.467,23.467,0,0,0,328.79,38.241Zm-33.841-12.07h19.8a1.835,1.835,0,1,1,0,3.669h-19.8a1.835,1.835,0,1,1,0-3.669Zm19.8,27.135h-19.8a1.835,1.835,0,1,1,0-3.669h19.8a1.835,1.835,0,1,1,0,3.669Zm5.242-11.733H290.756a1.835,1.835,0,1,1,0-3.669h29.231a1.835,1.835,0,0,1,0,3.669Z"/><path class="cls-11" d="M263.668,26.111l6.849-6.847a1.51,1.51,0,0,0,0-2.133l-6.849-6.847a2,2,0,0,0-2.828,0h0a2,2,0,0,0,0,2.828l3.1,3.1A62.126,62.126,0,0,0,213.025,43.6h0l-1.068,1.573a2.049,2.049,0,0,0,0,2.4,2.006,2.006,0,0,0,3.259-.08l1.124-1.654,0,0A58.122,58.122,0,0,1,263.9,20.218l-3.065,3.065a2,2,0,0,0,0,2.828h0A2,2,0,0,0,263.668,26.111Z"/><path class="cls-11" d="M324.421,74.369a2.108,2.108,0,0,0-1.709,2.134v1.846a58.016,58.016,0,0,1-52.648,57.862.06.06,0,0,1-.048-.1l2.695-2.7a2,2,0,0,0,0-2.828h0a2,2,0,0,0-2.828,0l-7.1,7.1a1.144,1.144,0,0,0,0,1.618l7.1,7.1a2,2,0,0,0,2.828,0h0a2,2,0,0,0,0-2.828l-3.2-3.2a.056.056,0,0,1,.036-.1,62.085,62.085,0,0,0,57.161-61.943v-2A2,2,0,0,0,324.421,74.369Z"/><path class="cls-12" d="M114.312,257.192a1.753,1.753,0,0,0-1.75,1.75v7.5a1.75,1.75,0,0,0,3.5,0v-7.5A1.753,1.753,0,0,0,114.312,257.192Z"/><path class="cls-13" d="M173.679,257.192a1.753,1.753,0,0,0-1.75,1.75v7.5a1.75,1.75,0,0,0,3.5,0v-7.5A1.753,1.753,0,0,0,173.679,257.192Z"/><path class="cls-14" d="M246.239,257.192a1.753,1.753,0,0,0-1.75,1.75v7.5a1.75,1.75,0,0,0,3.5,0v-7.5A1.753,1.753,0,0,0,246.239,257.192Z"/><path class="cls-15" d="M186.872,257.192a1.753,1.753,0,0,0-1.75,1.75v7.5a1.75,1.75,0,0,0,3.5,0v-7.5A1.753,1.753,0,0,0,186.872,257.192Z"/><path class="cls-16" d="M120.908,245.738a1.753,1.753,0,0,0-1.75,1.75v18.949a1.75,1.75,0,0,0,3.5,0V247.488A1.752,1.752,0,0,0,120.908,245.738Z"/><path class="cls-17" d="M219.853,245.738a1.753,1.753,0,0,0-1.75,1.75v18.949a1.75,1.75,0,0,0,3.5,0V247.488A1.752,1.752,0,0,0,219.853,245.738Z"/><path class="cls-18" d="M193.468,245.738a1.752,1.752,0,0,0-1.75,1.75v18.949a1.75,1.75,0,0,0,3.5,0V247.488A1.752,1.752,0,0,0,193.468,245.738Z"/><path class="cls-19" d="M134.1,257.192a1.753,1.753,0,0,0-1.75,1.75v7.5a1.75,1.75,0,0,0,3.5,0v-7.5A1.753,1.753,0,0,0,134.1,257.192Z"/><path class="cls-20" d="M239.642,260.12a1.752,1.752,0,0,0-1.75,1.75v4.567a1.75,1.75,0,0,0,3.5,0V261.87A1.752,1.752,0,0,0,239.642,260.12Z"/><path class="cls-21" d="M147.294,255.213a1.752,1.752,0,0,0-1.75,1.75v9.474a1.75,1.75,0,0,0,3.5,0v-9.474A1.752,1.752,0,0,0,147.294,255.213Z"/><path class="cls-22" d="M180.275,255.213a1.753,1.753,0,0,0-1.75,1.75v9.474a1.75,1.75,0,0,0,3.5,0v-9.474A1.752,1.752,0,0,0,180.275,255.213Z"/><path class="cls-23" d="M233.046,255.213a1.752,1.752,0,0,0-1.75,1.75v9.474a1.75,1.75,0,0,0,3.5,0v-9.474A1.752,1.752,0,0,0,233.046,255.213Z"/><path class="cls-24" d="M140.7,248.819a1.752,1.752,0,0,0-1.75,1.75v15.868a1.75,1.75,0,0,0,3.5,0V250.569A1.753,1.753,0,0,0,140.7,248.819Z"/><path class="cls-25" d="M200.064,248.819a1.753,1.753,0,0,0-1.75,1.75v15.868a1.75,1.75,0,0,0,3.5,0V250.569A1.752,1.752,0,0,0,200.064,248.819Z"/><path class="cls-26" d="M127.505,250.91a1.753,1.753,0,0,0-1.75,1.75v13.777a1.75,1.75,0,0,0,3.5,0V252.66A1.753,1.753,0,0,0,127.505,250.91Z"/><path class="cls-27" d="M153.89,250.91a1.753,1.753,0,0,0-1.75,1.75v13.777a1.75,1.75,0,0,0,3.5,0V252.66A1.753,1.753,0,0,0,153.89,250.91Z"/><path class="cls-28" d="M226.45,250.91a1.753,1.753,0,0,0-1.75,1.75v13.777a1.75,1.75,0,0,0,3.5,0V252.66A1.753,1.753,0,0,0,226.45,250.91Z"/><path class="cls-29" d="M213.257,250.91a1.753,1.753,0,0,0-1.75,1.75v13.777a1.75,1.75,0,0,0,3.5,0V252.66A1.753,1.753,0,0,0,213.257,250.91Z"/><path class="cls-30" d="M160.486,253.8a1.753,1.753,0,0,0-1.75,1.75v10.885a1.75,1.75,0,0,0,3.5,0V255.552A1.753,1.753,0,0,0,160.486,253.8Z"/><path class="cls-31" d="M167.083,241.168a1.752,1.752,0,0,0-1.75,1.75v23.519a1.75,1.75,0,0,0,3.5,0V242.918A1.752,1.752,0,0,0,167.083,241.168Z"/><path class="cls-32" d="M206.661,241.168a1.752,1.752,0,0,0-1.75,1.75v23.519a1.75,1.75,0,0,0,3.5,0V242.918A1.752,1.752,0,0,0,206.661,241.168Z"/><path class="cls-33" d="M97.685,192.692H97.53c-.21,0-.415-.023-.621-.039-.013,0-.027,0-.04,0a7.927,7.927,0,0,1-3.126-.914l.068-.058a7.965,7.965,0,0,1-2.892-2.789l-.116.1a7.931,7.931,0,0,1-1.248-4.271V114.343h0v-6.656a10.835,10.835,0,0,1,3.112-7.708L72.187,115.193a12.178,12.178,0,0,0-4.912,9.772v75.471A12.225,12.225,0,0,0,79.5,212.661H214.2a9.771,9.771,0,0,0,9.771-9.771v-10.2ZM72.529,182.1a2.176,2.176,0,1,1,2.175-2.176A2.175,2.175,0,0,1,72.529,182.1Z"/><path class="cls-34" d="M134.168,21.605c-26.05.184-47.022-11.193-47.022-11.193,11.394,15.835,13.665,45.127,13.665,45.127l10.445-15.75c44.752,41.284,57.077,93.433,57.077,93.433s3.2-53.965-49.151-103.431Z"/><path class="cls-35" d="M167.89,99.353a45.374,45.374,0,0,0-4.732.257C169.3,119.944,168.477,134,168.477,134s-3.291-13.892-12.618-33a44.852,44.852,0,0,0-31.043,30.926l24.4,12.2h0l18.677,9.339,18.677-9.339h0l24.4-12.2A44.78,44.78,0,0,0,167.89,99.353Z"/><path class="cls-36" d="M167.863,153.463l-18.677-9.339L93.7,191.681a7.938,7.938,0,0,0,3.787.956H238.237a7.937,7.937,0,0,0,3.786-.956L186.54,144.124Z"/><path class="cls-37" d="M93.514,116.288v-8.357A7.515,7.515,0,0,1,96.6,101.86l42.016-30.677q-1.139-1.623-2.328-3.253L94,98.805a10.932,10.932,0,0,0-4.485,8.827v6.656h0v70.374a7.931,7.931,0,0,0,1.248,4.271l54.541-46.75Z"/><path class="cls-38" d="M241.779,98.805l-69.9-51a6.81,6.81,0,0,0-8.029,0L145.484,61.215c.733,1.135,1.45,2.267,2.137,3.393L165.178,51.79a4.553,4.553,0,0,1,5.371,0L239.18,101.86a7.519,7.519,0,0,1,3.086,6.073v8.328l-51.844,25.922,54.542,46.75a7.93,7.93,0,0,0,1.247-4.271V116.573h.055v-8.939A10.928,10.928,0,0,0,241.779,98.805Z"/><path class="cls-36" d="M167.863,153.463l-18.677-9.339L93.7,191.681a7.938,7.938,0,0,0,3.787.956H238.237a7.937,7.937,0,0,0,3.786-.956L186.54,144.124Z"/><path class="cls-37" d="M93.514,116.288v-8.357A7.515,7.515,0,0,1,96.6,101.86l42.016-30.677q-1.139-1.623-2.328-3.253L94,98.805a10.932,10.932,0,0,0-4.485,8.827v6.656h0v70.374a7.931,7.931,0,0,0,1.248,4.271l54.541-46.75Z"/><path class="cls-38" d="M241.779,98.805l-69.9-51a6.81,6.81,0,0,0-8.029,0L145.484,61.215c.733,1.135,1.45,2.267,2.137,3.393L165.178,51.79a4.553,4.553,0,0,1,5.371,0L239.18,101.86a7.519,7.519,0,0,1,3.086,6.073v8.328l-51.844,25.922,54.542,46.75a7.93,7.93,0,0,0,1.247-4.271V116.573h.055v-8.939A10.928,10.928,0,0,0,241.779,98.805Z"/></svg>