<svg id="Layer_1" data-name="Layer 1" xmlns="http://www.w3.org/2000/svg" xmlns:xlink="http://www.w3.org/1999/xlink" viewBox="0 0 335.78 268.624"><defs><style>.cls-1{fill:url(#linear-gradient);}.cls-2{fill:url(#linear-gradient-2);}.cls-3{fill:url(#linear-gradient-3);}.cls-4{fill:url(#linear-gradient-4);}.cls-5{fill:url(#linear-gradient-5);}.cls-6{fill:url(#linear-gradient-6);}.cls-7{fill:url(#linear-gradient-7);}.cls-8{fill:#3a2f37;}.cls-9{fill:url(#linear-gradient-8);}.cls-10{fill:#e6e7e8;}.cls-11{fill:url(#linear-gradient-9);}</style><linearGradient id="linear-gradient" x1="145.314" y1="217.264" x2="216.653" y2="77.888" gradientUnits="userSpaceOnUse"><stop offset="0" stop-color="#261b2d"/><stop offset="1" stop-color="#6c6173"/></linearGradient><linearGradient id="linear-gradient-2" x1="163.835" y1="226.744" x2="235.174" y2="87.368" xlink:href="#linear-gradient"/><linearGradient id="linear-gradient-3" x1="274.606" y1="78.198" x2="311.215" y2="26.101" gradientUnits="userSpaceOnUse"><stop offset="0" stop-color="#b46964"/><stop offset="1" stop-color="#eb9590"/></linearGradient><linearGradient id="linear-gradient-4" x1="269.922" y1="74.907" x2="306.531" y2="22.809" xlink:href="#linear-gradient-3"/><linearGradient id="linear-gradient-5" x1="-11" y1="276.57" x2="36.794" y2="226.652" xlink:href="#linear-gradient"/><linearGradient id="linear-gradient-6" x1="-8.717" y1="278.757" x2="39.077" y2="228.838" xlink:href="#linear-gradient"/><linearGradient id="linear-gradient-7" x1="18.935" y1="47.418" x2="45.688" y2="17.693" gradientUnits="userSpaceOnUse"><stop offset="0" stop-color="#4b87aa"/><stop offset="0.997" stop-color="#9cd3e7"/></linearGradient><linearGradient id="linear-gradient-8" x1="168.502" y1="143.211" x2="65.407" y2="208.553" gradientUnits="userSpaceOnUse"><stop offset="0" stop-color="#b46964"/><stop offset="0.927" stop-color="#eb9590"/></linearGradient><linearGradient id="linear-gradient-9" x1="259.407" y1="263.476" x2="327.114" y2="200.064" gradientTransform="matrix(0, -1, -1, 0, 536.823, 536.823)" gradientUnits="userSpaceOnUse"><stop offset="0" stop-color="#5a965f"/><stop offset="0.496" stop-color="#73b075"/><stop offset="1" stop-color="#8cca8b"/></linearGradient></defs><title>skillset-icons</title><path class="cls-1" d="M252.822,164.034l-4.917,4.916a1.956,1.956,0,0,1-2.977-.253,2.032,2.032,0,0,1,.292-2.588l4.839-4.838-9.819-9.819-4.87,4.87a1.956,1.956,0,0,1-2.977-.252,2.03,2.03,0,0,1,.292-2.588l4.792-4.792-9.649-9.65-4.87,4.87a1.957,1.957,0,0,1-2.978-.253,2.03,2.03,0,0,1,.293-2.587l4.792-4.793-9.865-9.864-4.87,4.87a1.956,1.956,0,0,1-2.977-.253,2.032,2.032,0,0,1,.292-2.588l4.792-4.792-9.527-9.528-4.917,4.917a1.956,1.956,0,0,1-2.977-.252,2.03,2.03,0,0,1,.292-2.588l4.839-4.84-9.91-9.91-4.872,4.871a1.956,1.956,0,0,1-2.977-.253,2.032,2.032,0,0,1,.292-2.588l4.794-4.793-9.681-9.68-4.871,4.871a1.956,1.956,0,0,1-2.977-.253,2.032,2.032,0,0,1,.292-2.588l4.794-4.793-9.772-9.772-4.872,4.871a1.956,1.956,0,0,1-2.977-.253A2.032,2.032,0,0,1,157.7,78.5l4.794-4.793-9.681-9.681L147.944,68.9a1.956,1.956,0,0,1-2.977-.253,2.032,2.032,0,0,1,.292-2.588l4.794-4.793L140.188,51.4l-4.871,4.872a1.957,1.957,0,0,1-2.977-.253,2.03,2.03,0,0,1,.292-2.588l4.794-4.794-9.589-9.588-4.871,4.872a1.956,1.956,0,0,1-2.977-.253,2.032,2.032,0,0,1,.292-2.588l4.794-4.793L113.84,25.052a7.26,7.26,0,0,0-12.394,5.135v172.13a10.248,10.248,0,0,0,10.248,10.248H283.823a7.261,7.261,0,0,0,5.135-12.4ZM126.849,187.161V77.13L236.88,187.161Zm133.361-5.768a1.956,1.956,0,0,1-2.977-.253,2.03,2.03,0,0,1,.292-2.588l4.894-4.894,2.763,2.763ZM272.7,193.882a1.956,1.956,0,0,1-2.977-.253,2.03,2.03,0,0,1,.292-2.588l4.894-4.894,2.763,2.763Z"/><path class="cls-2" d="M297.223,158l-11.1-21.783a.565.565,0,0,0-.249-.24c0-.009.009-.019.01-.028L178.9,28.953l-.022.062A8.543,8.543,0,1,0,166.792,41.1l-.036.05L273.719,148.11c.015,0,.027,0,.042,0a.582.582,0,0,0,.235.234l21.782,11.1A1.067,1.067,0,0,0,297.223,158ZM279.51,141.734a1.809,1.809,0,0,1-2.559,0L171.125,35.909a1.811,1.811,0,0,1,0-2.559h0a1.811,1.811,0,0,1,2.559,0L279.51,139.175A1.811,1.811,0,0,1,279.51,141.734Z"/><path class="cls-3" d="M298.388,43.012a4.975,4.975,0,0,0-2.821-.8,4.912,4.912,0,0,0-2.784.8,5.461,5.461,0,0,0-1.886,2.2,7.1,7.1,0,0,0-.677,3.15,7.014,7.014,0,0,0,.677,3.114,5.448,5.448,0,0,0,1.886,2.2,4.9,4.9,0,0,0,2.784.806,4.968,4.968,0,0,0,2.821-.806,5.44,5.44,0,0,0,1.886-2.2,7.014,7.014,0,0,0,.678-3.114,7.1,7.1,0,0,0-.678-3.15A5.453,5.453,0,0,0,298.388,43.012Z"/><path class="cls-4" d="M303.865,22.475H278.332A9.529,9.529,0,0,0,268.8,32V57.537a9.529,9.529,0,0,0,9.529,9.53h25.533a9.53,9.53,0,0,0,9.53-9.53V32A9.529,9.529,0,0,0,303.865,22.475ZM281.612,55.906a2.082,2.082,0,0,1-.7,1.594,2.312,2.312,0,0,1-1.612.641,2.164,2.164,0,0,1-2.271-2.235V34.734a2.133,2.133,0,0,1,.659-1.593,2.319,2.319,0,0,1,1.685-.641,2.2,2.2,0,0,1,1.557.641,2.106,2.106,0,0,1,.678,1.593Zm23.553,0a2.2,2.2,0,0,1-.623,1.594,2.257,2.257,0,0,1-3.151,0,2.191,2.191,0,0,1-.619-1.556,7.774,7.774,0,0,1-1.1.988,8.5,8.5,0,0,1-2.07,1.117,7.138,7.138,0,0,1-2.582.458,8.375,8.375,0,0,1-4.579-1.3,9.14,9.14,0,0,1-3.241-3.59,12.277,12.277,0,0,1,0-10.55,9.243,9.243,0,0,1,3.205-3.589,8.064,8.064,0,0,1,4.468-1.3,8.476,8.476,0,0,1,2.894.476,8.673,8.673,0,0,1,2.289,1.209,8.8,8.8,0,0,1,.715.6v-7.2a2.2,2.2,0,0,1,.622-1.594,2.11,2.11,0,0,1,1.576-.641,2.138,2.138,0,0,1,1.575.623,2.183,2.183,0,0,1,.623,1.612Z"/><polygon class="cls-5" points="14.062 249.044 20.921 249.044 17.475 241.016 14.062 249.044"/><path class="cls-6" d="M36.882,223.633H8.164a8.136,8.136,0,0,0-8.137,8.136v28.719a8.137,8.137,0,0,0,8.137,8.136H36.882a8.137,8.137,0,0,0,8.137-8.136V231.769A8.136,8.136,0,0,0,36.882,223.633ZM27.6,258a1.919,1.919,0,0,1-1.321.549,1.8,1.8,0,0,1-1.115-.378,2.443,2.443,0,0,1-.772-1.029l-1.781-4.151H12.384l-1.779,4.185a2.118,2.118,0,0,1-.738,1.012,1.808,1.808,0,0,1-1.081.361,1.72,1.72,0,0,1-1.372-.515,1.871,1.871,0,0,1-.446-1.269,2.293,2.293,0,0,1,.1-.652L15.613,235.6a2.233,2.233,0,0,1,.841-1.063,1.792,1.792,0,0,1,1.217-.309,2.013,2.013,0,0,1,1.15.36,2.034,2.034,0,0,1,.771,1.012l8.439,20.1a2.3,2.3,0,0,1,.172.824A1.905,1.905,0,0,1,27.6,258Zm8.764-1.716a2.061,2.061,0,0,1-.583,1.493,2.113,2.113,0,0,1-2.95,0,2.054,2.054,0,0,1-.584-1.493V242.115a2.051,2.051,0,0,1,.584-1.492,2.111,2.111,0,0,1,2.95,0,2.059,2.059,0,0,1,.583,1.492Zm.1-20.2a1.548,1.548,0,0,1-.515,1.355,3.007,3.007,0,0,1-1.681.36,2.721,2.721,0,0,1-1.646-.377,1.608,1.608,0,0,1-.481-1.338v-.652a1.525,1.525,0,0,1,.532-1.355,2.942,2.942,0,0,1,1.63-.36,2.8,2.8,0,0,1,1.681.378,1.611,1.611,0,0,1,.48,1.337Z"/><path class="cls-7" d="M44.771,23.2V18.746a7.553,7.553,0,0,0-7.553-7.553H18.746a7.552,7.552,0,0,0-7.553,7.553V37.218a7.553,7.553,0,0,0,7.553,7.553H23.2A17.057,17.057,0,1,0,44.771,23.2ZM39.379,52.444A13.065,13.065,0,1,1,52.444,39.379,13.08,13.08,0,0,1,39.379,52.444Z"/><circle class="cls-8" cx="33.578" cy="156.697" r="2.175"/><circle class="cls-8" cx="44.771" cy="156.697" r="2.175"/><circle class="cls-8" cx="55.963" cy="156.697" r="2.175"/><circle class="cls-8" cx="33.578" cy="145.505" r="2.175"/><circle class="cls-8" cx="44.771" cy="145.505" r="2.175"/><circle class="cls-8" cx="55.963" cy="145.505" r="2.175"/><circle class="cls-8" cx="33.578" cy="167.89" r="2.175"/><circle class="cls-8" cx="44.771" cy="167.89" r="2.175"/><circle class="cls-8" cx="55.963" cy="167.89" r="2.175"/><path class="cls-9" d="M255.677,214.605l-2.041-2.04H111.694a10.248,10.248,0,0,1-10.248-10.248v-144l-9.905-9.9a7.261,7.261,0,0,0-12.395,5.135V224.8A10.249,10.249,0,0,0,89.4,235.046H258.589a7.26,7.26,0,0,0,5.133-12.395Z"/><path class="cls-10" d="M329.413,256.014a5.594,5.594,0,0,0-5.222,3.6H290.239v4h33.952a5.593,5.593,0,0,0,10.818-2h0A5.6,5.6,0,0,0,329.413,256.014Z"/><path class="cls-11" d="M335.78,222.478h-4.72a46.845,46.845,0,0,1-40.821,40.786v5.264H276.212V254.5h14.027v4.732a42.845,42.845,0,0,0,36.79-36.755h-5.276V208.451H335.78Z"/></svg>