<svg id="Layer_1" data-name="Layer 1" xmlns="http://www.w3.org/2000/svg" xmlns:xlink="http://www.w3.org/1999/xlink" viewBox="0 0 335.78 268.624"><defs><style>.cls-1{fill:url(#linear-gradient);}.cls-2{fill:url(#linear-gradient-2);}.cls-3{fill:url(#linear-gradient-3);}.cls-4{fill:url(#linear-gradient-4);}.cls-5{fill:url(#linear-gradient-5);}.cls-6{fill:url(#linear-gradient-6);}.cls-7{fill:url(#linear-gradient-7);}.cls-8{fill:url(#linear-gradient-8);}.cls-9{fill:url(#linear-gradient-9);}.cls-10{fill:url(#linear-gradient-10);}.cls-11{fill:url(#linear-gradient-11);}.cls-12{fill:url(#linear-gradient-12);}.cls-13{fill:url(#linear-gradient-13);}.cls-14{fill:url(#linear-gradient-14);}.cls-15{fill:url(#linear-gradient-15);}.cls-16{fill:url(#linear-gradient-16);}.cls-17{fill:url(#linear-gradient-17);}.cls-18{fill:url(#linear-gradient-18);}.cls-19{fill:url(#linear-gradient-19);}.cls-20{fill:url(#linear-gradient-20);}.cls-21{fill:url(#linear-gradient-21);}.cls-22{fill:url(#linear-gradient-22);}.cls-23{fill:url(#linear-gradient-23);}.cls-24{fill:url(#linear-gradient-24);}.cls-25{fill:url(#linear-gradient-25);}.cls-26{fill:url(#linear-gradient-26);}.cls-27{fill:url(#linear-gradient-27);}.cls-28{fill:url(#linear-gradient-28);}.cls-29{fill:url(#linear-gradient-29);}.cls-30{fill:url(#linear-gradient-30);}.cls-31{fill:url(#linear-gradient-31);}.cls-32{fill:url(#linear-gradient-32);}.cls-33{fill:url(#linear-gradient-33);}.cls-34{fill:url(#linear-gradient-34);}</style><linearGradient id="linear-gradient" x1="123.417" y1="166.969" x2="74.411" y2="206.786" gradientUnits="userSpaceOnUse"><stop offset="0" stop-color="#5a965f"/><stop offset="0.496" stop-color="#73b075"/><stop offset="1" stop-color="#8cca8b"/></linearGradient><linearGradient id="linear-gradient-2" x1="206.409" y1="134.094" x2="327.156" y2="-103.653" gradientUnits="userSpaceOnUse"><stop offset="0" stop-color="#261b2d"/><stop offset="1" stop-color="#6c6173"/></linearGradient><linearGradient id="linear-gradient-3" x1="217.602" y1="145.286" x2="338.349" y2="-92.46" xlink:href="#linear-gradient"/><linearGradient id="linear-gradient-4" x1="228.795" y1="156.479" x2="349.541" y2="-81.267" gradientUnits="userSpaceOnUse"><stop offset="0" stop-color="#b46964"/><stop offset="1" stop-color="#eb9590"/></linearGradient><linearGradient id="linear-gradient-5" x1="228.795" y1="167.672" x2="349.541" y2="-70.075" xlink:href="#linear-gradient-4"/><linearGradient id="linear-gradient-6" x1="228.795" y1="178.864" x2="349.541" y2="-58.882" xlink:href="#linear-gradient-4"/><linearGradient id="linear-gradient-7" x1="217.602" y1="190.057" x2="338.349" y2="-47.689" xlink:href="#linear-gradient"/><linearGradient id="linear-gradient-8" x1="228.795" y1="201.305" x2="349.541" y2="-36.442" xlink:href="#linear-gradient-4"/><linearGradient id="linear-gradient-9" x1="239.987" y1="212.497" x2="360.734" y2="-25.249" gradientUnits="userSpaceOnUse"><stop offset="0" stop-color="#4b87aa"/><stop offset="0.997" stop-color="#9cd3e7"/></linearGradient><linearGradient id="linear-gradient-10" x1="239.987" y1="223.469" x2="360.734" y2="-14.277" xlink:href="#linear-gradient-9"/><linearGradient id="linear-gradient-11" x1="228.684" y1="234.772" x2="349.431" y2="-2.974" xlink:href="#linear-gradient-4"/><linearGradient id="linear-gradient-12" x1="0.883" y1="27.719" x2="40.076" y2="-7.51" gradientTransform="translate(6.459 0.785) rotate(-0.15)" xlink:href="#linear-gradient-2"/><linearGradient id="linear-gradient-13" x1="8.071" y1="37.915" x2="47.264" y2="2.685" gradientTransform="translate(6.459 0.785) rotate(-0.15)" xlink:href="#linear-gradient-2"/><linearGradient id="linear-gradient-14" x1="16.596" y1="48.125" x2="55.788" y2="12.896" gradientTransform="translate(6.459 0.785) rotate(-0.15)" xlink:href="#linear-gradient-2"/><linearGradient id="linear-gradient-15" x1="14.004" y1="158.541" x2="42.695" y2="125.702" xlink:href="#linear-gradient-4"/><linearGradient id="linear-gradient-16" x1="8.403" y1="153.648" x2="37.094" y2="120.808" xlink:href="#linear-gradient-4"/><linearGradient id="linear-gradient-17" x1="5.311" y1="150.947" x2="34.003" y2="118.107" xlink:href="#linear-gradient-4"/><linearGradient id="linear-gradient-18" x1="-6.164" y1="140.921" x2="22.528" y2="108.082" xlink:href="#linear-gradient-4"/><linearGradient id="linear-gradient-19" x1="12.45" y1="259.424" x2="33.147" y2="234.763" xlink:href="#linear-gradient-9"/><linearGradient id="linear-gradient-20" x1="251.81" y1="279.418" x2="302.452" y2="233.619" xlink:href="#linear-gradient-4"/><linearGradient id="linear-gradient-21" x1="300.906" y1="179.659" x2="328.073" y2="153.631" xlink:href="#linear-gradient"/><linearGradient id="linear-gradient-22" x1="302.528" y1="178.256" x2="327.538" y2="154.294" xlink:href="#linear-gradient"/><linearGradient id="linear-gradient-23" x1="159.81" y1="133.66" x2="159.829" y2="133.633" xlink:href="#linear-gradient-2"/><linearGradient id="linear-gradient-24" x1="159.077" y1="133.208" x2="159.078" y2="133.205" xlink:href="#linear-gradient-2"/><linearGradient id="linear-gradient-25" x1="161.398" y1="134.19" x2="161.446" y2="134.123" xlink:href="#linear-gradient-2"/><linearGradient id="linear-gradient-26" x1="157.429" y1="131.399" x2="157.436" y2="131.39" xlink:href="#linear-gradient-2"/><linearGradient id="linear-gradient-27" x1="158.458" y1="132.709" x2="158.467" y2="132.696" xlink:href="#linear-gradient-2"/><linearGradient id="linear-gradient-28" x1="141.805" y1="157.081" x2="163.882" y2="125.914" xlink:href="#linear-gradient-4"/><linearGradient id="linear-gradient-29" x1="160.426" y1="156.634" x2="175.999" y2="134.648" xlink:href="#linear-gradient"/><linearGradient id="linear-gradient-30" x1="157.88" y1="132.083" x2="157.896" y2="132.061" xlink:href="#linear-gradient-2"/><linearGradient id="linear-gradient-31" x1="160.564" y1="133.965" x2="160.576" y2="133.948" xlink:href="#linear-gradient-2"/><linearGradient id="linear-gradient-32" x1="173.734" y1="154.943" x2="192.461" y2="128.504" xlink:href="#linear-gradient-9"/><linearGradient id="linear-gradient-33" x1="71.731" y1="234.752" x2="250.079" y2="37.908" xlink:href="#linear-gradient-2"/><linearGradient id="linear-gradient-34" x1="69.222" y1="232.478" x2="247.57" y2="35.635" xlink:href="#linear-gradient-2"/></defs><title>skillset-icons</title><path class="cls-1" d="M96.067,223.753a11.645,11.645,0,0,1-11.631-11.631V55.963H73.859A11.645,11.645,0,0,0,62.228,67.594V234.331a11.644,11.644,0,0,0,11.631,11.63H212.377a11.644,11.644,0,0,0,11.631-11.63V223.753Z"/><path class="cls-2" d="M288.067,0H259.181a1.75,1.75,0,0,0,0,3.5h28.886a1.75,1.75,0,0,0,0-3.5Z"/><path class="cls-3" d="M299.259,11.193H270.374a1.75,1.75,0,0,0,0,3.5h28.885a1.75,1.75,0,0,0,0-3.5Z"/><path class="cls-4" d="M310.452,22.385H281.567a1.75,1.75,0,0,0,0,3.5h28.885a1.75,1.75,0,0,0,0-3.5Z"/><path class="cls-5" d="M310.452,33.578H281.567a1.75,1.75,0,0,0,0,3.5h28.885a1.75,1.75,0,0,0,0-3.5Z"/><path class="cls-6" d="M310.452,44.771H281.567a1.75,1.75,0,0,0,0,3.5h28.885a1.75,1.75,0,0,0,0-3.5Z"/><path class="cls-7" d="M299.259,55.963H270.374a1.75,1.75,0,0,0,0,3.5h28.885a1.75,1.75,0,0,0,0-3.5Z"/><path class="cls-8" d="M310.452,67.211H281.567a1.75,1.75,0,0,0,0,3.5h28.885a1.75,1.75,0,0,0,0-3.5Z"/><path class="cls-9" d="M321.645,78.4H292.759a1.75,1.75,0,0,0,0,3.5h28.886a1.75,1.75,0,0,0,0-3.5Z"/><path class="cls-10" d="M321.645,89.376H292.759a1.75,1.75,0,0,0,0,3.5h28.886a1.75,1.75,0,0,0,0-3.5Z"/><path class="cls-11" d="M310.342,100.679H281.456a1.75,1.75,0,0,0,0,3.5h28.886a1.75,1.75,0,0,0,0-3.5Z"/><path class="cls-12" d="M12.763,10.6a2.069,2.069,0,0,0-.787-1.026,2.043,2.043,0,0,0-1.167-.362,1.817,1.817,0,0,0-1.236.317,2.27,2.27,0,0,0-.851,1.082L.1,31.461a2.294,2.294,0,0,0-.1.662,1.9,1.9,0,0,0,.456,1.288,1.744,1.744,0,0,0,1.4.519,1.834,1.834,0,0,0,1.1-.369,2.15,2.15,0,0,0,.746-1.03l1.8-4.254,10.387-.027,1.82,4.21a2.482,2.482,0,0,0,.787,1.043,1.824,1.824,0,0,0,1.133.381,1.994,1.994,0,0,0,1.945-2.061,2.38,2.38,0,0,0-.176-.836ZM7.182,24.267l3.446-8.162,3.519,8.144Z"/><path class="cls-13" d="M33.191,5.771A2.082,2.082,0,0,0,31.072,7.9l.073,28.006a2.086,2.086,0,0,0,.6,1.514,1.963,1.963,0,0,0,1.465.606A2.081,2.081,0,0,0,35.325,35.9L35.252,7.891a2.129,2.129,0,0,0-.579-1.514A1.947,1.947,0,0,0,33.191,5.771Z"/><path class="cls-14" d="M63.57,22.725a6.2,6.2,0,0,0-2.165-2.084,9.587,9.587,0,0,0-1.206-.573,5.087,5.087,0,0,0,2.123-1.8,5.16,5.16,0,0,0,.793-2.876,6.122,6.122,0,0,0-1.649-4.628A6.966,6.966,0,0,0,56.481,9.21L47.7,9.233a2.084,2.084,0,0,0-2.119,2.131L45.636,31.5a2.081,2.081,0,0,0,2.13,2.119L56.44,33.6a12.934,12.934,0,0,0,2.681-.3,7.6,7.6,0,0,0,2.61-1.105,5.8,5.8,0,0,0,1.962-2.269,8.242,8.242,0,0,0,.739-3.764A6.288,6.288,0,0,0,63.57,22.725ZM50.117,13.337l5.747-.015a2.815,2.815,0,0,1,1.97.675,2.812,2.812,0,0,1,.755,2.175,2.344,2.344,0,0,1-.8,1.918,2.776,2.776,0,0,1-1.81.666l-5.852.015ZM58.97,28.729a3.64,3.64,0,0,1-2.541.86l-6.27.016-.017-6.723,6.026-.016a8.285,8.285,0,0,1,1.6.17,2.691,2.691,0,0,1,1.5.867,3.344,3.344,0,0,1,.633,2.262A3.286,3.286,0,0,1,58.97,28.729Z"/><path class="cls-15" d="M36.125,131.561h-.354a1.474,1.474,0,0,0-1.632,1.632v.463a1.474,1.474,0,0,0,1.632,1.632h.354a1.472,1.472,0,0,0,1.632-1.632v-.463a1.472,1.472,0,0,0-1.632-1.632Z"/><path class="cls-16" d="M42.245,118.315a6.664,6.664,0,0,0-2.407-2.3,6.742,6.742,0,0,0-3.387-.856,7.167,7.167,0,0,0-2.815.557,6.966,6.966,0,0,0-2.3,1.564,1.553,1.553,0,0,0-.517,1.251,1.6,1.6,0,0,0,.707,1.17,1.373,1.373,0,0,0,1.238.286,2.7,2.7,0,0,0,1.047-.558,4.437,4.437,0,0,1,1.211-.734,3.934,3.934,0,0,1,3.182.136,3.156,3.156,0,0,1,1.224,1.115,2.984,2.984,0,0,1,.449,1.632,3.454,3.454,0,0,1-.531,2.013,2.971,2.971,0,0,1-1.428,1.1,5.635,5.635,0,0,1-2.012.34,1.562,1.562,0,0,0-1.17.476,1.63,1.63,0,0,0-.463,1.183v2.068a1.628,1.628,0,0,0,.463,1.183,1.675,1.675,0,0,0,2.339,0,1.632,1.632,0,0,0,.462-1.183v-1.007a.091.091,0,0,1,.041-.081,1,1,0,0,1,.095-.055,8.54,8.54,0,0,0,2.163-.639,5.834,5.834,0,0,0,1.741-1.2,5.148,5.148,0,0,0,1.156-1.8,6.6,6.6,0,0,0,.408-2.407A6.051,6.051,0,0,0,42.245,118.315Z"/><path class="cls-17" d="M14.138,129.477A13.252,13.252,0,0,0,.951,142.785v.905a1.963,1.963,0,0,0,3.925,0v-1.248a9.051,9.051,0,0,1,9.913-9,9.217,9.217,0,0,1,8.171,9.265v.983a1.963,1.963,0,0,0,3.925,0v-1.248A12.982,12.982,0,0,0,14.138,129.477Z"/><path class="cls-18" d="M13.585,127.658h.666a9.4,9.4,0,0,0,9.389-9.389V117.6a9.4,9.4,0,0,0-9.389-9.388h-.666A9.4,9.4,0,0,0,4.2,117.6v.666A9.4,9.4,0,0,0,13.585,127.658ZM8.121,117.6a5.47,5.47,0,0,1,5.464-5.463h.666a5.47,5.47,0,0,1,5.464,5.463v.666a5.471,5.471,0,0,1-5.464,5.464h-.666a5.47,5.47,0,0,1-5.464-5.464Z"/><path class="cls-19" d="M36.381,252.122l-4.845-4.845a11.194,11.194,0,1,0-2.828,2.828l4.845,4.845a2,2,0,1,0,2.828-2.828ZM15.193,240.929A7.167,7.167,0,1,1,22.36,248.1,7.175,7.175,0,0,1,15.193,240.929Z"/><path class="cls-20" d="M302.8,234.955a5.593,5.593,0,0,0-2,10.818V259.89a1.13,1.13,0,0,1-1.129,1.129h-2.841a5.593,5.593,0,0,0-5.222-3.6h-3.6v-11.65a5.6,5.6,0,1,0-4,0v11.65h-3.6a5.593,5.593,0,0,0-5.222,3.6H272.35a1.131,1.131,0,0,1-1.129-1.129V245.773a5.593,5.593,0,0,0-2-10.818h0a5.593,5.593,0,0,0-2,10.818V259.89a5.135,5.135,0,0,0,5.129,5.129h2.841a5.593,5.593,0,0,0,5.222,3.6h3.6v.009h4v-.009h3.6a5.593,5.593,0,0,0,5.222-3.6h2.841a5.135,5.135,0,0,0,5.129-5.129V245.773a5.593,5.593,0,0,0-2-10.818Z"/><path class="cls-21" d="M318.784,145.948a16.583,16.583,0,1,0,16.582,16.583A16.6,16.6,0,0,0,318.784,145.948Zm12.642,16.583c0,.024,0,.048,0,.073a12.641,12.641,0,0,1-11.347,12.5,12.8,12.8,0,0,1-1.291.065c-.394,0-.782-.023-1.166-.059-.135-.012-.267-.032-.4-.048-.241-.03-.48-.066-.717-.11q-.252-.045-.5-.1c-.182-.041-.362-.09-.542-.14a12.511,12.511,0,0,1-2.339-.894l-.014-.007a12.66,12.66,0,0,1-6.255-7.139c-.016-.045-.034-.088-.049-.133-.076-.227-.141-.456-.2-.688-.042-.153-.082-.306-.119-.462q-.066-.282-.12-.57c-.041-.222-.073-.448-.1-.675-.019-.147-.042-.293-.055-.442-.037-.387-.06-.778-.06-1.174h0a12.641,12.641,0,0,1,12.642-12.642c.4,0,.79.023,1.178.06.145.013.288.035.431.054.231.03.46.063.687.1.189.035.376.075.562.118.158.037.315.078.47.121.229.062.457.127.681.2.049.016.1.036.144.053a12.665,12.665,0,0,1,7.132,6.252l0,.011a12.6,12.6,0,0,1,.9,2.35c.048.176.1.352.136.53s.071.337.1.507c.043.233.078.469.108.706.017.137.037.272.049.41.036.383.059.77.059,1.162h0Z"/><path class="cls-22" d="M324.013,157.828l-5.974,6.751a.494.494,0,0,1-.7.044l-2.556-2.24a1.813,1.813,0,1,0-2.4,2.719l4.1,3.6a2.063,2.063,0,0,0,2.911-.179l7.338-8.292a1.814,1.814,0,0,0-2.717-2.4Z"/><path class="cls-23" d="M159.753,133.614c.044.023.089.043.134.065C159.842,133.657,159.8,133.637,159.753,133.614Z"/><path class="cls-24" d="M159.042,133.18l.071.053Z"/><path class="cls-25" d="M161.353,134.146c.046.008.092.014.139.021C161.445,134.16,161.4,134.154,161.353,134.146Z"/><path class="cls-26" d="M157.438,131.4l-.011-.018Z"/><path class="cls-27" d="M158.425,132.668c.024.024.05.045.075.068C158.475,132.713,158.449,132.692,158.425,132.668Z"/><path class="cls-28" d="M153.1,131.763a1.131,1.131,0,0,1,1.13-1.13h2.841l.009.02a5.533,5.533,0,0,1-.012-4.02h-2.838a5.136,5.136,0,0,0-5.13,5.13v14.069a5.592,5.592,0,1,0,4,.094h0Z"/><path class="cls-29" d="M169.89,145.879h0V134.232h-4v11.647h0a5.6,5.6,0,1,0,4,0Z"/><path class="cls-30" d="M157.908,132.1c-.014-.017-.026-.036-.04-.053C157.882,132.063,157.894,132.082,157.908,132.1Z"/><path class="cls-31" d="M160.542,133.946c.02.006.038.014.057.02Z"/><path class="cls-32" d="M186.679,145.865v-14.1a5.135,5.135,0,0,0-5.129-5.13h-2.842c0-.013-.012-.024-.017-.036a5.556,5.556,0,0,1-.023,4.122c.012-.029.029-.056.04-.086h2.842a1.131,1.131,0,0,1,1.129,1.13v14.13h0a5.6,5.6,0,1,0,4-.028Z"/><path class="cls-33" d="M239.631,33.578H96.067A11.645,11.645,0,0,0,84.436,45.209V212.122a11.645,11.645,0,0,0,11.631,11.631H239.631a11.645,11.645,0,0,0,11.631-11.631V45.209A11.645,11.645,0,0,0,239.631,33.578ZM129.285,205.167a7,7,0,0,1-6.995,7h-8.4a7,7,0,0,1-6.995-7v-8.4a7,7,0,0,1,6.995-7h8.4a7,7,0,0,1,6.995,7Zm18.066-3.131-6.848,6.848a2,2,0,0,1-2.829-2.828l1.432-1.432,3.594-3.594-1.96-2.049h.03l-3.1-3.1a2,2,0,0,1,2.829-2.828l6.848,6.848A1.507,1.507,0,0,1,147.351,202.036Zm31.621,3.131a7,7,0,0,1-7,7h-8.4a7,7,0,0,1-7-7v-8.4a7,7,0,0,1,7-7h8.4a7,7,0,0,1,7,7Zm20.4-3.131-6.848,6.848a2,2,0,0,1-2.828-2.828l1.432-1.432,3.594-3.594-1.961-2.049h.03l-3.095-3.1a2,2,0,0,1,2.828-2.828l6.848,6.848A1.507,1.507,0,0,1,199.369,202.036Zm31.126,3.131a7,7,0,0,1-7,7h-8.4a7,7,0,0,1-6.995-7v-8.4a7,7,0,0,1,6.995-7h8.4a7,7,0,0,1,7,7Zm15.767-27.316H89.436V45.209a6.639,6.639,0,0,1,6.631-6.631H239.631a6.639,6.639,0,0,1,6.631,6.631Z"/><path class="cls-34" d="M229.229,111.762a5.6,5.6,0,0,0,0-11.193h-8.972v-.875a6.563,6.563,0,0,0-6.556-6.556h-7.786a2.45,2.45,0,0,1-2.447-2.447v-1.15h14.789a5.6,5.6,0,1,0,0-11.192h-15.01V67.58a8.029,8.029,0,0,0-8.02-8.02H189.9a5.594,5.594,0,0,0-5.222-3.6H151.1a5.594,5.594,0,0,0-5.222,3.6h-5.546a8.03,8.03,0,0,0-8.021,8.02V78.349H117.523a5.6,5.6,0,1,0,0,11.192h14.789v1.15a2.449,2.449,0,0,1-2.447,2.447h-7.786a6.563,6.563,0,0,0-6.556,6.556v.875H106.33a5.6,5.6,0,0,0,0,11.193h9.193v11.275H106.33a5.6,5.6,0,0,0,0,11.192h9.193v11.276H106.33a5.6,5.6,0,1,0,0,11.192h22.386a5.6,5.6,0,0,0,0-11.192h-9.193V134.229h9.193a5.6,5.6,0,0,0,0-11.192h-9.193V111.762h9.193a5.6,5.6,0,0,0,0-11.193h-9.193v-.875a2.559,2.559,0,0,1,2.556-2.556h7.786a6.454,6.454,0,0,0,6.447-6.447v-1.15H151.1a5.6,5.6,0,1,0,0-11.192H136.312V67.58a4.026,4.026,0,0,1,4.021-4.02h5.546a5.6,5.6,0,0,0,5.222,3.6H165.89v33.413H151.1a5.6,5.6,0,0,0,0,11.193H165.89V123.02H162.3a5.606,5.606,0,1,0,0,11.212h11.165a5.606,5.606,0,1,0,0-11.212H169.89V111.762h14.789a5.6,5.6,0,0,0,0-11.193H169.89V67.156h14.789a5.6,5.6,0,0,0,5.222-3.6h5.326a4.025,4.025,0,0,1,4.02,4.02V78.349H184.679a5.6,5.6,0,0,0,0,11.192h14.789v1.15a6.454,6.454,0,0,0,6.447,6.447H213.7a2.558,2.558,0,0,1,2.556,2.556v.875h-9.413a5.6,5.6,0,1,0,0,11.193h9.413v11.275h-9.413a5.6,5.6,0,1,0,0,11.192h9.413v11.276h-9.413a5.6,5.6,0,1,0,0,11.192h22.385a5.6,5.6,0,0,0,0-11.192h-8.972V134.229h8.972a5.6,5.6,0,0,0,0-11.192h-8.972V111.762Z"/></svg>