<svg id="Layer_1" data-name="Layer 1" xmlns="http://www.w3.org/2000/svg" xmlns:xlink="http://www.w3.org/1999/xlink" viewBox="0 0 335.78 268.624"><defs><style>.cls-1{fill:url(#linear-gradient);}.cls-2{fill:url(#linear-gradient-2);}.cls-3{fill:url(#linear-gradient-3);}.cls-4{fill:url(#linear-gradient-4);}.cls-5{fill:url(#linear-gradient-5);}.cls-6{fill:url(#linear-gradient-6);}.cls-7{fill:url(#linear-gradient-7);}.cls-8{fill:url(#linear-gradient-8);}.cls-9{fill:url(#linear-gradient-9);}.cls-10{fill:url(#linear-gradient-10);}.cls-11{fill:url(#linear-gradient-11);}.cls-12{fill:url(#linear-gradient-12);}.cls-13{fill:url(#linear-gradient-13);}.cls-14{fill:url(#linear-gradient-14);}.cls-15{fill:url(#linear-gradient-15);}.cls-16{fill:url(#linear-gradient-16);}.cls-17{fill:url(#linear-gradient-17);}.cls-18{fill:url(#linear-gradient-18);}.cls-19{fill:url(#linear-gradient-19);}.cls-20{fill:url(#linear-gradient-20);}.cls-21{fill:url(#linear-gradient-21);}.cls-22{fill:url(#linear-gradient-22);}.cls-23{fill:url(#linear-gradient-23);}.cls-24{fill:url(#linear-gradient-24);}.cls-25{fill:url(#linear-gradient-25);}.cls-26{fill:url(#linear-gradient-26);}.cls-27{fill:url(#linear-gradient-27);}.cls-28{fill:url(#linear-gradient-28);}.cls-29{fill:url(#linear-gradient-29);}.cls-30{fill:url(#linear-gradient-30);}.cls-31{fill:url(#linear-gradient-31);}.cls-32{fill:url(#linear-gradient-32);}.cls-33{fill:url(#linear-gradient-33);}.cls-34{fill:url(#linear-gradient-34);}.cls-35{fill:url(#linear-gradient-35);}.cls-36{fill:url(#linear-gradient-36);}.cls-37{fill:url(#linear-gradient-37);}.cls-38{fill:url(#linear-gradient-38);}.cls-39{fill:url(#linear-gradient-39);}.cls-40{fill:url(#linear-gradient-40);}.cls-41{fill:url(#linear-gradient-41);}.cls-42{fill:url(#linear-gradient-42);}.cls-43{fill:url(#linear-gradient-43);}.cls-44{fill:url(#linear-gradient-44);}.cls-45{fill:url(#linear-gradient-45);}.cls-46{fill:url(#linear-gradient-46);}.cls-47{fill:url(#linear-gradient-47);}.cls-48{fill:url(#linear-gradient-48);}.cls-49{fill:url(#linear-gradient-49);}.cls-50{fill:url(#linear-gradient-50);}.cls-51{fill:url(#linear-gradient-51);}.cls-52{fill:url(#linear-gradient-52);}.cls-53{fill:url(#linear-gradient-53);}.cls-54{fill:url(#linear-gradient-54);}.cls-55{fill:url(#linear-gradient-55);}.cls-56{fill:url(#linear-gradient-56);}.cls-57{fill:url(#linear-gradient-57);}.cls-58{fill:url(#linear-gradient-58);}.cls-59{fill:url(#linear-gradient-59);}.cls-60{fill:url(#linear-gradient-60);}.cls-61{fill:#e6e7e8;}.cls-62{fill:url(#linear-gradient-61);}</style><linearGradient id="linear-gradient" x1="2.647" y1="240.555" x2="50.206" y2="207.968" gradientUnits="userSpaceOnUse"><stop offset="0" stop-color="#b46964"/><stop offset="1" stop-color="#eb9590"/></linearGradient><linearGradient id="linear-gradient-2" x1="5.688" y1="244.994" x2="53.247" y2="212.407" xlink:href="#linear-gradient"/><linearGradient id="linear-gradient-3" x1="10.788" y1="252.438" x2="58.348" y2="219.851" xlink:href="#linear-gradient"/><linearGradient id="linear-gradient-4" x1="14.137" y1="257.326" x2="61.697" y2="224.739" xlink:href="#linear-gradient"/><linearGradient id="linear-gradient-5" x1="19.021" y1="264.454" x2="66.581" y2="231.867" xlink:href="#linear-gradient"/><linearGradient id="linear-gradient-6" x1="22.287" y1="269.22" x2="69.846" y2="236.633" xlink:href="#linear-gradient"/><linearGradient id="linear-gradient-7" x1="242.641" y1="57.651" x2="298.568" y2="14.935" gradientUnits="userSpaceOnUse"><stop offset="0" stop-color="#5a965f"/><stop offset="1" stop-color="#8cca8b"/></linearGradient><linearGradient id="linear-gradient-8" x1="246.375" y1="62.54" x2="302.302" y2="19.824" xlink:href="#linear-gradient-7"/><linearGradient id="linear-gradient-9" x1="252.012" y1="69.92" x2="307.939" y2="27.205" xlink:href="#linear-gradient-7"/><linearGradient id="linear-gradient-10" x1="256.702" y1="76.06" x2="312.628" y2="33.344" xlink:href="#linear-gradient-7"/><linearGradient id="linear-gradient-11" x1="261.361" y1="82.161" x2="317.288" y2="39.445" xlink:href="#linear-gradient-7"/><linearGradient id="linear-gradient-12" x1="266.074" y1="88.331" x2="322.001" y2="45.616" xlink:href="#linear-gradient-7"/><linearGradient id="linear-gradient-13" x1="45.262" y1="-9.719" x2="8.271" y2="25.51" gradientTransform="translate(70.105 70.496) rotate(180)" xlink:href="#linear-gradient"/><linearGradient id="linear-gradient-14" x1="61.149" y1="6.962" x2="24.158" y2="42.192" gradientTransform="translate(70.105 70.496) rotate(180)" xlink:href="#linear-gradient"/><linearGradient id="linear-gradient-15" x1="55.472" y1="1.001" x2="18.481" y2="36.231" gradientTransform="translate(70.105 70.496) rotate(180)" xlink:href="#linear-gradient"/><linearGradient id="linear-gradient-16" x1="39.672" y1="-15.588" x2="2.681" y2="19.641" gradientTransform="translate(70.105 70.496) rotate(180)" xlink:href="#linear-gradient"/><linearGradient id="linear-gradient-17" x1="44.996" y1="-9.999" x2="8.005" y2="25.231" gradientTransform="translate(70.105 70.496) rotate(180)" xlink:href="#linear-gradient"/><linearGradient id="linear-gradient-18" x1="50.319" y1="-4.409" x2="13.328" y2="30.82" gradientTransform="translate(70.105 70.496) rotate(180)" xlink:href="#linear-gradient"/><linearGradient id="linear-gradient-19" x1="50.851" y1="-3.85" x2="13.861" y2="31.379" gradientTransform="translate(70.105 70.496) rotate(180)" xlink:href="#linear-gradient"/><linearGradient id="linear-gradient-20" x1="61.636" y1="7.474" x2="24.646" y2="42.703" gradientTransform="translate(70.105 70.496) rotate(180)" xlink:href="#linear-gradient"/><linearGradient id="linear-gradient-21" x1="56.27" y1="1.84" x2="19.279" y2="37.069" gradientTransform="translate(70.105 70.496) rotate(180)" xlink:href="#linear-gradient"/><linearGradient id="linear-gradient-22" x1="71.976" y1="18.33" x2="34.985" y2="53.56" gradientTransform="translate(70.105 70.496) rotate(180)" xlink:href="#linear-gradient"/><linearGradient id="linear-gradient-23" x1="162.349" y1="137.318" x2="89.688" y2="221.428" xlink:href="#linear-gradient-7"/><linearGradient id="linear-gradient-24" x1="-16.712" y1="267.914" x2="57.146" y2="128.256" gradientUnits="userSpaceOnUse"><stop offset="0" stop-color="#261b2d"/><stop offset="1" stop-color="#6c6173"/></linearGradient><linearGradient id="linear-gradient-25" x1="24.824" y1="176.619" x2="43.771" y2="140.79" xlink:href="#linear-gradient-24"/><linearGradient id="linear-gradient-26" x1="29.05" y1="140.439" x2="43.243" y2="113.6" xlink:href="#linear-gradient-24"/><linearGradient id="linear-gradient-27" x1="29.05" y1="128.458" x2="43.243" y2="101.619" xlink:href="#linear-gradient-24"/><linearGradient id="linear-gradient-28" x1="131.675" y1="146.964" x2="204.776" y2="85.753" gradientUnits="userSpaceOnUse"><stop offset="0" stop-color="#4b87aa"/><stop offset="0.997" stop-color="#9cd3e7"/></linearGradient><linearGradient id="linear-gradient-29" x1="67.251" y1="202.341" x2="221.159" y2="-9.695" xlink:href="#linear-gradient-24"/><linearGradient id="linear-gradient-30" x1="99.464" y1="225.723" x2="253.372" y2="13.687" xlink:href="#linear-gradient-24"/><linearGradient id="linear-gradient-31" x1="90.001" y1="218.855" x2="243.909" y2="6.818" xlink:href="#linear-gradient-24"/><linearGradient id="linear-gradient-32" x1="92.351" y1="220.56" x2="246.259" y2="8.524" xlink:href="#linear-gradient-24"/><linearGradient id="linear-gradient-33" x1="97.197" y1="224.077" x2="251.105" y2="12.041" xlink:href="#linear-gradient-24"/><linearGradient id="linear-gradient-34" x1="102.042" y1="227.594" x2="255.95" y2="15.558" xlink:href="#linear-gradient-24"/><linearGradient id="linear-gradient-35" x1="108.303" y1="232.139" x2="262.211" y2="20.103" xlink:href="#linear-gradient-24"/><linearGradient id="linear-gradient-36" x1="167.52" y1="275.122" x2="321.428" y2="63.086" xlink:href="#linear-gradient-24"/><linearGradient id="linear-gradient-37" x1="141.781" y1="256.44" x2="295.689" y2="44.403" xlink:href="#linear-gradient-24"/><linearGradient id="linear-gradient-38" x1="135.106" y1="251.594" x2="289.014" y2="39.558" xlink:href="#linear-gradient-24"/><linearGradient id="linear-gradient-39" x1="127.775" y1="246.273" x2="281.683" y2="34.237" xlink:href="#linear-gradient-24"/><linearGradient id="linear-gradient-40" x1="121.755" y1="241.903" x2="275.663" y2="29.867" xlink:href="#linear-gradient-24"/><linearGradient id="linear-gradient-41" x1="114.424" y1="236.582" x2="268.332" y2="24.546" xlink:href="#linear-gradient-24"/><linearGradient id="linear-gradient-42" x1="108.404" y1="232.212" x2="262.312" y2="20.176" xlink:href="#linear-gradient-24"/><linearGradient id="linear-gradient-43" x1="101.073" y1="226.891" x2="254.981" y2="14.855" xlink:href="#linear-gradient-24"/><linearGradient id="linear-gradient-44" x1="94.398" y1="222.046" x2="248.306" y2="10.009" xlink:href="#linear-gradient-24"/><linearGradient id="linear-gradient-45" x1="163.207" y1="271.992" x2="317.115" y2="59.955" xlink:href="#linear-gradient-24"/><linearGradient id="linear-gradient-46" x1="156.532" y1="267.146" x2="310.44" y2="55.11" xlink:href="#linear-gradient-24"/><linearGradient id="linear-gradient-47" x1="149.201" y1="261.825" x2="303.109" y2="49.789" xlink:href="#linear-gradient-24"/><linearGradient id="linear-gradient-48" x1="143.181" y1="257.455" x2="297.089" y2="45.419" xlink:href="#linear-gradient-24"/><linearGradient id="linear-gradient-49" x1="135.85" y1="252.134" x2="289.758" y2="40.098" xlink:href="#linear-gradient-24"/><linearGradient id="linear-gradient-50" x1="129.83" y1="247.764" x2="283.738" y2="35.728" xlink:href="#linear-gradient-24"/><linearGradient id="linear-gradient-51" x1="122.499" y1="242.443" x2="276.407" y2="30.407" xlink:href="#linear-gradient-24"/><linearGradient id="linear-gradient-52" x1="115.824" y1="237.598" x2="269.732" y2="25.562" xlink:href="#linear-gradient-24"/><linearGradient id="linear-gradient-53" x1="165.171" y1="273.417" x2="319.079" y2="61.381" xlink:href="#linear-gradient-24"/><linearGradient id="linear-gradient-54" x1="160.325" y1="269.9" x2="314.233" y2="57.863" xlink:href="#linear-gradient-24"/><linearGradient id="linear-gradient-55" x1="155.48" y1="266.383" x2="309.388" y2="54.346" xlink:href="#linear-gradient-24"/><linearGradient id="linear-gradient-56" x1="149.218" y1="261.838" x2="303.126" y2="49.801" xlink:href="#linear-gradient-24"/><linearGradient id="linear-gradient-57" x1="282.753" y1="150.164" x2="295.964" y2="124.072" xlink:href="#linear-gradient-24"/><linearGradient id="linear-gradient-58" x1="259.197" y1="130.073" x2="289.252" y2="100.018" xlink:href="#linear-gradient"/><linearGradient id="linear-gradient-59" x1="262.953" y1="133.829" x2="293.008" y2="103.774" xlink:href="#linear-gradient"/><linearGradient id="linear-gradient-60" x1="262.982" y1="133.858" x2="293.037" y2="103.803" xlink:href="#linear-gradient"/><linearGradient id="linear-gradient-61" x1="254.512" y1="266.373" x2="325.41" y2="199.437" xlink:href="#linear-gradient-28"/></defs><title>skillset-icons</title><path class="cls-1" d="M1.869,234.568a1.8,1.8,0,0,1,1.385-.525,1.841,1.841,0,0,1,1.394.52,1.789,1.789,0,0,1,.5,1.291,1.709,1.709,0,0,1-.509,1.266,1.883,1.883,0,0,1-1.384.5,1.832,1.832,0,0,1-1.374-.51,1.732,1.732,0,0,1-.5-1.261A1.817,1.817,0,0,1,1.869,234.568Zm0,8.6a1.8,1.8,0,0,1,1.385-.525,1.841,1.841,0,0,1,1.394.52,1.789,1.789,0,0,1,.5,1.291,1.709,1.709,0,0,1-.509,1.266,1.882,1.882,0,0,1-1.384.5,1.831,1.831,0,0,1-1.374-.509,1.732,1.732,0,0,1-.5-1.261A1.817,1.817,0,0,1,1.869,243.172Z"/><path class="cls-2" d="M13.962,235.849a4.165,4.165,0,0,1,.561-.489,3.808,3.808,0,0,1,1-.5,3.657,3.657,0,0,1,1.153-.18,4.716,4.716,0,0,1,1.605.263,3.149,3.149,0,0,1,1.246.807,3.778,3.778,0,0,1,.813,1.416,6.52,6.52,0,0,1,.288,2.063v6.793H17.971v-6.814a3.229,3.229,0,0,0-.155-1.06,1.969,1.969,0,0,0-.432-.73,1.766,1.766,0,0,0-.7-.427,2.7,2.7,0,0,0-.926-.129,3.391,3.391,0,0,0-.767.082,2.319,2.319,0,0,0-.653.258,2.584,2.584,0,0,0-.474.339,3.028,3.028,0,0,0-.391.432v8.049H10.818V230.215h2.655v6.236A4.786,4.786,0,0,1,13.962,235.849Z"/><path class="cls-3" d="M23.394,238.1a5.154,5.154,0,0,1,1.03-1.8,4.6,4.6,0,0,1,1.626-1.194,5.856,5.856,0,0,1,4.415,0,4.81,4.81,0,0,1,1.647,1.194,5.319,5.319,0,0,1,1.008,1.8,6.985,6.985,0,0,1,.35,2.249v.216a7.021,7.021,0,0,1-.35,2.259,5.31,5.31,0,0,1-1.008,1.8,4.644,4.644,0,0,1-1.637,1.189,5.413,5.413,0,0,1-2.2.427,5.478,5.478,0,0,1-2.218-.427,4.524,4.524,0,0,1-1.631-1.189,5.145,5.145,0,0,1-1.03-1.8,7.021,7.021,0,0,1-.349-2.259v-.216A6.986,6.986,0,0,1,23.394,238.1Zm2.455,3.834a3.461,3.461,0,0,0,.458,1.111,2.225,2.225,0,0,0,.8.772,2.329,2.329,0,0,0,1.168.278,2.166,2.166,0,0,0,1.935-1.05,3.591,3.591,0,0,0,.447-1.111,5.977,5.977,0,0,0,.15-1.369v-.216a5.806,5.806,0,0,0-.15-1.343,3.742,3.742,0,0,0-.447-1.117,2.252,2.252,0,0,0-.793-.772,2.551,2.551,0,0,0-2.316,0,2.258,2.258,0,0,0-.792.772,3.6,3.6,0,0,0-.458,1.117,5.861,5.861,0,0,0-.149,1.343v.216A6.034,6.034,0,0,0,25.849,241.937Z"/><path class="cls-4" d="M35.384,234.887h2.769l2.614,7.966.154.761.165-.761,2.573-7.966h2.768l-4.291,11.136H39.707Z"/><path class="cls-5" d="M51.764,245.812a5.339,5.339,0,0,1-1.776-1.148,4.968,4.968,0,0,1-1.142-1.7,5.53,5.53,0,0,1-.4-2.115v-.412a6.491,6.491,0,0,1,.406-2.351,5.475,5.475,0,0,1,1.127-1.817,5.107,5.107,0,0,1,1.693-1.168,5.258,5.258,0,0,1,2.094-.417,5.347,5.347,0,0,1,2.136.4,4.481,4.481,0,0,1,1.58,1.121,4.837,4.837,0,0,1,.967,1.734,7.171,7.171,0,0,1,.329,2.229V241.3H51.131v.041a4.364,4.364,0,0,0,.365,1.153,2.9,2.9,0,0,0,.623.813,3.029,3.029,0,0,0,.941.576,3.211,3.211,0,0,0,1.169.206,4.181,4.181,0,0,0,1.667-.34,3.221,3.221,0,0,0,1.3-.988l1.368,1.41a4.8,4.8,0,0,1-1.713,1.426,5.776,5.776,0,0,1-2.784.632A6.1,6.1,0,0,1,51.764,245.812Zm1.049-8.8a2.131,2.131,0,0,0-.746.515,2.937,2.937,0,0,0-.55.813,4.206,4.206,0,0,0-.325,1.07h4.961v-.206a2.512,2.512,0,0,0-.17-.905,2.149,2.149,0,0,0-1.214-1.271,2.549,2.549,0,0,0-1.024-.191A2.451,2.451,0,0,0,52.813,237.017Z"/><path class="cls-6" d="M70.438,234.763a5.185,5.185,0,0,1,.885.2l-.391,2.645a10.1,10.1,0,0,0-1.137-.2,9.658,9.658,0,0,0-1.107-.067,4.539,4.539,0,0,0-1.06.114,2.748,2.748,0,0,0-.833.339,2.555,2.555,0,0,0-.71.6,3.06,3.06,0,0,0-.484.849v6.783H62.935V234.887h2.481l.113,1.554.02.257a5.167,5.167,0,0,1,1.627-1.477,4.14,4.14,0,0,1,2.089-.54A8.141,8.141,0,0,1,70.438,234.763Z"/><path class="cls-7" d="M251.169,44.508a1.8,1.8,0,0,1,1.384-.525,1.842,1.842,0,0,1,1.4.52,1.793,1.793,0,0,1,.5,1.291,1.706,1.706,0,0,1-.51,1.266,1.881,1.881,0,0,1-1.384.5,1.834,1.834,0,0,1-1.374-.509,1.731,1.731,0,0,1-.5-1.261A1.817,1.817,0,0,1,251.169,44.508Zm0,8.6a1.8,1.8,0,0,1,1.384-.525,1.842,1.842,0,0,1,1.4.52,1.793,1.793,0,0,1,.5,1.291,1.706,1.706,0,0,1-.51,1.266,1.881,1.881,0,0,1-1.384.5,1.834,1.834,0,0,1-1.374-.509,1.731,1.731,0,0,1-.5-1.261A1.816,1.816,0,0,1,251.169,53.112Z"/><path class="cls-8" d="M262.9,46.8h-2.953V44.827H262.9v-.649a5,5,0,0,1,.345-1.924,3.91,3.91,0,0,1,.973-1.41,4.278,4.278,0,0,1,1.538-.859,6.464,6.464,0,0,1,2.012-.294c.247,0,.486.011.716.031s.458.048.684.082q.309.042.617.093c.206.034.419.076.639.124l-.2,2.1q-.391-.093-.9-.165a8.421,8.421,0,0,0-1.168-.072,3.928,3.928,0,0,0-1.214.165,1.869,1.869,0,0,0-.8.484,1.694,1.694,0,0,0-.427.694,3,3,0,0,0-.139.952v.649h4.076V46.8h-4.076v9.16H262.9Z"/><path class="cls-9" d="M272.694,48.043a5.127,5.127,0,0,1,1.029-1.8,4.588,4.588,0,0,1,1.626-1.194,5.856,5.856,0,0,1,4.415,0,4.8,4.8,0,0,1,1.647,1.194,5.329,5.329,0,0,1,1.009,1.8,6.985,6.985,0,0,1,.35,2.249v.216a7.021,7.021,0,0,1-.35,2.259,5.338,5.338,0,0,1-1.009,1.8,4.64,4.64,0,0,1-1.636,1.189,5.415,5.415,0,0,1-2.2.427,5.481,5.481,0,0,1-2.218-.427,4.533,4.533,0,0,1-1.631-1.189,5.136,5.136,0,0,1-1.029-1.8,7.021,7.021,0,0,1-.35-2.259v-.216A6.985,6.985,0,0,1,272.694,48.043Zm2.455,3.834a3.439,3.439,0,0,0,.458,1.111,2.214,2.214,0,0,0,.8.772,2.329,2.329,0,0,0,1.168.278,2.163,2.163,0,0,0,1.935-1.05,3.617,3.617,0,0,0,.448-1.111,6.034,6.034,0,0,0,.149-1.369v-.216a5.861,5.861,0,0,0-.149-1.343,3.77,3.77,0,0,0-.448-1.117,2.249,2.249,0,0,0-.792-.772,2.551,2.551,0,0,0-2.316,0,2.241,2.241,0,0,0-.792.772,3.58,3.58,0,0,0-.458,1.117,5.806,5.806,0,0,0-.15,1.343v.216A5.977,5.977,0,0,0,275.149,51.877Z"/><path class="cls-10" d="M291.147,53.9a2.417,2.417,0,0,0,.71-.37,1.723,1.723,0,0,0,.484-.572,1.505,1.505,0,0,0,.165-.746h2.511a3.268,3.268,0,0,1-.366,1.57,3.885,3.885,0,0,1-1.024,1.25,4.793,4.793,0,0,1-1.487.839,5.3,5.3,0,0,1-1.8.3,5.41,5.41,0,0,1-2.259-.443,4.6,4.6,0,0,1-1.621-1.2,5.237,5.237,0,0,1-.983-1.78,6.987,6.987,0,0,1-.334-2.182v-.33a7.075,7.075,0,0,1,.329-2.182,5.183,5.183,0,0,1,.988-1.79,4.605,4.605,0,0,1,1.616-1.2,5.371,5.371,0,0,1,2.254-.443,5.555,5.555,0,0,1,1.883.309,4.525,4.525,0,0,1,1.493.864,3.822,3.822,0,0,1,.972,1.343,4.187,4.187,0,0,1,.335,1.745h-2.511a2,2,0,0,0-.15-.818,1.926,1.926,0,0,0-.447-.664,2.18,2.18,0,0,0-.71-.453,2.418,2.418,0,0,0-.906-.165,2.229,2.229,0,0,0-1.194.294,2.258,2.258,0,0,0-.762.777,3.373,3.373,0,0,0-.406,1.106,6.836,6.836,0,0,0-.118,1.281v.33a7.153,7.153,0,0,0,.113,1.291,3.16,3.16,0,0,0,.411,1.107,2.176,2.176,0,0,0,.757.777,2.284,2.284,0,0,0,1.209.293A2.655,2.655,0,0,0,291.147,53.9Z"/><path class="cls-11" d="M305.185,54.408a4.181,4.181,0,0,1-1.364,1.3,3.46,3.46,0,0,1-1.785.474,4.525,4.525,0,0,1-1.585-.268,2.94,2.94,0,0,1-1.225-.854,3.963,3.963,0,0,1-.8-1.477,7.223,7.223,0,0,1-.284-2.156v-6.6h2.666v6.617a5.793,5.793,0,0,0,.108,1.215,1.917,1.917,0,0,0,.335.782,1.237,1.237,0,0,0,.6.432,2.69,2.69,0,0,0,.874.124,3.581,3.581,0,0,0,.891-.1,2.316,2.316,0,0,0,.694-.3,2.023,2.023,0,0,0,.443-.4,2.518,2.518,0,0,0,.329-.515V44.827h2.676V55.963h-2.419Z"/><path class="cls-12" d="M317.818,52.438a1.152,1.152,0,0,0-.427-.4,4.169,4.169,0,0,0-.818-.329,12.363,12.363,0,0,0-1.281-.3,12.265,12.265,0,0,1-1.781-.489,5.609,5.609,0,0,1-1.369-.7,3.037,3.037,0,0,1-.895-.942,2.409,2.409,0,0,1-.319-1.25,2.771,2.771,0,0,1,.324-1.307,3.273,3.273,0,0,1,.931-1.081,4.637,4.637,0,0,1,1.477-.746,6.5,6.5,0,0,1,1.951-.273,7.047,7.047,0,0,1,2.037.273,4.843,4.843,0,0,1,1.534.746,3.364,3.364,0,0,1,.962,1.137,3.064,3.064,0,0,1,.335,1.415h-2.656a1.392,1.392,0,0,0-.113-.561,1.522,1.522,0,0,0-.329-.478,2.032,2.032,0,0,0-.721-.412,3.191,3.191,0,0,0-1.049-.154,3.73,3.73,0,0,0-.952.108A1.892,1.892,0,0,0,314,47a1.263,1.263,0,0,0-.366.412,1.049,1.049,0,0,0-.128.5,1.078,1.078,0,0,0,.108.479,1.008,1.008,0,0,0,.386.4,2.725,2.725,0,0,0,.73.33,8.688,8.688,0,0,0,1.184.257,15.116,15.116,0,0,1,1.863.437,5.642,5.642,0,0,1,1.461.664,3.07,3.07,0,0,1,.957.978,2.566,2.566,0,0,1,.34,1.348,2.707,2.707,0,0,1-.35,1.358,3.319,3.319,0,0,1-.988,1.071,5.094,5.094,0,0,1-1.549.7,7.534,7.534,0,0,1-2.012.252,6.709,6.709,0,0,1-2.182-.325A4.919,4.919,0,0,1,311.864,55a3.568,3.568,0,0,1-.972-1.183,3.01,3.01,0,0,1-.335-1.359h2.553a1.712,1.712,0,0,0,.267.823,1.741,1.741,0,0,0,.577.546,2.571,2.571,0,0,0,.808.309,4.531,4.531,0,0,0,.91.092,4.36,4.36,0,0,0,1.055-.113,2.163,2.163,0,0,0,.726-.309,1.241,1.241,0,0,0,.36-.4,1.023,1.023,0,0,0,0-.967Z"/><circle class="cls-13" cx="58.737" cy="47.935" r="2.175"/><circle class="cls-14" cx="25.334" cy="47.935" r="2.175"/><circle class="cls-15" cx="25.334" cy="59.303" r="2.175"/><circle class="cls-16" cx="58.737" cy="59.128" r="2.175"/><circle class="cls-17" cx="47.544" cy="59.128" r="2.175"/><path class="cls-18" d="M36.352,56.952a2.176,2.176,0,1,0,2.175,2.176A2.175,2.175,0,0,0,36.352,56.952Z"/><circle class="cls-19" cx="58.737" cy="36.742" r="2.175"/><path class="cls-20" d="M47.544,27.982a2.176,2.176,0,1,0-2.175-2.176A2.176,2.176,0,0,0,47.544,27.982Z"/><circle class="cls-21" cx="58.912" cy="25.725" r="2.175"/><rect class="cls-22" x="9.017" y="9.017" width="33.578" height="33.578" rx="4.656"/><path class="cls-23" d="M124.45,236.715a12.757,12.757,0,0,1-12.743-12.742V56.783h-7.845A14.762,14.762,0,0,0,89.1,71.545V243.108a14.761,14.761,0,0,0,14.761,14.761h82.4a14.762,14.762,0,0,0,14.762-14.761v-6.393Z"/><path class="cls-24" d="M39.156,128.974A22.079,22.079,0,0,0,17.1,151.028v22.488a22.054,22.054,0,1,0,44.108,0V151.028A22.078,22.078,0,0,0,39.156,128.974ZM57.21,173.516a18.054,18.054,0,1,1-36.108,0V151.028a18.054,18.054,0,1,1,36.108,0Z"/><path class="cls-25" d="M39.156,140.512a2.127,2.127,0,0,0-2.125,2.125V156.4a2.125,2.125,0,0,0,4.25,0v-13.76A2.127,2.127,0,0,0,39.156,140.512Z"/><path class="cls-26" d="M34.312,122.676l1.761-1.761.007-.008,1.171-1.17v.005l1.905-1.9,1.905,1.895v0l1.575,1.576L44,122.676a1.9,1.9,0,1,0,2.694-2.694l-6.522-6.523a1.436,1.436,0,0,0-2.031,0l-6.523,6.523a1.9,1.9,0,1,0,2.694,2.694Z"/><path class="cls-27" d="M34.312,110.7l1.761-1.76.007-.008,1.171-1.17v0l1.905-1.9,1.905,1.894v0l1.575,1.575L44,110.7A1.9,1.9,0,0,0,46.694,108l-6.522-6.523a1.436,1.436,0,0,0-2.031,0L31.618,108a1.9,1.9,0,1,0,2.694,2.694Z"/><path class="cls-28" d="M132,134.339h39.435v9.823l-1.575-1.575-1.364-1.364a1.9,1.9,0,0,0-2.694,2.694l6.522,6.523a1.436,1.436,0,0,0,2.031,0l6.523-6.523a1.9,1.9,0,1,0-2.694-2.694l-2.939,2.939v-9.823h39.724a8.883,8.883,0,0,0,8.883-8.883V98.451a8.883,8.883,0,0,0-8.883-8.883H132a8.883,8.883,0,0,0-8.883,8.883v27.005A8.883,8.883,0,0,0,132,134.339Zm67.8-39.247a16.045,16.045,0,1,1-16.045,16.044A16.044,16.044,0,0,1,199.8,95.092Zm-66.612,3.1h38.785a1.753,1.753,0,0,1,0,3.5H133.191a1.753,1.753,0,0,1,0-3.5Zm0,11.193h38.785a1.753,1.753,0,0,1,0,3.5H133.191a1.753,1.753,0,0,1,0-3.5Zm0,11.192h38.785a1.753,1.753,0,0,1,0,3.5H133.191a1.753,1.753,0,0,1,0-3.5Z"/><path class="cls-29" d="M132,78.367h82.969a8.883,8.883,0,0,0,8.883-8.882V42.479a8.883,8.883,0,0,0-8.883-8.882H132a8.883,8.883,0,0,0-8.883,8.882V69.485A8.882,8.882,0,0,0,132,78.367Zm43-34.508h38.784a1.753,1.753,0,0,1,0,3.5H175a1.753,1.753,0,0,1,0-3.5Zm0,11.193h38.784a1.753,1.753,0,0,1,0,3.5H175a1.753,1.753,0,0,1,0-3.5Zm0,11.193h38.784a1.753,1.753,0,0,1,0,3.5H175a1.753,1.753,0,0,1,0-3.5ZM147.17,40.755A16.045,16.045,0,1,1,131.126,56.8,16.045,16.045,0,0,1,147.17,40.755Z"/><path class="cls-30" d="M221.826,11.809H124.45a12.757,12.757,0,0,0-12.743,12.742V223.9a12.757,12.757,0,0,0,12.743,12.743h97.376A12.757,12.757,0,0,0,234.569,223.9V24.551A12.757,12.757,0,0,0,221.826,11.809Zm-53.362,4.617h12.963a1.486,1.486,0,1,1,0,2.972H168.464a1.486,1.486,0,1,1,0-2.972Zm60.1,105.781V223.973L117.707,223.9V24.551H228.569Z"/><circle class="cls-31" cx="128.295" cy="166.099" r="2.175"/><circle class="cls-32" cx="125.119" cy="175.416" r="2.175"/><circle class="cls-33" cx="125.119" cy="185.609" r="2.175"/><circle class="cls-34" cx="125.119" cy="195.801" r="2.175"/><circle class="cls-35" cx="128.295" cy="204.598" r="2.175"/><path class="cls-36" d="M218.711,202.423a2.175,2.175,0,1,0,2.175,2.175A2.175,2.175,0,0,0,218.711,202.423Z"/><path class="cls-37" d="M209.661,160.748a2.176,2.176,0,1,0,2.175,2.175A2.175,2.175,0,0,0,209.661,160.748Z"/><path class="cls-38" d="M199.468,160.748a2.176,2.176,0,1,0,2.175,2.175A2.175,2.175,0,0,0,199.468,160.748Z"/><path class="cls-39" d="M188.275,160.748a2.176,2.176,0,1,0,2.176,2.175A2.175,2.175,0,0,0,188.275,160.748Z"/><path class="cls-40" d="M179.083,160.748a2.176,2.176,0,1,0,2.175,2.175A2.175,2.175,0,0,0,179.083,160.748Z"/><path class="cls-41" d="M167.89,160.748a2.176,2.176,0,1,0,2.175,2.175A2.175,2.175,0,0,0,167.89,160.748Z"/><path class="cls-42" d="M158.7,160.748a2.176,2.176,0,1,0,2.176,2.175A2.175,2.175,0,0,0,158.7,160.748Z"/><path class="cls-43" d="M147.505,160.748a2.176,2.176,0,1,0,2.175,2.175A2.175,2.175,0,0,0,147.505,160.748Z"/><path class="cls-44" d="M137.312,160.748a2.176,2.176,0,1,0,2.175,2.175A2.175,2.175,0,0,0,137.312,160.748Z"/><path class="cls-45" d="M209.661,205.819a2.175,2.175,0,1,0,2.175,2.175A2.175,2.175,0,0,0,209.661,205.819Z"/><path class="cls-46" d="M199.468,205.819a2.175,2.175,0,1,0,2.175,2.175A2.175,2.175,0,0,0,199.468,205.819Z"/><path class="cls-47" d="M188.275,205.819a2.175,2.175,0,1,0,2.176,2.175A2.175,2.175,0,0,0,188.275,205.819Z"/><path class="cls-48" d="M179.083,205.819a2.175,2.175,0,1,0,2.175,2.175A2.175,2.175,0,0,0,179.083,205.819Z"/><path class="cls-49" d="M167.89,205.819a2.175,2.175,0,1,0,2.175,2.175A2.175,2.175,0,0,0,167.89,205.819Z"/><path class="cls-50" d="M158.7,205.819a2.175,2.175,0,1,0,2.176,2.175A2.175,2.175,0,0,0,158.7,205.819Z"/><path class="cls-51" d="M147.505,205.819a2.175,2.175,0,1,0,2.175,2.175A2.175,2.175,0,0,0,147.505,205.819Z"/><path class="cls-52" d="M137.312,205.819a2.175,2.175,0,1,0,2.175,2.175A2.175,2.175,0,0,0,137.312,205.819Z"/><circle class="cls-53" cx="221.886" cy="195.281" r="2.175"/><path class="cls-54" d="M221.886,182.913a2.175,2.175,0,1,0,2.176,2.175A2.175,2.175,0,0,0,221.886,182.913Z"/><circle class="cls-55" cx="221.886" cy="174.895" r="2.175"/><path class="cls-56" d="M218.711,168.274a2.176,2.176,0,1,0-2.175-2.175A2.175,2.175,0,0,0,218.711,168.274Z"/><path class="cls-57" d="M301.69,142.023l-5.469-5.469,3.287-3.287a.5.5,0,0,0-.126-.8l-18.343-9.345a.9.9,0,0,0-1.216,1.217l9.345,18.342a.5.5,0,0,0,.8.126l3.287-3.287,5.469,5.47a2.1,2.1,0,0,0,2.971-2.971Z"/><path class="cls-58" d="M271.61,112.221a1.75,1.75,0,0,0-2.475,2.474l5.439,5.44a1.75,1.75,0,1,0,2.475-2.475Z"/><path class="cls-59" d="M284.143,107.933a1.753,1.753,0,0,0-1.99,1.472l-1.139,7.608a1.75,1.75,0,0,0,3.461.518l1.14-7.608A1.752,1.752,0,0,0,284.143,107.933Z"/><path class="cls-60" d="M273.922,124.131l-7.6,1.179a1.75,1.75,0,0,0,.536,3.459l7.6-1.179a1.75,1.75,0,0,0-.537-3.459Z"/><path class="cls-61" d="M294.921,255.892a5.594,5.594,0,0,0-5.222,3.6H257.163v4H289.7a5.593,5.593,0,0,0,10.818-2h0A5.6,5.6,0,0,0,294.921,255.892Z"/><path class="cls-61" d="M321.485,203.525H288.95a5.6,5.6,0,1,0,0,4h32.535Z"/><path class="cls-62" d="M321.485,198.512v5.032c-19.613.4-30.836,10.093-34.281,29.615l-.024.2c-1.763,8.931-8.049,23.189-30.016,25.736v-4.618H243.137V268.5h14.027v-5.436c12.14-1.443,29.776-7.36,33.973-29.105l.037-.275c3.127-17.423,12.792-25.736,30.311-26.122v4.977h14.027V198.512Z"/></svg>