<svg id="Layer_1" data-name="Layer 1" xmlns="http://www.w3.org/2000/svg" xmlns:xlink="http://www.w3.org/1999/xlink" viewBox="0 0 335.78 268.624"><defs><style>.cls-1{fill:url(#linear-gradient);}.cls-2{fill:url(#linear-gradient-2);}.cls-3{fill:url(#linear-gradient-3);}.cls-4{fill:url(#linear-gradient-4);}.cls-5{fill:url(#linear-gradient-5);}.cls-6{fill:url(#linear-gradient-6);}.cls-7{fill:url(#linear-gradient-7);}.cls-8{fill:url(#linear-gradient-8);}.cls-9{fill:url(#linear-gradient-9);}.cls-10{fill:url(#linear-gradient-10);}.cls-11{fill:url(#linear-gradient-11);}.cls-12{fill:url(#linear-gradient-12);}.cls-13{fill:url(#linear-gradient-13);}.cls-14{fill:url(#linear-gradient-14);}.cls-15{fill:url(#linear-gradient-15);}.cls-16{fill:url(#linear-gradient-16);}.cls-17{fill:url(#linear-gradient-17);}.cls-18{fill:url(#linear-gradient-18);}.cls-19{fill:url(#linear-gradient-19);}.cls-20{fill:url(#linear-gradient-20);}.cls-21{fill:url(#linear-gradient-21);}.cls-22{fill:url(#linear-gradient-22);}.cls-23{fill:url(#linear-gradient-23);}.cls-24{fill:url(#linear-gradient-24);}.cls-25{fill:url(#linear-gradient-25);}.cls-26{fill:url(#linear-gradient-26);}.cls-27{fill:url(#linear-gradient-27);}.cls-28{fill:url(#linear-gradient-28);}.cls-29{fill:url(#linear-gradient-29);}.cls-30{fill:url(#linear-gradient-30);}.cls-31{fill:url(#linear-gradient-31);}.cls-32{fill:url(#linear-gradient-32);}.cls-33{fill:url(#linear-gradient-33);}.cls-34{fill:url(#linear-gradient-34);}.cls-35{fill:url(#linear-gradient-35);}.cls-36{fill:url(#linear-gradient-36);}.cls-37{fill:url(#linear-gradient-37);}.cls-38{fill:url(#linear-gradient-38);}.cls-39{fill:url(#linear-gradient-39);}.cls-40{fill:url(#linear-gradient-40);}.cls-41{fill:#e6e7e8;}.cls-42{fill:url(#linear-gradient-41);}.cls-43{fill:url(#linear-gradient-42);}</style><linearGradient id="linear-gradient" x1="29.829" y1="105.937" x2="48.296" y2="85.162" gradientUnits="userSpaceOnUse"><stop offset="0" stop-color="#261b2d"/><stop offset="1" stop-color="#6c6173"/></linearGradient><linearGradient id="linear-gradient-2" x1="32.541" y1="30.125" x2="110.155" y2="-15.453" gradientUnits="userSpaceOnUse"><stop offset="0" stop-color="#b46964"/><stop offset="1" stop-color="#eb9590"/></linearGradient><linearGradient id="linear-gradient-3" x1="36.535" y1="36.926" x2="114.149" y2="-8.652" xlink:href="#linear-gradient-2"/><linearGradient id="linear-gradient-4" x1="38.788" y1="40.763" x2="116.403" y2="-4.814" xlink:href="#linear-gradient-2"/><linearGradient id="linear-gradient-5" x1="42.798" y1="47.591" x2="120.412" y2="2.013" xlink:href="#linear-gradient-2"/><linearGradient id="linear-gradient-6" x1="45.196" y1="51.675" x2="122.81" y2="6.097" xlink:href="#linear-gradient-2"/><linearGradient id="linear-gradient-7" x1="48.293" y1="56.948" x2="125.907" y2="11.37" xlink:href="#linear-gradient-2"/><linearGradient id="linear-gradient-8" x1="51.743" y1="62.825" x2="129.358" y2="17.247" xlink:href="#linear-gradient-2"/><linearGradient id="linear-gradient-9" x1="53.94" y1="66.564" x2="131.554" y2="20.986" xlink:href="#linear-gradient-2"/><linearGradient id="linear-gradient-10" x1="88.719" y1="184.831" x2="217.746" y2="53.162" xlink:href="#linear-gradient"/><linearGradient id="linear-gradient-11" x1="83.262" y1="179.484" x2="212.289" y2="47.814" xlink:href="#linear-gradient"/><linearGradient id="linear-gradient-12" x1="72.685" y1="169.119" x2="201.713" y2="37.45" xlink:href="#linear-gradient"/><linearGradient id="linear-gradient-13" x1="81.2" y1="177.463" x2="210.227" y2="45.793" xlink:href="#linear-gradient"/><linearGradient id="linear-gradient-14" x1="111.286" y1="206.945" x2="240.313" y2="75.276" xlink:href="#linear-gradient"/><linearGradient id="linear-gradient-15" x1="118.986" y1="214.491" x2="248.013" y2="82.822" xlink:href="#linear-gradient"/><linearGradient id="linear-gradient-16" x1="98.626" y1="194.539" x2="227.653" y2="62.87" xlink:href="#linear-gradient"/><linearGradient id="linear-gradient-17" x1="124.451" y1="219.847" x2="253.478" y2="88.177" xlink:href="#linear-gradient"/><linearGradient id="linear-gradient-18" x1="135.016" y1="230.199" x2="264.043" y2="98.53" xlink:href="#linear-gradient"/><linearGradient id="linear-gradient-19" x1="103.852" y1="199.661" x2="232.88" y2="67.992" xlink:href="#linear-gradient"/><linearGradient id="linear-gradient-20" x1="109.069" y1="204.773" x2="238.096" y2="73.104" xlink:href="#linear-gradient"/><linearGradient id="linear-gradient-21" x1="126.505" y1="221.859" x2="255.532" y2="90.19" xlink:href="#linear-gradient"/><linearGradient id="linear-gradient-22" x1="96.421" y1="192.379" x2="225.448" y2="60.709" xlink:href="#linear-gradient"/><linearGradient id="linear-gradient-23" x1="103.858" y1="199.666" x2="232.885" y2="67.997" xlink:href="#linear-gradient"/><linearGradient id="linear-gradient-24" x1="157.659" y1="146.07" x2="83.678" y2="210.803" gradientUnits="userSpaceOnUse"><stop offset="0" stop-color="#4b87aa"/><stop offset="0.997" stop-color="#9cd3e7"/></linearGradient><linearGradient id="linear-gradient-25" x1="19.481" y1="263.34" x2="102.38" y2="221.725" xlink:href="#linear-gradient-2"/><linearGradient id="linear-gradient-26" x1="19.287" y1="262.953" x2="102.186" y2="221.338" xlink:href="#linear-gradient-2"/><linearGradient id="linear-gradient-27" x1="22.685" y1="269.722" x2="105.584" y2="228.108" xlink:href="#linear-gradient-2"/><linearGradient id="linear-gradient-28" x1="25.048" y1="274.429" x2="107.947" y2="232.814" xlink:href="#linear-gradient-2"/><linearGradient id="linear-gradient-29" x1="27.478" y1="279.27" x2="110.377" y2="237.655" xlink:href="#linear-gradient-2"/><linearGradient id="linear-gradient-30" x1="29.045" y1="282.392" x2="111.944" y2="240.778" xlink:href="#linear-gradient-2"/><linearGradient id="linear-gradient-31" x1="32.34" y1="288.956" x2="115.239" y2="247.341" xlink:href="#linear-gradient-2"/><linearGradient id="linear-gradient-32" x1="34.501" y1="293.261" x2="117.4" y2="251.646" xlink:href="#linear-gradient-2"/><linearGradient id="linear-gradient-33" x1="37.279" y1="298.794" x2="120.178" y2="257.179" xlink:href="#linear-gradient-2"/><linearGradient id="linear-gradient-34" x1="282.13" y1="151.856" x2="325.396" y2="101.324" xlink:href="#linear-gradient-24"/><linearGradient id="linear-gradient-35" x1="282.057" y1="151.794" x2="325.323" y2="101.262" xlink:href="#linear-gradient-24"/><linearGradient id="linear-gradient-36" x1="285.002" y1="-12.399" x2="232.845" y2="98.374" gradientUnits="userSpaceOnUse"><stop offset="0.022" stop-color="#e6e7e8"/><stop offset="1" stop-color="#bbbdbf"/></linearGradient><linearGradient id="linear-gradient-37" x1="334.064" y1="-13.631" x2="279.273" y2="102.734" xlink:href="#linear-gradient-36"/><linearGradient id="linear-gradient-38" x1="339.176" y1="-13.295" x2="284.385" y2="103.071" xlink:href="#linear-gradient-36"/><linearGradient id="linear-gradient-39" x1="344.287" y1="-12.958" x2="289.497" y2="103.407" xlink:href="#linear-gradient-36"/><linearGradient id="linear-gradient-40" x1="299.005" y1="45.971" x2="316.04" y2="13.76" xlink:href="#linear-gradient-2"/><linearGradient id="linear-gradient-41" x1="-16.418" y1="235.882" x2="18.294" y2="191.795" gradientUnits="userSpaceOnUse"><stop offset="0" stop-color="#5a965f"/><stop offset="0.496" stop-color="#73b075"/><stop offset="1" stop-color="#8cca8b"/></linearGradient><linearGradient id="linear-gradient-42" x1="247.899" y1="261.904" x2="324.082" y2="186.161" xlink:href="#linear-gradient-41"/></defs><title>skillset-icons</title><path class="cls-1" d="M51.3,91a4.047,4.047,0,0,0-1.249-1.637,6.871,6.871,0,0,0-2.095-1.068q-.636-.21-1.374-.391V82.781a10.343,10.343,0,0,1,1.166.448,5.011,5.011,0,0,1,1.193.735,1.221,1.221,0,0,0,.749.25,1.478,1.478,0,0,0,1.11-.5,1.579,1.579,0,0,0,.472-1.11,1.853,1.853,0,0,0-.8-1.471,7.8,7.8,0,0,0-2.512-1.373,9.2,9.2,0,0,0-1.374-.358V78.386a1.692,1.692,0,0,0-.457-1.207,1.554,1.554,0,0,0-1.18-.486,1.659,1.659,0,0,0-1.692,1.693v.933a8.437,8.437,0,0,0-2.137.566,5.815,5.815,0,0,0-2.512,1.942,5.088,5.088,0,0,0-.929,3.08,5.674,5.674,0,0,0,.388,2.151,4.61,4.61,0,0,0,1.152,1.665,6.117,6.117,0,0,0,1.9,1.165,11.048,11.048,0,0,0,2.137.594v5.423a5.261,5.261,0,0,1-1.235-.342,8.774,8.774,0,0,1-2.1-1.3,1.469,1.469,0,0,0-.943-.333,1.517,1.517,0,0,0-1.152.486,1.59,1.59,0,0,0-.458,1.124,1.722,1.722,0,0,0,.2.777,2.168,2.168,0,0,0,.555.693,8.346,8.346,0,0,0,2.969,1.707,10.681,10.681,0,0,0,2.165.416V100.7a1.666,1.666,0,0,0,.471,1.207,1.559,1.559,0,0,0,1.166.486,1.659,1.659,0,0,0,1.692-1.693V98.981a8.552,8.552,0,0,0,1.513-.476,6.4,6.4,0,0,0,2.622-2,4.964,4.964,0,0,0,1-3.108A6.158,6.158,0,0,0,51.3,91Zm-8.464-4a3.284,3.284,0,0,1-1.4-.86,1.975,1.975,0,0,1-.486-1.373,1.915,1.915,0,0,1,.416-1.221,2.758,2.758,0,0,1,1.235-.833,4.368,4.368,0,0,1,.653-.177v4.6C43.111,87.093,42.97,87.048,42.838,87Zm5.023,7.826a3.628,3.628,0,0,1-1.277.813v-4.35a3.592,3.592,0,0,1,1.3.887,2.1,2.1,0,0,1,.5,1.415A1.723,1.723,0,0,1,47.861,94.828Z"/><polygon class="cls-2" points="29.531 35.642 29.366 36.401 29.213 35.642 26.608 27.706 23.85 27.706 28.156 38.801 30.576 38.801 34.852 27.706 32.094 27.706 29.531 35.642"/><path class="cls-3" d="M45.935,36.2v-4.84a3.748,3.748,0,0,0-.359-1.686,3.452,3.452,0,0,0-.974-1.205,4.431,4.431,0,0,0-1.487-.723,6.779,6.779,0,0,0-1.846-.241,6.231,6.231,0,0,0-1.953.282,4.509,4.509,0,0,0-1.451.764,3.371,3.371,0,0,0-.907,1.1,2.864,2.864,0,0,0-.313,1.308H39.3a1.557,1.557,0,0,1,.1-.57,1.11,1.11,0,0,1,.318-.446,1.529,1.529,0,0,1,.58-.317,2.718,2.718,0,0,1,.825-.114,3,3,0,0,1,.938.134,1.917,1.917,0,0,1,.682.379,1.493,1.493,0,0,1,.4.565,1.965,1.965,0,0,1,.133.748v.7H41.587a9.585,9.585,0,0,0-2.159.221,4.829,4.829,0,0,0-1.594.651,3.011,3.011,0,0,0-1.066,1.169,3.559,3.559,0,0,0-.359,1.63,3.08,3.08,0,0,0,1.077,2.369,3.6,3.6,0,0,0,1.215.687,4.8,4.8,0,0,0,1.574.246,4.555,4.555,0,0,0,.984-.1,4.421,4.421,0,0,0,.851-.276,4.131,4.131,0,0,0,.7-.406,3.8,3.8,0,0,0,.564-.5,5.208,5.208,0,0,0,.113.589,2.462,2.462,0,0,0,.174.488h2.707v-.174a3.8,3.8,0,0,1-.322-1.021A7.844,7.844,0,0,1,45.935,36.2Zm-2.656-.554a2.181,2.181,0,0,1-.364.467,2.427,2.427,0,0,1-.549.405,2.973,2.973,0,0,1-.707.292,3.182,3.182,0,0,1-.851.108,2.431,2.431,0,0,1-.759-.108,1.693,1.693,0,0,1-.543-.282,1.223,1.223,0,0,1-.339-.467,1.519,1.519,0,0,1-.113-.589,1.717,1.717,0,0,1,.149-.717,1.509,1.509,0,0,1,.446-.565A2.275,2.275,0,0,1,40.5,33.8a5.165,5.165,0,0,1,1.261-.133h1.518Z"/><path class="cls-4" d="M56.556,27.5a4.126,4.126,0,0,0-2.082.538,5.135,5.135,0,0,0-1.62,1.471l-.02-.255-.113-1.549H50.25V38.8h2.656V32.044a3.052,3.052,0,0,1,.481-.847,2.586,2.586,0,0,1,.708-.6,2.748,2.748,0,0,1,.831-.337,4.5,4.5,0,0,1,1.056-.114,9.573,9.573,0,0,1,1.1.067,10.03,10.03,0,0,1,1.133.2l.39-2.635a5.082,5.082,0,0,0-.882-.2A7.935,7.935,0,0,0,56.556,27.5Z"/><path class="cls-5" d="M65.336,30.285a17.658,17.658,0,0,1,.384-2.046,13.334,13.334,0,0,1,.646-1.784,8.963,8.963,0,0,1,.79-1.425,7.772,7.772,0,0,1,.646-.79,5.262,5.262,0,0,1,.656-.595l-.512-1.5A5.971,5.971,0,0,0,66.8,22.9a8.172,8.172,0,0,0-1.159,1.169,11.179,11.179,0,0,0-1.071,1.584,12.228,12.228,0,0,0-.887,1.985A14.753,14.753,0,0,0,63.08,30a16.076,16.076,0,0,0-.22,2.727v.205a16.063,16.063,0,0,0,.22,2.733,14.509,14.509,0,0,0,.6,2.353,11.826,11.826,0,0,0,.887,1.989,11.3,11.3,0,0,0,1.071,1.58A8.37,8.37,0,0,0,66.8,42.763a5.738,5.738,0,0,0,1.149.754l.512-1.465a5.953,5.953,0,0,1-.81-.775,7.729,7.729,0,0,1-.789-1.092,9.606,9.606,0,0,1-.661-1.364,13.7,13.7,0,0,1-.549-1.691,14.789,14.789,0,0,1-.324-1.8,19.206,19.206,0,0,1-.138-2.374V32.71A18.529,18.529,0,0,1,65.336,30.285Z"/><rect class="cls-6" x="74.127" y="31.151" width="8.388" height="2.144"/><rect class="cls-7" x="86.204" y="31.151" width="8.388" height="2.144"/><polygon class="cls-8" points="107.448 27.706 104.567 27.706 102.013 31.305 99.501 27.706 96.62 27.706 100.414 33.161 96.476 38.801 99.388 38.801 102.024 35.048 104.69 38.801 107.581 38.801 103.644 33.161 107.448 27.706"/><path class="cls-9" d="M116.336,30.039a14.523,14.523,0,0,0-.615-2.343,12.249,12.249,0,0,0-.9-1.989,12.078,12.078,0,0,0-1.1-1.611,8.267,8.267,0,0,0-1.184-1.189,5.97,5.97,0,0,0-1.174-.759l-.513,1.446a5.981,5.981,0,0,1,.631.595,7.413,7.413,0,0,1,.631.789,9.645,9.645,0,0,1,.84,1.518,12.327,12.327,0,0,1,.687,1.979,18.719,18.719,0,0,1,.344,1.928,18.023,18.023,0,0,1,.138,2.307v.246a19.4,19.4,0,0,1-.128,2.3,17.3,17.3,0,0,1-.343,1.959,13.177,13.177,0,0,1-.59,1.763,9.353,9.353,0,0,1-.733,1.415,6.818,6.818,0,0,1-.728.969,5.593,5.593,0,0,1-.749.693l.513,1.465a5.916,5.916,0,0,0,1.174-.758,8.023,8.023,0,0,0,1.184-1.2,12.209,12.209,0,0,0,2-3.589,14.767,14.767,0,0,0,.615-2.358,15.139,15.139,0,0,0,.226-2.677V32.73A15.169,15.169,0,0,0,116.336,30.039Z"/><path class="cls-10" d="M128.7,134.312a94.741,94.741,0,0,0,9.874,9.5q-.33-4.638-.334-9.5c0-3.239.114-6.413.334-9.505A94.741,94.741,0,0,0,128.7,134.312Z"/><path class="cls-11" d="M185.724,95.607c-4.53-11.024-10.9-18.027-17.834-18.027S154.6,84.569,150.069,95.574a102.545,102.545,0,0,1,17.837,5.7A102.829,102.829,0,0,1,185.724,95.607Z"/><path class="cls-12" d="M139.275,117.791a102.463,102.463,0,0,1,3.978-18.281c-11.795-1.58-21.031.437-24.494,6.436s-.593,15,6.673,24.43A102.44,102.44,0,0,1,139.275,117.791Z"/><path class="cls-13" d="M161.474,104.172a94.653,94.653,0,0,0-13.181-3.8,94.609,94.609,0,0,0-3.3,13.3q3.852-2.605,8.064-5.042Q157.241,106.217,161.474,104.172Z"/><path class="cls-14" d="M210.343,130.422q.715-.933,1.381-1.87c6.431-9.058,8.362-17.3,5.3-22.606C214.42,101.44,208.189,99,199.6,99q-2.293,0-4.805.234-1.126.106-2.276.257a102.368,102.368,0,0,1,3.988,18.322A102.649,102.649,0,0,1,210.343,130.422Z"/><path class="cls-15" d="M207.123,134.312a92.1,92.1,0,0,0-9.916-9.552q.335,4.66.338,9.552t-.338,9.552A92.1,92.1,0,0,0,207.123,134.312Z"/><path class="cls-16" d="M182.718,108.63q4.177,2.412,8.066,5.056a94.638,94.638,0,0,0-3.306-13.345,92.232,92.232,0,0,0-13.2,3.806Q178.479,106.187,182.718,108.63Z"/><path class="cls-17" d="M150.066,173.041c4.529,11.01,10.9,18,17.824,18s13.294-6.993,17.824-18a102.3,102.3,0,0,1-17.824-5.69A102.323,102.323,0,0,1,150.066,173.041Z"/><path class="cls-18" d="M210.343,138.2a102.649,102.649,0,0,1-13.836,12.613,102.455,102.455,0,0,1-3.98,18.3c11.8,1.581,21.031-.436,24.494-6.436,3.065-5.307,1.134-13.547-5.3-22.606Q211.06,139.136,210.343,138.2Z"/><path class="cls-19" d="M167.89,55.963a78.349,78.349,0,1,0,78.349,78.349A78.348,78.348,0,0,0,167.89,55.963Zm53.461,109.215c-3.669,6.356-11.562,9.463-21.813,9.463a61.036,61.036,0,0,1-8.75-.684c-5.4,13.572-13.582,22.087-22.9,22.087s-17.5-8.515-22.9-22.088a60.9,60.9,0,0,1-8.75.685c-10.253,0-18.143-3.106-21.814-9.463-4.657-8.066-1.377-19.408,7.674-30.866-9.051-11.458-12.331-22.8-7.674-30.866s16.12-10.9,30.568-8.788c5.4-13.567,13.58-22.078,22.894-22.078S185.4,81.1,190.8,94.688c1.191-.174,2.372-.327,3.53-.436,13.28-1.242,22.88,2.016,27.024,9.194s2.174,17.122-5.549,28c-.68.958-1.41,1.912-2.164,2.865.754.953,1.484,1.908,2.164,2.865C223.525,148.056,225.5,158,221.351,165.178Z"/><path class="cls-20" d="M153.062,159.994q-4.208-2.43-8.064-5.042a94.735,94.735,0,0,0,3.294,13.3,94.753,94.753,0,0,0,13.182-3.8Q157.285,162.416,153.062,159.994Z"/><path class="cls-21" d="M174.306,164.452a94.927,94.927,0,0,0,13.181,3.8,94.673,94.673,0,0,0,3.3-13.318q-3.885,2.634-8.066,5.056Q178.5,162.427,174.306,164.452Z"/><path class="cls-22" d="M125.432,138.247c-7.266,9.426-10.137,18.433-6.673,24.431s12.7,8.015,24.493,6.435a102.426,102.426,0,0,1-3.977-18.281A102.374,102.374,0,0,1,125.432,138.247Z"/><path class="cls-23" d="M191.771,120.5a125.112,125.112,0,0,0-11.553-7.537,122.709,122.709,0,0,0-12.351-6.237,125.139,125.139,0,0,0-12.3,6.237,122.878,122.878,0,0,0-11.556,7.563,123.691,123.691,0,0,0,0,27.578A123.547,123.547,0,0,0,167.89,161.89a122.787,122.787,0,0,0,12.328-6.226,125.119,125.119,0,0,0,11.553-7.538,123.669,123.669,0,0,0,0-27.629ZM167.89,148.942a14.63,14.63,0,1,1,14.63-14.63A14.63,14.63,0,0,1,167.89,148.942Z"/><path class="cls-24" d="M167.89,212.661A78.338,78.338,0,0,1,102.427,91.28a78.342,78.342,0,1,0,108.495,108.5A77.962,77.962,0,0,1,167.89,212.661Z"/><path class="cls-25" d="M29.525,254.7a4.553,4.553,0,0,0-1.641-1.3,5.057,5.057,0,0,0-2.194-.461,5.268,5.268,0,0,0-2.512.6,6.235,6.235,0,0,0-1.969,1.652,8.292,8.292,0,0,0-1.328,2.5,10.5,10.5,0,0,0-.538,3.065,10.908,10.908,0,0,0,.266,2.923,6.014,6.014,0,0,0,1.015,2.235,4.67,4.67,0,0,0,1.8,1.42,6.16,6.16,0,0,0,2.584.5,5.92,5.92,0,0,0,.718-.046,5.482,5.482,0,0,0,.758-.148,4.94,4.94,0,0,0,.708-.236,3.051,3.051,0,0,0,.605-.338l-.328-1.344a4.579,4.579,0,0,1-.523.23,4.482,4.482,0,0,1-.605.18,4.053,4.053,0,0,1-.652.134,5.377,5.377,0,0,1-.65.041,4.476,4.476,0,0,1-1.826-.349,3.163,3.163,0,0,1-1.3-1.056,4.5,4.5,0,0,1-.764-1.728,9.194,9.194,0,0,1-.189-2.415,9.927,9.927,0,0,1,.389-2.559,6.555,6.555,0,0,1,.964-2,4.338,4.338,0,0,1,1.425-1.292,3.776,3.776,0,0,1,1.867-.462,4.2,4.2,0,0,1,1.656.307,3,3,0,0,1,1.2.923,4.155,4.155,0,0,1,.713,1.569,8.225,8.225,0,0,1,.19,2.2,10.9,10.9,0,0,1-.093,1.471A5.9,5.9,0,0,1,29,262.1a2.377,2.377,0,0,1-.4.774.685.685,0,0,1-.533.283.839.839,0,0,1-.226-.032.333.333,0,0,1-.184-.123.6.6,0,0,1-.123-.276,1.887,1.887,0,0,1-.021-.513l.441-5.352a2.733,2.733,0,0,0-.8-.57,3.26,3.26,0,0,0-2.656.087,3.3,3.3,0,0,0-1.082.934,5.257,5.257,0,0,0-.753,1.471,8.436,8.436,0,0,0-.395,1.922,6.676,6.676,0,0,0,.021,1.584,3.644,3.644,0,0,0,.379,1.226,2.018,2.018,0,0,0,.718.784,1.926,1.926,0,0,0,1.035.273,1.824,1.824,0,0,0,.6-.1,2.253,2.253,0,0,0,.539-.271,3.154,3.154,0,0,0,.338-.3,3.1,3.1,0,0,0,.308-.374,2.024,2.024,0,0,0,.24.4,1.926,1.926,0,0,0,.3.314,1.47,1.47,0,0,0,.492.26,1.914,1.914,0,0,0,.585.088,2.034,2.034,0,0,0,1.338-.462,3.513,3.513,0,0,0,.918-1.21,6.729,6.729,0,0,0,.538-1.666,11.849,11.849,0,0,0,.21-1.861,8.731,8.731,0,0,0-.3-2.635A6.01,6.01,0,0,0,29.525,254.7ZM26,262.167l-.01.123a1.8,1.8,0,0,1-.195.287,1.426,1.426,0,0,1-.205.206,1.25,1.25,0,0,1-.359.194,1.16,1.16,0,0,1-.369.061.682.682,0,0,1-.446-.153,1.116,1.116,0,0,1-.313-.472,2.7,2.7,0,0,1-.159-.713,6.484,6.484,0,0,1-.015-1,7.71,7.71,0,0,1,.236-1.342,3.668,3.668,0,0,1,.42-.985,1.766,1.766,0,0,1,.605-.61,1.619,1.619,0,0,1,.831-.21,1.258,1.258,0,0,1,.21.015,1.449,1.449,0,0,1,.159.036Z"/><path class="cls-26" d="M36.772,254.887a1.413,1.413,0,0,0,.59.189,1.366,1.366,0,0,0,.59-.077,1.343,1.343,0,0,0,.938-.43,1.359,1.359,0,0,0-.123-1.846,1.534,1.534,0,0,0-1.051-.349,1.844,1.844,0,0,0-.631.1,1.354,1.354,0,0,0-.477.287,1.382,1.382,0,0,0-.318.462,1.486,1.486,0,0,0-.112.584,1.334,1.334,0,0,0,.153.636A1.065,1.065,0,0,0,36.772,254.887Z"/><polygon class="cls-27" points="39.069 256.66 33.101 256.66 33.101 258.845 36.393 258.845 36.393 265.581 33.101 265.581 33.101 267.755 42.207 267.755 42.207 265.581 39.069 265.581 39.069 256.66"/><path class="cls-28" d="M53.207,257.481a3.073,3.073,0,0,0-1.215-.78,4.637,4.637,0,0,0-1.543-.246,4.1,4.1,0,0,0-1.241.185,3.876,3.876,0,0,0-1.076.533,3.922,3.922,0,0,0-.559.467,4.384,4.384,0,0,0-.487.579l-.164-1.559h-2.4v11.095h2.656V259.86a2.869,2.869,0,0,1,.349-.467,2.281,2.281,0,0,1,.43-.363,2.227,2.227,0,0,1,.651-.3,2.945,2.945,0,0,1,.8-.1,3.718,3.718,0,0,1,.918.1,1.552,1.552,0,0,1,.692.369,1.622,1.622,0,0,1,.441.7,3.481,3.481,0,0,1,.154,1.123v6.829h2.646v-6.87a6.547,6.547,0,0,0-.277-2.03A3.619,3.619,0,0,0,53.207,257.481Z"/><path class="cls-29" d="M59.106,260.778a3.363,3.363,0,0,1,.405-1.1,2.258,2.258,0,0,1,.759-.774,2.22,2.22,0,0,1,1.189-.292,2.4,2.4,0,0,1,.9.164,2.161,2.161,0,0,1,.707.451,1.93,1.93,0,0,1,.446.661,1.985,1.985,0,0,1,.149.815h2.5a4.176,4.176,0,0,0-.334-1.738,3.8,3.8,0,0,0-.968-1.338,4.5,4.5,0,0,0-1.487-.861,5.545,5.545,0,0,0-1.877-.308,5.347,5.347,0,0,0-2.245.442,4.582,4.582,0,0,0-1.61,1.2,5.14,5.14,0,0,0-.984,1.784,7.024,7.024,0,0,0-.329,2.174v.328a6.932,6.932,0,0,0,.333,2.174,5.21,5.21,0,0,0,.98,1.774,4.577,4.577,0,0,0,1.615,1.2,5.385,5.385,0,0,0,2.251.441,5.288,5.288,0,0,0,1.789-.3,4.772,4.772,0,0,0,1.482-.836,3.887,3.887,0,0,0,1.02-1.246,3.262,3.262,0,0,0,.364-1.563h-2.5a1.5,1.5,0,0,1-.164.743,1.7,1.7,0,0,1-.482.569,2.381,2.381,0,0,1-.708.369,2.63,2.63,0,0,1-.84.134,2.257,2.257,0,0,1-1.2-.293,2.148,2.148,0,0,1-.754-.773,3.158,3.158,0,0,1-.41-1.1,7.2,7.2,0,0,1-.113-1.287v-.328A6.79,6.79,0,0,1,59.106,260.778Z"/><polygon class="cls-30" points="75.3 252.005 69.209 252.005 69.209 254.19 72.624 254.19 72.624 265.581 69.209 265.581 69.209 267.755 78.571 267.755 78.571 265.581 75.3 265.581 75.3 252.005"/><path class="cls-31" d="M87.746,264.485a2.478,2.478,0,0,1-.328.512,2.011,2.011,0,0,1-.441.4,2.333,2.333,0,0,1-.691.3,3.564,3.564,0,0,1-.888.1,2.7,2.7,0,0,1-.871-.123,1.235,1.235,0,0,1-.595-.431,1.9,1.9,0,0,1-.333-.779,5.748,5.748,0,0,1-.108-1.21V256.66H80.835v6.574a7.163,7.163,0,0,0,.283,2.147,3.936,3.936,0,0,0,.794,1.472,2.932,2.932,0,0,0,1.22.851,4.5,4.5,0,0,0,1.579.267,3.452,3.452,0,0,0,1.78-.472,4.177,4.177,0,0,0,1.358-1.292L88,267.755h2.409V256.66H87.746Z"/><path class="cls-32" d="M99.67,257.676a3.728,3.728,0,0,0-1.2-.9,3.675,3.675,0,0,0-1.579-.319,4,4,0,0,0-1.835.411,3.919,3.919,0,0,0-1.374,1.159,5.393,5.393,0,0,0-.862,1.794,8.426,8.426,0,0,0-.3,2.307v.215a7.849,7.849,0,0,0,.3,2.231,5.62,5.62,0,0,0,.866,1.789,3.971,3.971,0,0,0,1.364,1.173,3.827,3.827,0,0,0,1.815.426,3.572,3.572,0,0,0,2.922-1.363l.133,1.158h2.4v-15.75H99.67Zm0,6.839a2.441,2.441,0,0,1-.82.934,2.325,2.325,0,0,1-1.3.337,2.12,2.12,0,0,1-1.1-.266,2.045,2.045,0,0,1-.728-.738,3.289,3.289,0,0,1-.426-1.1,6.725,6.725,0,0,1-.128-1.344v-.215a6.636,6.636,0,0,1,.134-1.364,3.623,3.623,0,0,1,.42-1.117,2.143,2.143,0,0,1,.743-.744,2.12,2.12,0,0,1,1.1-.272,2.279,2.279,0,0,1,1.282.339,2.451,2.451,0,0,1,.82.923Z"/><path class="cls-33" d="M114.885,263.049v-1.128a7.188,7.188,0,0,0-.328-2.221,4.815,4.815,0,0,0-.964-1.727,4.457,4.457,0,0,0-1.574-1.117,5.328,5.328,0,0,0-2.128-.4,5.261,5.261,0,0,0-2.087.415,5.108,5.108,0,0,0-1.686,1.164,5.454,5.454,0,0,0-1.123,1.81,6.474,6.474,0,0,0-.405,2.344v.41a5.5,5.5,0,0,0,.4,2.106,4.937,4.937,0,0,0,1.138,1.7,5.312,5.312,0,0,0,1.769,1.143,6.073,6.073,0,0,0,2.291.415,5.735,5.735,0,0,0,2.774-.631,4.768,4.768,0,0,0,1.707-1.42l-1.363-1.4a3.207,3.207,0,0,1-1.292.985,4.189,4.189,0,0,1-1.662.337,3.178,3.178,0,0,1-1.163-.2,3.015,3.015,0,0,1-.939-.574,2.9,2.9,0,0,1-.62-.809,4.333,4.333,0,0,1-.364-1.149v-.041Zm-7.234-2.943a2.908,2.908,0,0,1,.548-.81,2.106,2.106,0,0,1,.744-.512,2.408,2.408,0,0,1,.928-.175,2.55,2.55,0,0,1,1.02.189,2.151,2.151,0,0,1,1.21,1.267,2.513,2.513,0,0,1,.169.9v.205h-4.942A4.135,4.135,0,0,1,107.651,260.106Z"/><path class="cls-34" d="M302.12,111.927A16.582,16.582,0,1,0,318.7,128.509,16.6,16.6,0,0,0,302.12,111.927Zm12.641,16.582c0,.025,0,.049,0,.073a12.643,12.643,0,0,1-11.347,12.5,12.827,12.827,0,0,1-1.291.065c-.394,0-.782-.023-1.167-.059-.134-.012-.266-.032-.4-.048-.242-.03-.481-.066-.718-.11-.167-.03-.333-.063-.5-.1-.183-.042-.363-.09-.543-.14a12.545,12.545,0,0,1-2.338-.894l-.015-.007a12.66,12.66,0,0,1-6.255-7.139c-.016-.045-.034-.088-.049-.133-.075-.227-.141-.457-.2-.689-.042-.152-.082-.305-.119-.461-.043-.188-.084-.378-.12-.57-.041-.222-.073-.448-.1-.675-.018-.147-.041-.293-.055-.442-.036-.387-.059-.778-.059-1.175h0a12.644,12.644,0,0,1,11.351-12.577,12.8,12.8,0,0,1,1.291-.065c.4,0,.789.023,1.177.06.146.013.288.035.432.054.23.03.46.063.686.1.19.035.376.076.563.119.158.037.314.078.469.12.23.063.457.128.681.2.049.016.1.036.144.052a12.667,12.667,0,0,1,7.132,6.253l0,.011a12.575,12.575,0,0,1,.9,2.35c.048.175.1.352.136.53s.072.337.1.507c.043.233.077.469.107.706.017.137.037.272.05.41.035.383.058.77.058,1.162Z"/><path class="cls-35" d="M307.56,126.362h-3.44v-3.44a2,2,0,0,0-4,0v3.44h-3.441a2,2,0,0,0,0,4h3.441V133.8a2,2,0,0,0,4,0v-3.439h3.44a2,2,0,0,0,0-4Z"/><rect class="cls-36" x="235.129" width="66.991" height="44.771" rx="8.818"/><path class="cls-37" d="M333.865,52.463H270.374a1.75,1.75,0,0,0,0,3.5h63.491a1.75,1.75,0,0,0,0-3.5Z"/><path class="cls-38" d="M333.865,63.656H270.374a1.75,1.75,0,1,0,0,3.5h63.491a1.75,1.75,0,0,0,0-3.5Z"/><path class="cls-39" d="M333.865,74.849H270.374a1.75,1.75,0,0,0,0,3.5h63.491a1.75,1.75,0,0,0,0-3.5Z"/><path class="cls-40" d="M321.235,21.37l-6.523-6.523a1.9,1.9,0,0,0-2.694,2.694l2.939,2.939H302.119v3.81h12.839l-1.576,1.576-1.364,1.364a1.9,1.9,0,0,0,2.694,2.694l6.523-6.523A1.436,1.436,0,0,0,321.235,21.37Z"/><rect class="cls-41" y="173.716" width="22.385" height="22.385" rx="11.193"/><path class="cls-42" d="M19.367,200.865,12.831,204.4a2.238,2.238,0,0,1-3.3-1.968V187.609a2.238,2.238,0,0,1,3.28-1.981l13.891,7.31a2.238,2.238,0,0,1,.023,3.949Z"/><path class="cls-43" d="M311.552,201.468H267.4a19.1,19.1,0,0,0-19.1,19.1h0a19.1,19.1,0,0,0,19.1,19.1h44.149a19.1,19.1,0,0,0,19.1-19.1h0A19.1,19.1,0,0,0,311.552,201.468Zm-50.815,24.2a1.467,1.467,0,0,1-1.624,1.625h-.352a1.467,1.467,0,0,1-1.625-1.625v-.46a1.466,1.466,0,0,1,1.625-1.624h.352a1.465,1.465,0,0,1,1.624,1.624Zm14.213-.054a5.136,5.136,0,0,1-2.031,1.475,6.491,6.491,0,0,1-2.49.5,9.679,9.679,0,0,1-3.195-.556,5.525,5.525,0,0,1-2.653-1.962,1.513,1.513,0,0,1-.244-.975,1.307,1.307,0,0,1,.7-1.029,1.473,1.473,0,0,1,.921-.23,1.536,1.536,0,0,1,.947.5,6.359,6.359,0,0,0,1.652,1.218,4.814,4.814,0,0,0,2.165.433,7.065,7.065,0,0,0,.894-.121,1.71,1.71,0,0,0,.853-.433,1.359,1.359,0,0,0,.365-1.043,1.189,1.189,0,0,0-.406-.947,3.4,3.4,0,0,0-1.07-.6q-.663-.243-1.475-.46-.839-.245-1.719-.542a7.133,7.133,0,0,1-1.611-.771,3.718,3.718,0,0,1-1.191-1.259,3.856,3.856,0,0,1-.46-1.977,3.56,3.56,0,0,1,.758-2.3,4.943,4.943,0,0,1,1.963-1.463,6.388,6.388,0,0,1,2.531-.514,8.2,8.2,0,0,1,1.76.2,6.9,6.9,0,0,1,1.759.65,4.339,4.339,0,0,1,1.408,1.178,1.912,1.912,0,0,1,.352.974,1.163,1.163,0,0,1-.514,1.029,1.311,1.311,0,0,1-.948.284,1.431,1.431,0,0,1-.893-.365,3.208,3.208,0,0,0-1.232-.948,4.244,4.244,0,0,0-1.773-.352,4.512,4.512,0,0,0-.88.095,1.747,1.747,0,0,0-.826.406,1.48,1.48,0,0,0,.054,1.977,3.083,3.083,0,0,0,1.1.595q.69.231,1.475.447.811.217,1.652.514a6.61,6.61,0,0,1,1.543.785,3.734,3.734,0,0,1,1.137,1.259,3.987,3.987,0,0,1,.433,1.963A3.559,3.559,0,0,1,274.95,225.616Zm15.7.744a6.062,6.062,0,0,1-1.99.894,10.025,10.025,0,0,1-2.667.339,6.816,6.816,0,0,1-3.709-.989,6.606,6.606,0,0,1-2.423-2.693,8.424,8.424,0,0,1-.852-3.817,8.154,8.154,0,0,1,.906-3.913,6.736,6.736,0,0,1,2.518-2.653,7.079,7.079,0,0,1,3.7-.961,9.947,9.947,0,0,1,2.693.325,4.365,4.365,0,0,1,1.787.907,1.826,1.826,0,0,1,.636,1.394,1.757,1.757,0,0,1-.325,1.015,1.075,1.075,0,0,1-.947.474,1.811,1.811,0,0,1-.717-.122,1.841,1.841,0,0,1-.5-.311,2.918,2.918,0,0,0-.515-.352,2.476,2.476,0,0,0-.825-.257,5.483,5.483,0,0,0-.826-.095,4.369,4.369,0,0,0-2.342.595,3.968,3.968,0,0,0-1.475,1.612,5.1,5.1,0,0,0-.515,2.342,4.941,4.941,0,0,0,.528,2.314,4.13,4.13,0,0,0,1.462,1.611,3.916,3.916,0,0,0,2.152.595,7.343,7.343,0,0,0,1.164-.08,2.9,2.9,0,0,0,.813-.245,4.924,4.924,0,0,0,.676-.459,1.388,1.388,0,0,1,.894-.244,1.345,1.345,0,0,1,1.083.446,1.642,1.642,0,0,1,.379,1.1A1.548,1.548,0,0,1,290.652,226.36Zm14-.744a5.136,5.136,0,0,1-2.031,1.475,6.492,6.492,0,0,1-2.491.5,9.678,9.678,0,0,1-3.194-.556,5.525,5.525,0,0,1-2.653-1.962,1.513,1.513,0,0,1-.244-.975,1.307,1.307,0,0,1,.7-1.029,1.469,1.469,0,0,1,.921-.23,1.536,1.536,0,0,1,.947.5,6.343,6.343,0,0,0,1.652,1.218,4.814,4.814,0,0,0,2.165.433,7.065,7.065,0,0,0,.894-.121,1.7,1.7,0,0,0,.852-.433,1.355,1.355,0,0,0,.366-1.043,1.189,1.189,0,0,0-.406-.947,3.4,3.4,0,0,0-1.07-.6q-.663-.243-1.475-.46-.84-.245-1.719-.542a7.133,7.133,0,0,1-1.611-.771,3.718,3.718,0,0,1-1.191-1.259,3.856,3.856,0,0,1-.46-1.977,3.56,3.56,0,0,1,.758-2.3,4.943,4.943,0,0,1,1.963-1.463,6.388,6.388,0,0,1,2.531-.514,8.187,8.187,0,0,1,1.759.2,6.907,6.907,0,0,1,1.76.65,4.349,4.349,0,0,1,1.408,1.178,1.93,1.93,0,0,1,.352.974,1.162,1.162,0,0,1-.515,1.029,1.307,1.307,0,0,1-.947.284,1.431,1.431,0,0,1-.893-.365,3.208,3.208,0,0,0-1.232-.948,4.244,4.244,0,0,0-1.773-.352,4.512,4.512,0,0,0-.88.095,1.747,1.747,0,0,0-.826.406,1.48,1.48,0,0,0,.054,1.977,3.074,3.074,0,0,0,1.1.595q.69.231,1.475.447.812.217,1.651.514a6.6,6.6,0,0,1,1.544.785,3.734,3.734,0,0,1,1.137,1.259,3.987,3.987,0,0,1,.433,1.963A3.559,3.559,0,0,1,304.649,225.616Zm14.4,0a5.126,5.126,0,0,1-2.03,1.475,6.5,6.5,0,0,1-2.491.5,9.684,9.684,0,0,1-3.195-.556,5.525,5.525,0,0,1-2.653-1.962,1.513,1.513,0,0,1-.243-.975,1.3,1.3,0,0,1,.7-1.029,1.468,1.468,0,0,1,.92-.23,1.534,1.534,0,0,1,.947.5,6.359,6.359,0,0,0,1.652,1.218,4.819,4.819,0,0,0,2.166.433,7.076,7.076,0,0,0,.893-.121,1.71,1.71,0,0,0,.853-.433,1.355,1.355,0,0,0,.365-1.043,1.189,1.189,0,0,0-.406-.947,3.407,3.407,0,0,0-1.069-.6q-.664-.243-1.475-.46-.84-.245-1.719-.542a7.133,7.133,0,0,1-1.611-.771,3.711,3.711,0,0,1-1.192-1.259,3.856,3.856,0,0,1-.46-1.977,3.566,3.566,0,0,1,.758-2.3,4.95,4.95,0,0,1,1.963-1.463,6.4,6.4,0,0,1,2.531-.514,8.2,8.2,0,0,1,1.76.2,6.921,6.921,0,0,1,1.76.65,4.346,4.346,0,0,1,1.407,1.178,1.912,1.912,0,0,1,.352.974,1.163,1.163,0,0,1-.514,1.029,1.311,1.311,0,0,1-.948.284,1.431,1.431,0,0,1-.893-.365,3.2,3.2,0,0,0-1.232-.948,4.241,4.241,0,0,0-1.773-.352,4.52,4.52,0,0,0-.88.095,1.752,1.752,0,0,0-.826.406,1.478,1.478,0,0,0,.055,1.977,3.069,3.069,0,0,0,1.1.595q.69.231,1.475.447.813.217,1.652.514a6.61,6.61,0,0,1,1.543.785,3.734,3.734,0,0,1,1.137,1.259,3.976,3.976,0,0,1,.433,1.963A3.554,3.554,0,0,1,319.051,225.616Z"/></svg>