<svg id="Layer_1" data-name="Layer 1" xmlns="http://www.w3.org/2000/svg" xmlns:xlink="http://www.w3.org/1999/xlink" viewBox="0 0 335.78 268.624"><defs><style>.cls-1{fill:url(#linear-gradient);}.cls-2{fill:url(#linear-gradient-2);}.cls-3{fill:url(#linear-gradient-3);}.cls-4{fill:url(#linear-gradient-4);}.cls-5{fill:url(#linear-gradient-5);}.cls-6{fill:#261b2d;}.cls-7{fill:url(#linear-gradient-6);}.cls-8{fill:url(#linear-gradient-7);}.cls-9{fill:url(#linear-gradient-8);}.cls-10{fill:url(#linear-gradient-9);}.cls-11{fill:url(#linear-gradient-10);}.cls-12{fill:url(#linear-gradient-11);}.cls-13{fill:url(#linear-gradient-12);}.cls-14{fill:url(#linear-gradient-13);}.cls-15{fill:url(#linear-gradient-14);}.cls-16{fill:url(#linear-gradient-15);}</style><linearGradient id="linear-gradient" x1="302.19" y1="46.094" x2="342.197" y2="-0.111" gradientUnits="userSpaceOnUse"><stop offset="0" stop-color="#4b87aa"/><stop offset="0.997" stop-color="#9cd3e7"/></linearGradient><linearGradient id="linear-gradient-2" x1="292.683" y1="37.862" x2="332.69" y2="-8.343" xlink:href="#linear-gradient"/><linearGradient id="linear-gradient-3" x1="297.067" y1="41.658" x2="337.073" y2="-4.547" xlink:href="#linear-gradient"/><linearGradient id="linear-gradient-4" x1="163.957" y1="148.565" x2="66.654" y2="248.73" gradientUnits="userSpaceOnUse"><stop offset="0" stop-color="#b46964"/><stop offset="0.927" stop-color="#eb9590"/></linearGradient><linearGradient id="linear-gradient-5" x1="173.776" y1="249.818" x2="174.431" y2="219.37" gradientUnits="userSpaceOnUse"><stop offset="0" stop-color="#261b2d"/><stop offset="1" stop-color="#6c6173"/></linearGradient><linearGradient id="linear-gradient-6" x1="135.7" y1="240.223" x2="208.485" y2="40.714" xlink:href="#linear-gradient-5"/><linearGradient id="linear-gradient-7" x1="128.454" y1="114.021" x2="156.735" y2="87.605" gradientTransform="translate(112.724 -72.175) rotate(45)" xlink:href="#linear-gradient"/><linearGradient id="linear-gradient-8" x1="159.057" y1="113.793" x2="186.877" y2="87.807" gradientTransform="translate(121.615 -93.641) rotate(45)" gradientUnits="userSpaceOnUse"><stop offset="0" stop-color="#5a965f"/><stop offset="0.496" stop-color="#73b075"/><stop offset="1" stop-color="#8cca8b"/></linearGradient><linearGradient id="linear-gradient-9" x1="186.91" y1="113.981" x2="212.727" y2="87.852" gradientTransform="translate(129.494 -112.662) rotate(45)" xlink:href="#linear-gradient-4"/><linearGradient id="linear-gradient-10" x1="154.043" y1="207.249" x2="189.824" y2="109.17" xlink:href="#linear-gradient-5"/><linearGradient id="linear-gradient-11" x1="-43.513" y1="76.341" x2="163.239" y2="-0.283" gradientTransform="matrix(1, 0, 0, 1, 0, 0)" xlink:href="#linear-gradient-8"/><linearGradient id="linear-gradient-12" x1="-55.153" y1="44.933" x2="151.599" y2="-31.691" gradientTransform="matrix(1, 0, 0, 1, 0, 0)" xlink:href="#linear-gradient-8"/><linearGradient id="linear-gradient-13" x1="-47.743" y1="64.928" x2="159.009" y2="-11.696" gradientTransform="matrix(1, 0, 0, 1, 0, 0)" xlink:href="#linear-gradient-8"/><linearGradient id="linear-gradient-14" x1="-52.281" y1="52.681" x2="154.47" y2="-23.942" gradientTransform="matrix(1, 0, 0, 1, 0, 0)" xlink:href="#linear-gradient-8"/><linearGradient id="linear-gradient-15" x1="-57.67" y1="38.142" x2="149.082" y2="-38.482" gradientTransform="matrix(1, 0, 0, 1, 0, 0)" xlink:href="#linear-gradient-8"/></defs><title>skillset-icons</title><path class="cls-1" d="M327.7,16.505a3.674,3.674,0,0,0-1.639-.378,5.283,5.283,0,0,0-1.568.224,3,3,0,0,0-1.261.756,3.662,3.662,0,0,0-.84,1.429,4.758,4.758,0,0,0-.165.644h7.336v-.2a2.566,2.566,0,0,0-.574-1.457A3.766,3.766,0,0,0,327.7,16.505Z"/><polygon class="cls-2" points="306.193 20.693 311.794 20.693 308.981 14.137 306.193 20.693"/><path class="cls-3" d="M329.137.093h-25.2a6.479,6.479,0,0,0-6.479,6.479v25.2a6.479,6.479,0,0,0,6.479,6.479h25.2a6.478,6.478,0,0,0,6.478-6.479V6.572A6.478,6.478,0,0,0,329.137.093ZM317.251,28a1.566,1.566,0,0,1-1.079.448,1.469,1.469,0,0,1-.91-.308,2,2,0,0,1-.631-.84l-1.454-3.39h-8.353l-1.454,3.417a1.713,1.713,0,0,1-.6.827,1.474,1.474,0,0,1-.882.294,1.406,1.406,0,0,1-1.121-.42A1.531,1.531,0,0,1,300.4,27a1.855,1.855,0,0,1,.084-.533L307.46,9.712a1.826,1.826,0,0,1,.687-.868,1.465,1.465,0,0,1,.994-.253,1.645,1.645,0,0,1,.939.294,1.663,1.663,0,0,1,.63.827L317.6,26.127a1.894,1.894,0,0,1,.14.672A1.555,1.555,0,0,1,317.251,28Zm15.364-6.443a1.781,1.781,0,0,1-1.176.42H322.2a4.3,4.3,0,0,0,4.251,3.53,6.516,6.516,0,0,0,1.653-.168,3.718,3.718,0,0,0,1-.407c.252-.158.48-.294.686-.406a2.135,2.135,0,0,1,.952-.252,1.41,1.41,0,0,1,1.429,1.4,1.748,1.748,0,0,1-.784,1.372,6.485,6.485,0,0,1-2.045,1.079,8.727,8.727,0,0,1-6.849-.532,6.858,6.858,0,0,1-2.689-2.7,7.882,7.882,0,0,1-.939-3.866,8.491,8.491,0,0,1,1.023-4.3A7.224,7.224,0,0,1,322.559,14a6.9,6.9,0,0,1,3.5-.953,6.361,6.361,0,0,1,2.7.589,7.4,7.4,0,0,1,2.256,1.61,7.852,7.852,0,0,1,1.554,2.367,7.2,7.2,0,0,1,.575,2.858A1.44,1.44,0,0,1,332.615,21.561Z"/><path class="cls-4" d="M52.634,223.87c-9.571,0-14.087-4.517-14.087-10.088V77.743H26.365A10.087,10.087,0,0,0,16.277,87.831V236.052a10.087,10.087,0,0,0,10.088,10.087h249.2a10.087,10.087,0,0,0,10.088-10.087V223.87Z"/><path class="cls-5" d="M203.468,223.87h-67.39c0,19.413-18.151,20.635-18.151,20.635H229.853S203.468,242.4,203.468,223.87Z"/><path class="cls-6" d="M239.3,244.505H108.484a1.75,1.75,0,1,0,0,3.5H239.3a1.75,1.75,0,0,0,0-3.5Z"/><path class="cls-7" d="M297.831,50.754H48.634A10.088,10.088,0,0,0,38.547,60.842v152.94c0,5.571,4.516,10.088,12.087,10.088h249.2c3.571,0,8.088-4.517,8.088-10.088V60.842A10.089,10.089,0,0,0,297.831,50.754ZM173.89,214.05A7.106,7.106,0,1,1,181,206.944,7.106,7.106,0,0,1,173.89,214.05Zm127.886-23.457H44.683V61.125a4.9,4.9,0,0,1,4.9-4.9h246.61a5.584,5.584,0,0,1,5.583,5.584Z"/><rect class="cls-8" x="127.68" y="84.178" width="31.608" height="31.608" rx="3.19" transform="translate(-28.673 130.743) rotate(-45)"/><rect class="cls-9" x="158.038" y="84.178" width="31.608" height="31.608" rx="11.091" transform="translate(-19.781 152.209) rotate(-45)"/><rect class="cls-10" x="184.938" y="84.178" width="31.608" height="31.608" rx="14.478" transform="translate(-11.902 171.23) rotate(-45)"/><path class="cls-11" d="M55.77,134.3v41.972a4.1,4.1,0,0,0,4.1,4.1h226a4.1,4.1,0,0,0,4.1-4.1V134.3Zm177.607,12.053h30.581a1.75,1.75,0,0,1,0,3.5H233.377a1.75,1.75,0,0,1,0-3.5Zm-45.15,0h33.724a1.75,1.75,0,0,1,0,3.5H188.227a1.75,1.75,0,0,1,0-3.5Zm-82.339,0h69.2a1.75,1.75,0,0,1,0,3.5h-69.2a1.75,1.75,0,0,1,0-3.5Zm-36.539-.063h8.125a1.75,1.75,0,0,1,0,3.5H69.349a1.75,1.75,0,1,1,0-3.5ZM67.6,157.148a1.752,1.752,0,0,1,1.75-1.75h67.273a1.75,1.75,0,0,1,0,3.5H69.349A1.752,1.752,0,0,1,67.6,157.148Zm42.578,10.983H75.252a1.75,1.75,0,1,1,0-3.5h34.925a1.75,1.75,0,0,1,0,3.5Zm46.394,0H123.723a1.75,1.75,0,1,1,0-3.5h32.848a1.75,1.75,0,0,1,0,3.5Zm10.319-10.983a1.752,1.752,0,0,1,1.75-1.75h69.2a1.75,1.75,0,0,1,0,3.5h-69.2A1.752,1.752,0,0,1,166.89,157.148Zm101.492,10.983H202.328a1.75,1.75,0,0,1,0-3.5h66.054a1.75,1.75,0,0,1,0,3.5Zm5.543-9.233H251.762a1.75,1.75,0,0,1,0-3.5h22.163a1.75,1.75,0,0,1,0,3.5Z"/><path class="cls-12" d="M135.721,12.493l-3.5-5.4A2.771,2.771,0,0,0,129.9,5.827h-7.1v2.3a1.524,1.524,0,0,0,.894,1.5,3.814,3.814,0,0,1,2.372,3.769,3.814,3.814,0,0,1-2.371,3.769,1.523,1.523,0,0,0-.895,1.5v2.1h7.1a2.773,2.773,0,0,0,2.322-1.259l3.5-5.371A1.508,1.508,0,0,0,135.721,12.493Z"/><path class="cls-13" d="M39.035,11.482h-17.3a1.75,1.75,0,0,0,0,3.5h17.3a1.75,1.75,0,0,0,0-3.5Z"/><path class="cls-14" d="M114.3,11.482H69.19a1.75,1.75,0,0,0,0,3.5H114.3a1.75,1.75,0,0,0,0-3.5Z"/><path class="cls-15" d="M46.758,8.1c0,.736.814,1.361,1.5,1.614a3.847,3.847,0,0,1,0,7.228c-.691.252-1.5.877-1.5,1.614v2.079H61.567V18.612c0-.743-.817-1.388-1.523-1.618a3.854,3.854,0,0,1,0-7.329c.706-.229,1.523-.875,1.523-1.617V5.827H46.758Z"/><path class="cls-16" d="M8.435,5.827H6.065A2.771,2.771,0,0,0,3.743,7.086l-3.5,5.371a1.506,1.506,0,0,0,0,1.644l3.5,5.4a2.77,2.77,0,0,0,2.325,1.264h7.1V18.472a1.523,1.523,0,0,0-.9-1.5A3.815,3.815,0,0,1,9.9,13.2,3.815,3.815,0,0,1,12.274,9.43a1.523,1.523,0,0,0,.9-1.5v-2.1H8.435Z"/></svg>