<svg id="Layer_1" data-name="Layer 1" xmlns="http://www.w3.org/2000/svg" xmlns:xlink="http://www.w3.org/1999/xlink" viewBox="0 0 335.78 268.624"><defs><style>.cls-1{fill:url(#linear-gradient);}.cls-2{fill:url(#linear-gradient-2);}.cls-3{fill:url(#linear-gradient-3);}.cls-4{fill:url(#linear-gradient-4);}.cls-5{fill:url(#linear-gradient-5);}.cls-6{fill:url(#linear-gradient-6);}.cls-7{fill:url(#linear-gradient-7);}.cls-8{fill:url(#linear-gradient-8);}.cls-9{fill:url(#linear-gradient-9);}.cls-10{fill:#bbbdbf;}.cls-11{fill:url(#linear-gradient-10);}.cls-12{fill:url(#linear-gradient-11);}.cls-13{fill:url(#linear-gradient-12);}.cls-14{fill:url(#linear-gradient-13);}.cls-15{fill:url(#linear-gradient-14);}.cls-16{fill:url(#linear-gradient-15);}.cls-17{fill:url(#linear-gradient-16);}.cls-18{fill:#e6e7e8;}.cls-19{fill:url(#linear-gradient-17);}.cls-20{fill:url(#linear-gradient-18);}</style><linearGradient id="linear-gradient" x1="-2.508" y1="39.202" x2="25.913" y2="6.409" gradientUnits="userSpaceOnUse"><stop offset="0" stop-color="#5a965f"/><stop offset="1" stop-color="#8cca8b"/></linearGradient><linearGradient id="linear-gradient-2" x1="11.617" y1="51.444" x2="40.037" y2="18.651" xlink:href="#linear-gradient"/><linearGradient id="linear-gradient-3" x1="6.276" y1="46.815" x2="34.697" y2="14.022" xlink:href="#linear-gradient"/><linearGradient id="linear-gradient-4" x1="20.375" y1="59.034" x2="48.796" y2="26.241" xlink:href="#linear-gradient"/><linearGradient id="linear-gradient-5" x1="296.885" y1="44.446" x2="340.481" y2="-15.004" gradientUnits="userSpaceOnUse"><stop offset="0" stop-color="#4b87aa"/><stop offset="0.997" stop-color="#9cd3e7"/></linearGradient><linearGradient id="linear-gradient-6" x1="289.398" y1="38.956" x2="332.994" y2="-20.494" xlink:href="#linear-gradient-5"/><linearGradient id="linear-gradient-7" x1="154.796" y1="144.493" x2="45.908" y2="221.187" gradientUnits="userSpaceOnUse"><stop offset="0" stop-color="#b46964"/><stop offset="0.927" stop-color="#eb9590"/></linearGradient><linearGradient id="linear-gradient-8" x1="179.078" y1="97.479" x2="199.335" y2="68.415" xlink:href="#linear-gradient-7"/><linearGradient id="linear-gradient-9" x1="70.395" y1="232.71" x2="249.093" y2="41.565" gradientUnits="userSpaceOnUse"><stop offset="0" stop-color="#261b2d"/><stop offset="1" stop-color="#6c6173"/></linearGradient><linearGradient id="linear-gradient-10" x1="282.559" y1="262.01" x2="318.79" y2="214.551" xlink:href="#linear-gradient-9"/><linearGradient id="linear-gradient-11" x1="273.814" y1="255.333" x2="310.045" y2="207.875" xlink:href="#linear-gradient-9"/><linearGradient id="linear-gradient-12" x1="290.843" y1="268.334" x2="327.074" y2="220.876" xlink:href="#linear-gradient-9"/><linearGradient id="linear-gradient-13" x1="280.494" y1="260.433" x2="316.725" y2="212.975" xlink:href="#linear-gradient-9"/><linearGradient id="linear-gradient-14" x1="0.25" y1="145.404" x2="13.901" y2="129.771" gradientTransform="translate(22.385 265.745) rotate(180)" gradientUnits="userSpaceOnUse"><stop offset="0" stop-color="#5a965f"/><stop offset="0.496" stop-color="#73b075"/><stop offset="1" stop-color="#8cca8b"/></linearGradient><linearGradient id="linear-gradient-15" x1="-1.245" y1="125.115" x2="15.049" y2="106.399" gradientTransform="translate(22.385 221.657) rotate(180)" gradientUnits="userSpaceOnUse"><stop offset="0" stop-color="#b46964"/><stop offset="1" stop-color="#eb9590"/></linearGradient><linearGradient id="linear-gradient-16" x1="1.81" y1="167.699" x2="16.342" y2="148.984" gradientTransform="translate(22.385 311.231) rotate(180)" xlink:href="#linear-gradient-5"/><linearGradient id="linear-gradient-17" x1="117.999" y1="38.241" x2="147.944" y2="3.012" xlink:href="#linear-gradient-9"/><linearGradient id="linear-gradient-18" x1="292.133" y1="157.003" x2="323.674" y2="123.15" xlink:href="#linear-gradient-7"/></defs><title>skillset-icons</title><path class="cls-1" d="M10.182,21.066a2,2,0,0,0,2,2h2.97v-4h-2.97A2,2,0,0,0,10.182,21.066Z"/><path class="cls-2" d="M21.683,19.066v4h10.8V42.771a2,2,0,0,0,4,0v-23.7h-14.8Z"/><path class="cls-3" d="M20.481,14.771a2,2,0,0,0-2-2h0a2,2,0,0,0-2,2v24.3H31.2v-4H20.481Z"/><path class="cls-4" d="M40.181,35.066H37.735v4h2.446a2,2,0,0,0,0-4Z"/><path class="cls-5" d="M326.891.067H299.233a8.49,8.49,0,0,0-8.49,8.489V36.214a8.491,8.491,0,0,0,8.49,8.49h27.658a8.49,8.49,0,0,0,8.49-8.49V8.556A8.49,8.49,0,0,0,326.891.067ZM312.947,22.42a8.011,8.011,0,0,1-2.573,2.853,6.014,6.014,0,0,1-3.412,1.067h-6.091v6.615a2.173,2.173,0,0,1-.56,1.523,1.9,1.9,0,0,1-1.47.613,1.859,1.859,0,0,1-1.435-.613,2.173,2.173,0,0,1-.56-1.523V12.725a2.094,2.094,0,0,1,2.135-2.136h7.981a6.087,6.087,0,0,1,3.412,1.05,7.857,7.857,0,0,1,2.573,2.836,8.153,8.153,0,0,1,.98,3.99A8.084,8.084,0,0,1,312.947,22.42Zm16.146,10.465a6.642,6.642,0,0,1-2.625,1.908,8.411,8.411,0,0,1-3.22.647,12.523,12.523,0,0,1-4.131-.717,7.142,7.142,0,0,1-3.43-2.538,1.959,1.959,0,0,1-.315-1.26,1.689,1.689,0,0,1,.911-1.33,1.894,1.894,0,0,1,1.189-.3,1.989,1.989,0,0,1,1.225.647,8.246,8.246,0,0,0,2.136,1.575,6.223,6.223,0,0,0,2.8.56,9.247,9.247,0,0,0,1.155-.157,2.205,2.205,0,0,0,1.1-.56,1.754,1.754,0,0,0,.473-1.348,1.54,1.54,0,0,0-.525-1.225,4.427,4.427,0,0,0-1.383-.77q-.858-.315-1.907-.595-1.086-.315-2.223-.7a9.246,9.246,0,0,1-2.082-1A4.786,4.786,0,0,1,316.7,24.1a4.983,4.983,0,0,1-.595-2.555,4.614,4.614,0,0,1,.98-2.975,6.4,6.4,0,0,1,2.538-1.89,8.253,8.253,0,0,1,3.273-.665,10.57,10.57,0,0,1,2.275.262,8.916,8.916,0,0,1,2.275.84,5.627,5.627,0,0,1,1.82,1.523,2.484,2.484,0,0,1,.455,1.26,1.5,1.5,0,0,1-.665,1.33,1.7,1.7,0,0,1-1.225.368,1.85,1.85,0,0,1-1.155-.473,4.139,4.139,0,0,0-1.593-1.225,5.474,5.474,0,0,0-2.292-.455,5.875,5.875,0,0,0-1.138.122,2.25,2.25,0,0,0-1.067.525,1.623,1.623,0,0,0-.455,1.278,1.632,1.632,0,0,0,.525,1.278,3.965,3.965,0,0,0,1.417.77q.893.3,1.907.577,1.051.28,2.136.665a8.476,8.476,0,0,1,2,1.015,4.81,4.81,0,0,1,1.47,1.628,5.142,5.142,0,0,1,.56,2.537A4.6,4.6,0,0,1,329.093,32.885Z"/><path class="cls-6" d="M308.257,15.157a1.98,1.98,0,0,0-1.3-.543h-6.091V22.35h6.091a1.941,1.941,0,0,0,1.3-.56,4.438,4.438,0,0,0,1.05-1.453,4.422,4.422,0,0,0,0-3.762A4.292,4.292,0,0,0,308.257,15.157Z"/><path class="cls-7" d="M78.35,213.5a12.72,12.72,0,0,1-12.7-12.706V67.027H56.8a12.719,12.719,0,0,0-12.7,12.7V222.34a12.72,12.72,0,0,0,12.7,12.706H234.21a12.72,12.72,0,0,0,12.7-12.706V213.5Z"/><path class="cls-8" d="M190.229,66.85a14.63,14.63,0,1,0,14.63,14.629A14.629,14.629,0,0,0,190.229,66.85Z"/><path class="cls-9" d="M255.932,44.771H78.522a12.72,12.72,0,0,0-12.705,12.7V200.79A12.72,12.72,0,0,0,78.522,213.5h177.41a12.72,12.72,0,0,0,12.705-12.706V57.476A12.719,12.719,0,0,0,255.932,44.771ZM154.324,146.115a2.465,2.465,0,0,1-2.471,1.969H108.59A7.574,7.574,0,0,1,101.5,153h0a7.579,7.579,0,0,1-7.546-6.889,2.466,2.466,0,0,1-.026-.519c0-.058-.008-.114-.008-.172a7.58,7.58,0,0,1,7.58-7.58h0a7.577,7.577,0,0,1,7.286,5.509h43.2A2.373,2.373,0,0,1,154.324,146.115Zm0,16.16a2.465,2.465,0,0,1-2.471,1.97H131.337a7.576,7.576,0,0,1-14.394,0H95.168c-2.4-2.077-.943-4.741,1.125-4.741h20.65a7.576,7.576,0,0,1,14.394,0h20.65A2.373,2.373,0,0,1,154.324,162.275Zm-7.34,23.34a7.579,7.579,0,0,1-7.2-5.21H95.168c-2.4-2.076-.943-4.741,1.125-4.741h43.494a7.579,7.579,0,1,1,7.2,9.951Zm54.86-5.745h0a7.1,7.1,0,0,1-.329.666c-.071.128-.15.245-.227.365-.053.082-.1.168-.158.248-.071.1-.149.194-.224.29s-.152.2-.233.291c-.039.046-.082.087-.123.131a7.111,7.111,0,0,1-2.758,1.857c-5.263,2.136-12.981-.212-12.981-.212l3.977-9.249a7.106,7.106,0,1,1,13.056,5.613Zm33.039-32.288L210.572,170.84a5.563,5.563,0,0,1-7.692-8.04l24.311-23.258a5.563,5.563,0,0,1,7.692,8.04Zm28.336-4.738L228,109.229a6.3,6.3,0,0,0-7.783-.624L183.3,136.167,130.323,80.194a6.3,6.3,0,0,0-9.115.214L71.235,136.844V57.476a7.287,7.287,0,0,1,7.287-7.287h177.41a7.286,7.286,0,0,1,7.287,7.287Z"/><path class="cls-10" d="M22.717,257.314l21.967-.033-5.571-5.571a.86.86,0,0,0-.6-.251l-10.1-.056-.057-10.1a.855.855,0,0,0-.25-.6l-5.543-5.543L22.506,257.1A.2.2,0,0,0,22.717,257.314Z"/><path class="cls-11" d="M303.548,230.469l-2.721,2.867h0l-16.651,17.422a4.024,4.024,0,1,0,5.838,5.539l16.652-17.421h0l2.721-2.868a4.023,4.023,0,1,0-5.837-5.538Zm4.272,4.054-3.628,3.751-2.708-2.57,3.628-3.751a1.867,1.867,0,0,1,2.708,2.57Z"/><path class="cls-12" d="M294.81,225.412h1.425v1.425a1.784,1.784,0,0,0,3.568,0v-1.425h1.424a1.784,1.784,0,1,0,0-3.568H299.8V220.42a1.784,1.784,0,1,0-3.568,0v1.424H294.81a1.784,1.784,0,1,0,0,3.568Z"/><path class="cls-13" d="M321.713,231.373l1.058-1.059a1.875,1.875,0,1,0-2.652-2.652l-1.058,1.058L318,227.662a1.875,1.875,0,0,0-2.651,2.652l1.058,1.059-1.058,1.058A1.875,1.875,0,0,0,318,235.083l1.059-1.059,1.058,1.059a1.875,1.875,0,1,0,2.652-2.652Z"/><path class="cls-14" d="M311.785,216.771a2.676,2.676,0,1,0,2.675,2.675A2.676,2.676,0,0,0,311.785,216.771Z"/><rect class="cls-15" x="4.087" y="125.767" width="14.212" height="14.212" rx="7.106" transform="translate(22.385 265.745) rotate(-180)"/><rect class="cls-16" x="4.087" y="103.723" width="14.212" height="14.212" rx="7.106" transform="translate(22.385 221.657) rotate(-180)"/><rect class="cls-17" x="4.087" y="148.51" width="14.212" height="14.212" rx="7.106" transform="translate(22.385 311.231) rotate(-180)"/><rect class="cls-18" x="4.087" y="171.471" width="14.212" height="14.212" rx="7.106" transform="translate(22.385 357.154) rotate(180)"/><path class="cls-19" d="M149.328,22.427l-4.845-4.845a11.191,11.191,0,1,0-2.828,2.828l4.845,4.845a2,2,0,0,0,2.828-2.828ZM128.14,11.234a7.167,7.167,0,1,1,7.167,7.167A7.175,7.175,0,0,1,128.14,11.234Z"/><path class="cls-20" d="M317.209,125.285H298.282a5.5,5.5,0,0,0-5.5,5.5v18.926a5.5,5.5,0,0,0,5.5,5.5h18.927a5.5,5.5,0,0,0,5.5-5.5V130.783A5.5,5.5,0,0,0,317.209,125.285Zm-9.463,21.583a6.622,6.622,0,1,1,6.622-6.622A6.622,6.622,0,0,1,307.746,146.868Z"/></svg>