<svg id="Layer_1" data-name="Layer 1" xmlns="http://www.w3.org/2000/svg" xmlns:xlink="http://www.w3.org/1999/xlink" viewBox="0 0 335.78 268.624"><defs><style>.cls-1{fill:url(#linear-gradient);}.cls-2{fill:url(#linear-gradient-2);}.cls-3{fill:#e6e7e8;}.cls-4{fill:url(#linear-gradient-3);}.cls-5{fill:url(#linear-gradient-4);}.cls-6{fill:#bbbdbf;}.cls-7{fill:url(#linear-gradient-5);}.cls-8{fill:url(#linear-gradient-6);}.cls-9{fill:url(#linear-gradient-7);}.cls-10{fill:url(#linear-gradient-8);}.cls-11{fill:url(#linear-gradient-9);}.cls-12{fill:url(#linear-gradient-10);}.cls-13{fill:url(#linear-gradient-11);}.cls-14{fill:url(#linear-gradient-12);}.cls-15{fill:url(#linear-gradient-13);}.cls-16{fill:url(#linear-gradient-14);}.cls-17{fill:url(#linear-gradient-15);}</style><linearGradient id="linear-gradient" x1="0.777" y1="93.992" x2="18.949" y2="72.465" gradientUnits="userSpaceOnUse"><stop offset="0" stop-color="#5a965f"/><stop offset="0.496" stop-color="#73b075"/><stop offset="1" stop-color="#8cca8b"/></linearGradient><linearGradient id="linear-gradient-2" x1="9.07" y1="115.393" x2="24.447" y2="100.296" gradientUnits="userSpaceOnUse"><stop offset="0" stop-color="#4b87aa"/><stop offset="0.997" stop-color="#9cd3e7"/></linearGradient><linearGradient id="linear-gradient-3" x1="34.886" y1="34.287" x2="84.339" y2="7.659" gradientUnits="userSpaceOnUse"><stop offset="0" stop-color="#261b2d"/><stop offset="1" stop-color="#6c6173"/></linearGradient><linearGradient id="linear-gradient-4" x1="17.175" y1="62.038" x2="33.391" y2="43.866" gradientUnits="userSpaceOnUse"><stop offset="0" stop-color="#b46964"/><stop offset="1" stop-color="#eb9590"/></linearGradient><linearGradient id="linear-gradient-5" x1="0.493" y1="267.105" x2="31.237" y2="206.624" xlink:href="#linear-gradient-3"/><linearGradient id="linear-gradient-6" x1="260.685" y1="175.594" x2="300.774" y2="99.789" xlink:href="#linear-gradient-4"/><linearGradient id="linear-gradient-7" x1="260.473" y1="226.41" x2="369.761" y2="11.226" xlink:href="#linear-gradient-3"/><linearGradient id="linear-gradient-8" x1="260.473" y1="237.603" x2="369.761" y2="22.419" xlink:href="#linear-gradient-3"/><linearGradient id="linear-gradient-9" x1="260.473" y1="248.795" x2="369.761" y2="33.612" xlink:href="#linear-gradient-3"/><linearGradient id="linear-gradient-10" x1="298.51" y1="231.452" x2="334.562" y2="192.862" xlink:href="#linear-gradient"/><linearGradient id="linear-gradient-11" x1="293.93" y1="227.174" x2="329.982" y2="188.583" xlink:href="#linear-gradient"/><linearGradient id="linear-gradient-12" x1="296.674" y1="229.737" x2="332.726" y2="191.147" xlink:href="#linear-gradient"/><linearGradient id="linear-gradient-13" x1="275.171" y1="40.917" x2="310.027" y2="0.87" xlink:href="#linear-gradient-2"/><linearGradient id="linear-gradient-14" x1="94.485" y1="195.906" x2="250.448" y2="50.752" xlink:href="#linear-gradient-3"/><linearGradient id="linear-gradient-15" x1="161.629" y1="136.389" x2="77.614" y2="200.306" xlink:href="#linear-gradient-4"/></defs><title>skillset-icons</title><rect class="cls-1" x="7.327" y="70.709" width="14.212" height="14.212" rx="7.106"/><rect class="cls-2" x="13.432" y="97.027" width="14.212" height="14.212" rx="7.106"/><rect class="cls-3" x="0.221" y="118.345" width="14.212" height="14.212" rx="7.106"/><path class="cls-4" d="M77.508,15.853,75.756,14.1a1.131,1.131,0,0,1,0-1.6l4.582-4.582a3.61,3.61,0,0,0-5.106-5.105L70.65,7.394a1.132,1.132,0,0,1-1.6,0L67.3,5.641a3.612,3.612,0,0,0-5.106,0h0a3.61,3.61,0,0,0,0,5.106l.668.668L47.422,26.852a7.7,7.7,0,0,0-1.962,3.285,12.2,12.2,0,0,1-1.971,2.63l-.686.686-1.142,1.959c-.26.446-2.481,4.421-.415,6.486s6.054-.161,6.5-.424l1.991-1.169.644-.644a12.182,12.182,0,0,1,2.627-1.97A7.715,7.715,0,0,0,56.3,35.727L71.734,20.291l.668.668a3.61,3.61,0,0,0,5.106,0h0A3.61,3.61,0,0,0,77.508,15.853ZM53.961,33.391a4.9,4.9,0,0,1-2.081,1.253,13.417,13.417,0,0,0-3.835,2.68l-.394.394-1.685.989a7.11,7.11,0,0,1-2.419.891,7.21,7.21,0,0,1,.885-2.414l.961-1.647.432-.433a13.369,13.369,0,0,0,2.681-3.835,4.874,4.874,0,0,1,1.253-2.08L65.195,13.752l4.2,4.2Z"/><path class="cls-5" d="M35.75,45.392H25.682a7.106,7.106,0,1,0,0,14.212h0a6.993,6.993,0,0,0,.742-.04c.145-.014.284-.041.425-.064.1-.016.2-.027.29-.047.121-.026.238-.06.356-.092s.241-.061.359-.1c.057-.019.112-.042.169-.062a7.11,7.11,0,0,0,2.8-1.8C34.859,53.409,35.75,45.392,35.75,45.392Z"/><path class="cls-6" d="M134.269,246.422a1.752,1.752,0,0,0-1.75,1.75v18.519a1.75,1.75,0,0,0,3.5,0V248.172A1.752,1.752,0,0,0,134.269,246.422Z"/><path class="cls-6" d="M156.654,246.422a1.752,1.752,0,0,0-1.75,1.75v18.519a1.75,1.75,0,0,0,3.5,0V248.172A1.752,1.752,0,0,0,156.654,246.422Z"/><path class="cls-6" d="M167.847,246.422a1.752,1.752,0,0,0-1.75,1.75v18.519a1.75,1.75,0,0,0,3.5,0V248.172A1.752,1.752,0,0,0,167.847,246.422Z"/><path class="cls-6" d="M190.232,246.422a1.752,1.752,0,0,0-1.75,1.75v18.519a1.75,1.75,0,0,0,3.5,0V248.172A1.752,1.752,0,0,0,190.232,246.422Z"/><path class="cls-6" d="M201.646,246.422a1.752,1.752,0,0,0-1.75,1.75v18.519a1.75,1.75,0,0,0,3.5,0V248.172A1.752,1.752,0,0,0,201.646,246.422Z"/><path class="cls-6" d="M224.031,246.422a1.752,1.752,0,0,0-1.75,1.75v18.519a1.75,1.75,0,0,0,3.5,0V248.172A1.752,1.752,0,0,0,224.031,246.422Z"/><path class="cls-6" d="M234.907,246.422a1.752,1.752,0,0,0-1.75,1.75v18.519a1.75,1.75,0,0,0,3.5,0V248.172A1.752,1.752,0,0,0,234.907,246.422Z"/><path class="cls-6" d="M257.292,246.422a1.752,1.752,0,0,0-1.75,1.75v18.519a1.75,1.75,0,0,0,3.5,0V248.172A1.752,1.752,0,0,0,257.292,246.422Z"/><path class="cls-7" d="M24.878,198.64a21.208,21.208,0,0,1,5.439.55,12.33,12.33,0,0,1,3.351,1.428,4.9,4.9,0,0,1,1.594,1.539,4.145,4.145,0,0,1-.66,5.273,5.676,5.676,0,0,1-3.845,1.154,5.809,5.809,0,0,1-3.791-1.126,3.733,3.733,0,0,1-1.373-3.049q0-3.021,3.625-4.065a4.775,4.775,0,0,0-1.51-.522,10.515,10.515,0,0,0-2.06-.193,7.79,7.79,0,0,0-4.258,1.1,8.165,8.165,0,0,0-2.774,2.967,10.786,10.786,0,0,0-1.127,3.46,38.925,38.925,0,0,0-.357,6.1H23.67q2.856,0,4.889-.054t3.654-.193q1.619-.137,3.213-.412v23.843a31.306,31.306,0,0,1-.741,7.389,11.256,11.256,0,0,1-2.775,5.136,8.649,8.649,0,0,1-3.351,2.17,16.1,16.1,0,0,1-5.6.8,13.91,13.91,0,0,1-2.583-.22,18.333,18.333,0,0,1-1.867-.439,4.65,4.65,0,0,1-1.868-1.292,2.726,2.726,0,0,1-.659-1.785,3.237,3.237,0,0,1,1.126-2.39,4.65,4.65,0,0,1,3.324-1.071,5.471,5.471,0,0,1,3.131.852,2.625,2.625,0,0,1,1.264,2.28,2.567,2.567,0,0,1-.687,1.757A4.624,4.624,0,0,1,22.3,250.83a9.615,9.615,0,0,0,1.044-.055,4.115,4.115,0,0,0,.824-.165,2.886,2.886,0,0,0,1.7-.714,4.169,4.169,0,0,0,1.044-1.593,6.337,6.337,0,0,0,.44-2.06q.11-1.347.137-2.939t.027-2.912v-21.2a6.449,6.449,0,0,0-.824-3.653,3.437,3.437,0,0,0-3.021-1.182H17.132v21.92q0,2.472,1.292,3.324a6.372,6.372,0,0,0,3.543.851V241.6q-1.318-.055-3.708-.138t-4.972-.082q-2.363,0-4.56.082t-3.351.138v-1.154a4.292,4.292,0,0,0,2.967-.824,4.268,4.268,0,0,0,.879-3.131v-22.14H5.156v-1.1H9.222a16.373,16.373,0,0,1,1.1-6.18,13.406,13.406,0,0,1,3.242-4.752,12.943,12.943,0,0,1,4.971-2.747A21.208,21.208,0,0,1,24.878,198.64Z"/><path class="cls-8" d="M294.49,107.073l1.364,1.364a1.9,1.9,0,1,0,2.694-2.694l-6.523-6.523a1.436,1.436,0,0,0-2.031,0l-6.523,6.523a1.9,1.9,0,1,0,2.694,2.694L289.1,105.5v25.51l-1.575-1.575-1.364-1.364a1.9,1.9,0,1,0-2.694,2.694l6.523,6.523a1.436,1.436,0,0,0,2.031,0l6.523-6.523a1.905,1.905,0,1,0-2.695-2.694l-2.939,2.938V105.5Z"/><path class="cls-9" d="M334.03,105.125H308.335a1.75,1.75,0,0,0,0,3.5H334.03a1.75,1.75,0,0,0,0-3.5Z"/><path class="cls-10" d="M334.03,116.318H308.335a1.75,1.75,0,0,0,0,3.5H334.03a1.75,1.75,0,0,0,0-3.5Z"/><path class="cls-11" d="M334.03,127.511H308.335a1.75,1.75,0,0,0,0,3.5H334.03a1.75,1.75,0,0,0,0-3.5Z"/><path class="cls-12" d="M318.385,210.763a7.1,7.1,0,0,0-1.375-.15h-5.17v5.768h5.379a3.124,3.124,0,0,0,2.182-.732,2.818,2.818,0,0,0,.807-2.2,2.864,2.864,0,0,0-.538-1.942A2.31,2.31,0,0,0,318.385,210.763Z"/><path class="cls-13" d="M318.415,206.52a2.012,2.012,0,0,0,.687-1.644,2.146,2.146,0,0,0-2.331-2.451H311.84v4.662h5.021A2.38,2.38,0,0,0,318.415,206.52Z"/><path class="cls-14" d="M326.82,190H304.605a8.252,8.252,0,0,0-8.252,8.251v22.215a8.252,8.252,0,0,0,8.252,8.251H326.82a8.251,8.251,0,0,0,8.251-8.251V198.251A8.251,8.251,0,0,0,326.82,190Zm-3.37,26.68a4.974,4.974,0,0,1-1.688,1.942,6.505,6.505,0,0,1-2.242.942,11.091,11.091,0,0,1-2.3.254h-7.441A1.787,1.787,0,0,1,307.955,218V200.722a1.787,1.787,0,0,1,1.823-1.823h7.531a5.973,5.973,0,0,1,4.273,1.345,5.249,5.249,0,0,1,1.405,3.974,4.434,4.434,0,0,1-.687,2.466,4.358,4.358,0,0,1-1.82,1.535,8.431,8.431,0,0,1,1.028.5,5.326,5.326,0,0,1,1.853,1.793,5.4,5.4,0,0,1,.732,2.943A7.081,7.081,0,0,1,323.45,216.68Z"/><path class="cls-15" d="M305.375.041H283.31a7.817,7.817,0,0,0-7.817,7.817V29.923a7.816,7.816,0,0,0,7.817,7.816h22.065a7.816,7.816,0,0,0,7.817-7.816V7.858A7.817,7.817,0,0,0,305.375.041Zm-7.321,13.89a21.338,21.338,0,0,0-.938,2L292.3,26.912a9.816,9.816,0,0,0-.916,2.531c0,.391.089.566.611.566a3.412,3.412,0,0,0,1.554-.488,3.915,3.915,0,0,0,1.376-1.164,1.471,1.471,0,0,1,1.047-.734.775.775,0,0,1,.812.809c0,.529-.41,1.1-1.371,1.916a6.558,6.558,0,0,1-4.338,1.621,4.305,4.305,0,0,1-2.757-.874,2.9,2.9,0,0,1-1.153-2.36,10.1,10.1,0,0,1,1.1-3.612l4.353-9.688a3.9,3.9,0,0,1,.4-.952,8.361,8.361,0,0,0-1.14-.137c-.8-.192-.859-.7-.859-.853a.87.87,0,0,1,.9-.939c.03,0,.266.028.706.09a14.42,14.42,0,0,0,1.8.078,6.48,6.48,0,0,0,2.255-.251,2.293,2.293,0,0,1,.8-.209.829.829,0,0,1,.854.895A1.663,1.663,0,0,1,298.054,13.931Zm-.8-3.438a2.461,2.461,0,0,1-1.771-.681,2.3,2.3,0,0,1-.715-1.722c0-.851.323-2.278,2.486-2.278a2.077,2.077,0,0,1,2.194,2.361A2.057,2.057,0,0,1,297.249,10.493Z"/><path class="cls-16" d="M94.118,55.144v136.37a10.164,10.164,0,0,0,10.164,10.164H240.651a10.164,10.164,0,0,0,10.164-10.164V55.144A10.164,10.164,0,0,0,240.651,44.98H104.282A10.164,10.164,0,0,0,94.118,55.144Zm119.1,45.954c-.673,1.213-4.311,1.482-4.984.405-2.291-8.623-4.177-14.955-14.281-14.955h-8.084c-3.234,0-3.639.4-3.639,3.906V149.87c0,12.53.809,13.608,6.872,14.416l5.389.674c.943.808.943,3.907,0,4.715-8.757-.27-15.494-.4-21.556-.4-6.467,0-13.473.134-22.9.4-1.079-.808-1.079-3.907,0-4.715l6.063-.674c6.063-.673,6.871-1.886,6.871-14.416V90.454c0-3.232,0-3.906-3.234-3.906h-8.353c-9.835,0-12.665,5.389-16.707,15.223-1.617.809-4.177.54-4.984-1.211,2.829-9.3,3.5-17.65,4.446-22.9a3.225,3.225,0,0,1,1.885-.673,3.1,3.1,0,0,1,1.888.539c.673,2.291,1.077,2.83,11.316,2.83h50.119c8.893,0,10.913-.136,12.126-2.965a3.372,3.372,0,0,1,1.751-.4,2.873,2.873,0,0,1,2.021.943C213.9,82.506,212.953,93.419,213.221,101.1Z"/><path class="cls-17" d="M104.282,201.678a10.164,10.164,0,0,1-10.164-10.164V66.826H81.9A10.164,10.164,0,0,0,71.733,76.99V213.359A10.163,10.163,0,0,0,81.9,223.523h136.37a10.164,10.164,0,0,0,10.164-10.164V201.678Z"/></svg>