<svg id="Layer_1" data-name="Layer 1" xmlns="http://www.w3.org/2000/svg" xmlns:xlink="http://www.w3.org/1999/xlink" viewBox="0 0 335.78 268.624"><defs><style>.cls-1{fill:#e6e7e8;}.cls-2{fill:url(#linear-gradient);}.cls-3{fill:url(#linear-gradient-2);}.cls-4{fill:url(#linear-gradient-3);}.cls-5{fill:url(#linear-gradient-4);}.cls-6{fill:url(#linear-gradient-5);}.cls-7{fill:url(#linear-gradient-6);}.cls-8{fill:url(#linear-gradient-7);}.cls-9{fill:url(#linear-gradient-8);}.cls-10{fill:url(#linear-gradient-9);}.cls-11{fill:#3a2f37;}.cls-12{fill:url(#linear-gradient-10);}.cls-13{fill:url(#linear-gradient-11);}.cls-14{fill:url(#linear-gradient-12);}.cls-15{fill:url(#linear-gradient-13);}.cls-16{fill:url(#linear-gradient-14);}.cls-17{fill:url(#linear-gradient-15);}.cls-18{fill:url(#linear-gradient-16);}.cls-19{fill:url(#linear-gradient-17);}.cls-20{fill:url(#linear-gradient-18);}.cls-21{fill:url(#linear-gradient-19);}.cls-22{fill:url(#linear-gradient-20);}.cls-23{fill:url(#linear-gradient-21);}.cls-24{fill:url(#linear-gradient-22);}.cls-25{fill:url(#linear-gradient-23);}.cls-26{fill:url(#linear-gradient-24);}.cls-27{fill:url(#linear-gradient-25);}.cls-28{fill:url(#linear-gradient-26);}.cls-29{fill:url(#linear-gradient-27);}.cls-30{fill:url(#linear-gradient-28);}.cls-31{fill:url(#linear-gradient-29);}</style><linearGradient id="linear-gradient" x1="-4.253" y1="212.751" x2="33.008" y2="122.414" gradientUnits="userSpaceOnUse"><stop offset="0" stop-color="#4b87aa"/><stop offset="0.997" stop-color="#9cd3e7"/></linearGradient><linearGradient id="linear-gradient-2" x1="0.551" y1="212.299" x2="37.811" y2="121.961" xlink:href="#linear-gradient"/><linearGradient id="linear-gradient-3" x1="5.354" y1="211.846" x2="42.615" y2="121.509" xlink:href="#linear-gradient"/><linearGradient id="linear-gradient-4" x1="10.157" y1="211.393" x2="47.418" y2="121.056" xlink:href="#linear-gradient"/><linearGradient id="linear-gradient-5" x1="14.961" y1="210.94" x2="52.221" y2="120.603" xlink:href="#linear-gradient"/><linearGradient id="linear-gradient-6" x1="318.498" y1="-12.399" x2="266.34" y2="98.374" gradientUnits="userSpaceOnUse"><stop offset="0.022" stop-color="#e6e7e8"/><stop offset="1" stop-color="#bbbdbf"/></linearGradient><linearGradient id="linear-gradient-7" x1="334.064" y1="-13.631" x2="279.273" y2="102.734" xlink:href="#linear-gradient-6"/><linearGradient id="linear-gradient-8" x1="339.176" y1="-13.295" x2="284.385" y2="103.071" xlink:href="#linear-gradient-6"/><linearGradient id="linear-gradient-9" x1="344.287" y1="-12.958" x2="289.497" y2="103.407" xlink:href="#linear-gradient-6"/><linearGradient id="linear-gradient-10" x1="11.466" y1="50.426" x2="41.631" y2="12.114" gradientUnits="userSpaceOnUse"><stop offset="0" stop-color="#b46964"/><stop offset="1" stop-color="#eb9590"/></linearGradient><linearGradient id="linear-gradient-11" x1="15.985" y1="53.984" x2="46.15" y2="15.672" xlink:href="#linear-gradient-10"/><linearGradient id="linear-gradient-12" x1="20.101" y1="57.224" x2="50.266" y2="18.912" xlink:href="#linear-gradient-10"/><linearGradient id="linear-gradient-13" x1="18.825" y1="276.112" x2="53.536" y2="232.025" xlink:href="#linear-gradient-10"/><linearGradient id="linear-gradient-14" x1="163.496" y1="202.064" x2="189.267" y2="171.745" xlink:href="#linear-gradient-10"/><linearGradient id="linear-gradient-15" x1="162.349" y1="147.895" x2="89.688" y2="232.005" gradientUnits="userSpaceOnUse"><stop offset="0" stop-color="#5a965f"/><stop offset="1" stop-color="#8cca8b"/></linearGradient><linearGradient id="linear-gradient-16" x1="106.853" y1="146.937" x2="163.66" y2="66.35" xlink:href="#linear-gradient"/><linearGradient id="linear-gradient-17" x1="151.353" y1="65.139" x2="215.428" y2="23.568" xlink:href="#linear-gradient-10"/><linearGradient id="linear-gradient-18" x1="125.73" y1="279.128" x2="190.999" y2="195.122" xlink:href="#linear-gradient"/><linearGradient id="linear-gradient-19" x1="104.344" y1="258.237" x2="232.051" y2="6.788" gradientUnits="userSpaceOnUse"><stop offset="0" stop-color="#261b2d"/><stop offset="1" stop-color="#6c6173"/></linearGradient><linearGradient id="linear-gradient-20" x1="108.863" y1="260.532" x2="236.57" y2="9.083" xlink:href="#linear-gradient-19"/><linearGradient id="linear-gradient-21" x1="113.382" y1="262.827" x2="241.088" y2="11.378" xlink:href="#linear-gradient-19"/><linearGradient id="linear-gradient-22" x1="158.379" y1="285.68" x2="286.085" y2="34.231" xlink:href="#linear-gradient-19"/><linearGradient id="linear-gradient-23" x1="162.898" y1="287.975" x2="290.604" y2="36.526" xlink:href="#linear-gradient-19"/><linearGradient id="linear-gradient-24" x1="167.417" y1="290.27" x2="295.123" y2="38.821" xlink:href="#linear-gradient-19"/><linearGradient id="linear-gradient-25" x1="192.844" y1="303.184" x2="320.55" y2="51.735" xlink:href="#linear-gradient-19"/><linearGradient id="linear-gradient-26" x1="197.363" y1="305.479" x2="325.069" y2="54.03" xlink:href="#linear-gradient-19"/><linearGradient id="linear-gradient-27" x1="201.881" y1="307.774" x2="329.588" y2="56.325" xlink:href="#linear-gradient-19"/><linearGradient id="linear-gradient-28" x1="123.132" y1="267.779" x2="250.838" y2="16.33" xlink:href="#linear-gradient-19"/><linearGradient id="linear-gradient-29" x1="272.218" y1="244.043" x2="284.108" y2="218.612" xlink:href="#linear-gradient-19"/></defs><title>skillset-icons</title><path class="cls-1" d="M234.569,180.787h56.415a0,0,0,0,1,0,0v5.333a8.459,8.459,0,0,1-8.459,8.459H234.569a0,0,0,0,1,0,0V180.787A0,0,0,0,1,234.569,180.787Z"/><rect class="cls-1" x="35.242" y="213.946" width="22.385" height="22.385" rx="11.193"/><path class="cls-2" d="M1.819,136.266H54.213a1.75,1.75,0,0,0,0-3.5H1.819a1.75,1.75,0,1,0,0,3.5Z"/><path class="cls-3" d="M54.213,143.959H1.819a1.75,1.75,0,1,0,0,3.5H54.213a1.75,1.75,0,0,0,0-3.5Z"/><path class="cls-4" d="M54.213,155.152H1.819a1.75,1.75,0,1,0,0,3.5H54.213a1.75,1.75,0,0,0,0-3.5Z"/><path class="cls-5" d="M54.213,166.344H1.819a1.75,1.75,0,1,0,0,3.5H54.213a1.75,1.75,0,0,0,0-3.5Z"/><path class="cls-6" d="M54.213,177.537H1.819a1.75,1.75,0,1,0,0,3.5H54.213a1.75,1.75,0,0,0,0-3.5Z"/><rect class="cls-7" x="268.624" width="66.991" height="44.771" rx="8.818"/><path class="cls-8" d="M333.865,52.463H270.374a1.75,1.75,0,0,0,0,3.5h63.491a1.75,1.75,0,0,0,0-3.5Z"/><path class="cls-9" d="M333.865,63.656H270.374a1.75,1.75,0,1,0,0,3.5h63.491a1.75,1.75,0,0,0,0-3.5Z"/><path class="cls-10" d="M333.865,74.849H270.374a1.75,1.75,0,0,0,0,3.5h63.491a1.75,1.75,0,0,0,0-3.5Z"/><circle class="cls-11" cx="33.578" cy="60.863" r="2.175"/><circle class="cls-11" cx="72.844" cy="89.743" r="2.175"/><circle class="cls-11" cx="83.806" cy="89.743" r="2.175"/><circle class="cls-11" cx="123.327" cy="89.743" r="2.175"/><circle class="cls-11" cx="61.882" cy="89.743" r="2.175"/><circle class="cls-11" cx="50.921" cy="89.743" r="2.175"/><circle class="cls-11" cx="39.959" cy="89.743" r="2.175"/><circle class="cls-11" cx="33.578" cy="82.846" r="2.175"/><circle class="cls-11" cx="33.578" cy="71.854" r="2.175"/><path class="cls-12" d="M27.939,11.193H39.218A11.149,11.149,0,0,1,50.367,22.342v0a11.15,11.15,0,0,1-11.15,11.15H27.938A11.149,11.149,0,0,1,16.789,22.342v0a11.15,11.15,0,0,1,11.15-11.15Z"/><path class="cls-13" d="M27.939,42.03H39.217A11.11,11.11,0,0,0,49.993,28.061a11.143,11.143,0,0,1-10.776,8.33H27.939a11.143,11.143,0,0,1-10.776-8.33A11.11,11.11,0,0,0,27.939,42.03Z"/><path class="cls-14" d="M39.217,44.858H27.939a11.143,11.143,0,0,1-10.776-8.33A11.11,11.11,0,0,0,27.939,50.5H39.217A11.11,11.11,0,0,0,49.993,36.528,11.143,11.143,0,0,1,39.217,44.858Z"/><path class="cls-15" d="M54.609,241.1l-6.536,3.535a2.238,2.238,0,0,1-3.3-1.968V227.839a2.237,2.237,0,0,1,3.279-1.98l13.892,7.309a2.238,2.238,0,0,1,.022,3.949Z"/><rect class="cls-16" x="154.091" y="184.063" width="38.502" height="12.834" rx="6.417"/><path class="cls-17" d="M124.45,247.292a12.757,12.757,0,0,1-12.743-12.743V67.36h-7.845A14.761,14.761,0,0,0,89.1,82.121V253.684a14.762,14.762,0,0,0,14.761,14.762h82.4a14.762,14.762,0,0,0,14.762-14.762v-6.392ZM95.541,91.918a2.175,2.175,0,1,1,2.175-2.175A2.175,2.175,0,0,1,95.541,91.918Zm9.754,0a2.175,2.175,0,1,1,2.175-2.175A2.175,2.175,0,0,1,105.3,91.918Z"/><circle class="cls-18" cx="147.17" cy="89.743" r="17.985"/><polyline class="cls-19" points="228.569 35.128 228.569 66.883 117.707 35.128"/><polyline class="cls-20" points="117.707 234.339 117.707 201.672 228.569 234.549 117.707 234.475"/><path class="cls-21" d="M175.092,80.3h41.021a1.75,1.75,0,0,0,0-3.5H175.092a1.75,1.75,0,0,0,0,3.5Z"/><path class="cls-22" d="M175.092,91.5h41.021a1.75,1.75,0,0,0,0-3.5H175.092a1.75,1.75,0,1,0,0,3.5Z"/><path class="cls-23" d="M175.092,102.688h41.021a1.75,1.75,0,0,0,0-3.5H175.092a1.75,1.75,0,0,0,0,3.5Z"/><path class="cls-24" d="M244.966,143.959h-31a1.75,1.75,0,1,0,0,3.5h31a1.75,1.75,0,0,0,0-3.5Z"/><path class="cls-25" d="M244.966,155.151h-31a1.75,1.75,0,1,0,0,3.5h31a1.75,1.75,0,0,0,0-3.5Z"/><path class="cls-26" d="M244.966,166.344h-31a1.75,1.75,0,1,0,0,3.5h31a1.75,1.75,0,0,0,0-3.5Z"/><path class="cls-27" d="M288.486,143.959H257.158a1.75,1.75,0,0,0,0,3.5h31.328a1.75,1.75,0,0,0,0-3.5Z"/><path class="cls-28" d="M288.486,155.151H257.158a1.75,1.75,0,0,0,0,3.5h31.328a1.75,1.75,0,0,0,0-3.5Z"/><path class="cls-29" d="M288.486,166.344H257.158a1.75,1.75,0,0,0,0,3.5h31.328a1.75,1.75,0,0,0,0-3.5Z"/><path class="cls-30" d="M293.112,132.784H234.569V35.128a12.758,12.758,0,0,0-12.743-12.743H124.45a12.757,12.757,0,0,0-12.743,12.743V234.475a12.757,12.757,0,0,0,12.743,12.743h97.376a12.757,12.757,0,0,0,12.743-12.743V180.787h58.543A8.687,8.687,0,0,0,301.8,172.1V141.47A8.686,8.686,0,0,0,293.112,132.784ZM168.464,27h12.963a1.486,1.486,0,1,1,0,2.972H168.464a1.486,1.486,0,1,1,0-2.972Zm60.1,207.546-110.862-.074V35.128H228.569v97.656h-9.521v-.634a8.826,8.826,0,0,0-8.827-8.826H135.693a8.827,8.827,0,0,0-8.827,8.827v27.116a8.827,8.827,0,0,0,8.827,8.827h65.335V172.1a8.686,8.686,0,0,0,8.686,8.687h18.855Zm70.23-63.013a6.251,6.251,0,0,1-6.251,6.251h-82.27a6.251,6.251,0,0,1-6.25-6.251v-29.5a6.25,6.25,0,0,1,6.25-6.25h82.27a6.251,6.251,0,0,1,6.251,6.25Z"/><path class="cls-31" d="M290.6,235.748l-5.469-5.469,3.287-3.287a.5.5,0,0,0-.126-.8l-18.342-9.345a.9.9,0,0,0-1.217,1.217l9.345,18.343a.5.5,0,0,0,.8.126l3.286-3.287,5.469,5.469a2.1,2.1,0,0,0,2.971-2.971Z"/></svg>