<svg id="Layer_1" data-name="Layer 1" xmlns="http://www.w3.org/2000/svg" xmlns:xlink="http://www.w3.org/1999/xlink" viewBox="0 0 335.78 268.624"><defs><style>.cls-1{fill:url(#linear-gradient);}.cls-2{fill:url(#linear-gradient-2);}.cls-3{fill:url(#linear-gradient-3);}.cls-4{fill:#e6e7e8;}.cls-5{fill:url(#linear-gradient-4);}.cls-6{fill:url(#linear-gradient-5);}.cls-7{fill:url(#linear-gradient-6);}.cls-8{fill:url(#linear-gradient-7);}.cls-9{fill:url(#linear-gradient-8);}.cls-10{fill:url(#linear-gradient-9);}.cls-11{fill:url(#linear-gradient-10);}.cls-12{fill:url(#linear-gradient-11);}.cls-13{fill:url(#linear-gradient-12);}.cls-14{fill:url(#linear-gradient-13);}.cls-15{fill:url(#linear-gradient-14);}.cls-16{fill:url(#linear-gradient-15);}.cls-17{fill:url(#linear-gradient-16);}.cls-18{fill:url(#linear-gradient-17);}.cls-19{fill:url(#linear-gradient-18);}.cls-20{fill:url(#linear-gradient-19);}.cls-21{fill:url(#linear-gradient-20);}.cls-22{fill:url(#linear-gradient-21);}.cls-23{fill:url(#linear-gradient-22);}.cls-24{fill:url(#linear-gradient-23);}.cls-25{fill:url(#linear-gradient-24);}.cls-26{fill:url(#linear-gradient-25);}.cls-27{fill:url(#linear-gradient-26);}.cls-28{fill:url(#linear-gradient-27);}.cls-29{fill:url(#linear-gradient-28);}</style><linearGradient id="linear-gradient" x1="20.005" y1="173.665" x2="38.177" y2="152.137" gradientUnits="userSpaceOnUse"><stop offset="0" stop-color="#5a965f"/><stop offset="0.496" stop-color="#73b075"/><stop offset="1" stop-color="#8cca8b"/></linearGradient><linearGradient id="linear-gradient-2" x1="20.005" y1="195.709" x2="38.177" y2="174.181" gradientUnits="userSpaceOnUse"><stop offset="0" stop-color="#b46964"/><stop offset="1" stop-color="#eb9590"/></linearGradient><linearGradient id="linear-gradient-3" x1="22.192" y1="146.004" x2="37.569" y2="130.907" gradientUnits="userSpaceOnUse"><stop offset="0" stop-color="#4b87aa"/><stop offset="0.997" stop-color="#9cd3e7"/></linearGradient><linearGradient id="linear-gradient-4" x1="11.076" y1="239.973" x2="51.204" y2="192.413" gradientUnits="userSpaceOnUse"><stop offset="0" stop-color="#261b2d"/><stop offset="1" stop-color="#6c6173"/></linearGradient><linearGradient id="linear-gradient-5" x1="301.154" y1="265.366" x2="323.991" y2="229.189" xlink:href="#linear-gradient-3"/><linearGradient id="linear-gradient-6" x1="300.336" y1="264.85" x2="323.174" y2="228.674" xlink:href="#linear-gradient-3"/><linearGradient id="linear-gradient-7" x1="302.706" y1="62.615" x2="324.084" y2="37.279" xlink:href="#linear-gradient-2"/><linearGradient id="linear-gradient-8" x1="261.939" y1="33.911" x2="289.105" y2="7.883" xlink:href="#linear-gradient"/><linearGradient id="linear-gradient-9" x1="263.561" y1="32.508" x2="288.571" y2="8.547" xlink:href="#linear-gradient"/><linearGradient id="linear-gradient-10" x1="109.778" y1="72.381" x2="133.519" y2="41.929" xlink:href="#linear-gradient"/><linearGradient id="linear-gradient-11" x1="143.692" y1="143.079" x2="67.322" y2="198.791" xlink:href="#linear-gradient-2"/><linearGradient id="linear-gradient-12" x1="82.827" y1="229.719" x2="264.478" y2="25.61" xlink:href="#linear-gradient-4"/><linearGradient id="linear-gradient-13" x1="85.546" y1="232.139" x2="267.197" y2="28.03" xlink:href="#linear-gradient-4"/><linearGradient id="linear-gradient-14" x1="88.045" y1="234.363" x2="269.696" y2="30.253" xlink:href="#linear-gradient-4"/><linearGradient id="linear-gradient-15" x1="57.792" y1="207.439" x2="239.443" y2="3.329" xlink:href="#linear-gradient-4"/><linearGradient id="linear-gradient-16" x1="62.657" y1="211.769" x2="244.308" y2="7.659" xlink:href="#linear-gradient-4"/><linearGradient id="linear-gradient-17" x1="67.744" y1="216.296" x2="249.395" y2="12.186" xlink:href="#linear-gradient-4"/><linearGradient id="linear-gradient-18" x1="132.964" y1="274.34" x2="314.615" y2="70.23" xlink:href="#linear-gradient-4"/><linearGradient id="linear-gradient-19" x1="37.457" y1="189.342" x2="219.108" y2="-14.768" xlink:href="#linear-gradient-4"/><linearGradient id="linear-gradient-20" x1="61.484" y1="210.725" x2="243.135" y2="6.615" xlink:href="#linear-gradient-4"/><linearGradient id="linear-gradient-21" x1="64.502" y1="213.411" x2="246.153" y2="9.301" xlink:href="#linear-gradient-4"/><linearGradient id="linear-gradient-22" x1="66.49" y1="215.18" x2="248.141" y2="11.07" xlink:href="#linear-gradient-4"/><linearGradient id="linear-gradient-23" x1="69.918" y1="218.231" x2="251.569" y2="14.122" xlink:href="#linear-gradient-4"/><linearGradient id="linear-gradient-24" x1="77" y1="224.534" x2="258.651" y2="20.424" xlink:href="#linear-gradient-4"/><linearGradient id="linear-gradient-25" x1="85.45" y1="232.054" x2="267.101" y2="27.944" xlink:href="#linear-gradient-4"/><linearGradient id="linear-gradient-26" x1="124.375" y1="266.696" x2="306.026" y2="62.586" xlink:href="#linear-gradient-4"/><linearGradient id="linear-gradient-27" x1="171.493" y1="308.629" x2="353.144" y2="104.519" xlink:href="#linear-gradient-4"/><linearGradient id="linear-gradient-28" x1="-8.887" y1="62.434" x2="58.819" y2="-0.979" xlink:href="#linear-gradient-3"/></defs><title>skillset-icons</title><rect class="cls-1" x="26.555" y="150.382" width="14.212" height="14.212" rx="7.106"/><rect class="cls-2" x="26.555" y="172.426" width="14.212" height="14.212" rx="7.106"/><rect class="cls-3" x="26.555" y="127.639" width="14.212" height="14.212" rx="7.106"/><rect class="cls-4" x="26.555" y="104.677" width="14.212" height="14.212" rx="7.106"/><path class="cls-5" d="M33.578,196.514h0a16.789,16.789,0,0,0,0,33.578h0a16.789,16.789,0,0,0,0-33.578Zm7.051,15.83H33.77a.428.428,0,0,0-.427.428v.394a1.758,1.758,0,0,1,1.13,1.641v9.23a1.759,1.759,0,0,1-3.518,0v-9.23a1.757,1.757,0,0,1,1.131-1.641v-.394a1.686,1.686,0,0,1,1.684-1.685h6.859a2.01,2.01,0,1,0,0-4.019h-1a1.759,1.759,0,0,1-1.641,1.13H27.438a1.759,1.759,0,1,1,0-3.517H37.991a1.757,1.757,0,0,1,1.641,1.13h1a3.267,3.267,0,1,1,0,6.533Z"/><path class="cls-6" d="M313.293,223.75a22.386,22.386,0,1,0,22.377,22.386A22.406,22.406,0,0,0,313.293,223.75Zm0,41.1A18.714,18.714,0,1,1,332,246.136,18.731,18.731,0,0,1,313.293,264.849Z"/><path class="cls-7" d="M322.565,236.627a.766.766,0,0,0-.4.092c-.276.644-.736.675-2.759.675h-11.4c-2.33,0-2.422-.123-2.575-.644a.7.7,0,0,0-.429-.123.737.737,0,0,0-.429.153,37.493,37.493,0,0,1-1.012,5.213.86.86,0,0,0,1.134.277c.92-2.239,1.564-3.465,3.8-3.465h1.9c.735,0,.735.153.735.888v13.524c0,2.851-.184,3.127-1.563,3.28l-1.379.154a.872.872,0,0,0,0,1.073c2.145-.061,3.739-.092,5.211-.092,1.379,0,2.912.031,4.9.092a.977.977,0,0,0,0-1.073l-1.226-.154c-1.38-.183-1.564-.429-1.564-3.28V239.693c0-.8.092-.888.828-.888h1.839c2.3,0,2.728,1.441,3.249,3.4.153.245.981.184,1.134-.092a21.769,21.769,0,0,1,.46-5.274A.653.653,0,0,0,322.565,236.627Z"/><path class="cls-8" d="M313.4,33.365a16.582,16.582,0,1,0,16.582,16.582A16.6,16.6,0,0,0,313.4,33.365ZM300.753,49.947a12.617,12.617,0,0,1,20.186-10.12L303.275,57.491A12.556,12.556,0,0,1,300.753,49.947ZM313.4,62.589a12.558,12.558,0,0,1-7.3-2.342l17.6-17.6a12.622,12.622,0,0,1-10.3,19.946Z"/><path class="cls-9" d="M279.817.2A16.583,16.583,0,1,0,296.4,16.783,16.6,16.6,0,0,0,279.817.2Zm12.642,16.583c0,.024,0,.048,0,.073a12.642,12.642,0,0,1-11.347,12.5,12.812,12.812,0,0,1-1.291.065c-.394,0-.782-.023-1.167-.059-.134-.012-.266-.031-.4-.048-.241-.03-.481-.066-.718-.109-.167-.031-.333-.064-.5-.1-.183-.041-.363-.09-.543-.14a12.5,12.5,0,0,1-2.338-.894l-.014-.007a12.658,12.658,0,0,1-6.256-7.139c-.016-.045-.033-.088-.048-.133-.076-.227-.142-.456-.205-.688-.042-.153-.082-.306-.118-.462-.044-.188-.085-.378-.12-.57-.042-.222-.074-.448-.1-.675-.019-.147-.042-.293-.056-.442-.036-.387-.059-.778-.059-1.174h0A12.642,12.642,0,0,1,278.526,4.206a12.51,12.51,0,0,1,1.291-.066c.4,0,.789.023,1.177.06.146.013.288.035.432.054.231.03.46.063.686.105.19.035.377.075.563.118.158.037.314.078.47.121.229.062.457.127.681.2.048.016.095.036.143.053a12.662,12.662,0,0,1,7.132,6.252l0,.011a12.464,12.464,0,0,1,.9,2.35c.048.176.1.352.136.53s.072.337.1.507c.043.233.078.469.108.706.016.137.036.272.049.411.035.382.059.769.059,1.161h0Z"/><path class="cls-10" d="M285.046,12.08l-5.975,6.752a.5.5,0,0,1-.7.043l-2.555-2.24a1.814,1.814,0,1,0-2.4,2.719l4.1,3.6a2.064,2.064,0,0,0,2.912-.179l7.337-8.292a1.814,1.814,0,0,0-2.716-2.4Z"/><path class="cls-11" d="M123.964,67.569h0a13.385,13.385,0,1,0,0-26.769h0a13.385,13.385,0,0,0,0,26.769Z"/><path class="cls-12" d="M99.736,223.877A10.355,10.355,0,0,1,89.38,213.522V44.8H77.868A10.355,10.355,0,0,0,67.513,55.154V235.883a10.355,10.355,0,0,0,10.355,10.356H202.827a10.355,10.355,0,0,0,10.356-10.356V223.877Z"/><path class="cls-4" d="M235,207.056v6.575a10.242,10.242,0,0,1-10.222,10.246H213.183v6.215h48.106a7.475,7.475,0,0,0,7.474-7.475V207.056Z"/><path class="cls-13" d="M134.312,184.445a1.752,1.752,0,0,0-1.75-1.75H113.677a1.75,1.75,0,0,0,0,3.5h18.885A1.752,1.752,0,0,0,134.312,184.445Z"/><path class="cls-14" d="M130.466,192.082a1.752,1.752,0,0,0-1.75-1.75H113.677a1.75,1.75,0,0,0,0,3.5h15.039A1.753,1.753,0,0,0,130.466,192.082Z"/><path class="cls-15" d="M113.677,197.968a1.75,1.75,0,1,0,0,3.5h10.4a1.75,1.75,0,0,0,0-3.5Z"/><path class="cls-16" d="M210.422,44.8H191.537a1.75,1.75,0,0,0,0,3.5h18.885a1.75,1.75,0,1,0,0-3.5Z"/><path class="cls-17" d="M210.422,52.435H195.383a1.75,1.75,0,0,0,0,3.5h15.039a1.75,1.75,0,0,0,0-3.5Z"/><path class="cls-18" d="M210.422,60.071h-10.4a1.75,1.75,0,0,0,0,3.5h10.4a1.75,1.75,0,0,0,0-3.5Z"/><path class="cls-19" d="M287.453,109.5H249.8a3.557,3.557,0,0,0-3.556,3.557v17.7a3.556,3.556,0,0,0,3.556,3.556h37.658a3.557,3.557,0,0,0,3.557-3.556v-17.7A3.558,3.558,0,0,0,287.453,109.5Zm-24.6,13.8a6.038,6.038,0,0,1-4.54,4.54,6.095,6.095,0,1,1,4.54-4.54Zm20.635,4.7H268.48a1.956,1.956,0,0,1-1.889-1.278,1.911,1.911,0,0,1,1.8-2.53H283.4a1.955,1.955,0,0,1,1.889,1.278A1.911,1.911,0,0,1,283.488,128Zm0-8.369H268.48a1.956,1.956,0,0,1-1.889-1.278,1.911,1.911,0,0,1,1.8-2.529H283.4a1.955,1.955,0,0,1,1.889,1.278A1.91,1.91,0,0,1,283.488,119.626Z"/><path class="cls-20" d="M113.677,91.291h25.2a1.75,1.75,0,0,0,0-3.5h-25.2a1.75,1.75,0,0,0,0,3.5Z"/><path class="cls-21" d="M196.45,106.558a1.752,1.752,0,0,0-1.75-1.75H113.677a1.75,1.75,0,0,0,0,3.5H194.7A1.752,1.752,0,0,0,196.45,106.558Z"/><path class="cls-22" d="M186.539,118.2a1.752,1.752,0,0,0-1.75-1.75H113.677a1.75,1.75,0,0,0,0,3.5h71.112A1.752,1.752,0,0,0,186.539,118.2Z"/><path class="cls-23" d="M174.306,129.08a1.752,1.752,0,0,0-1.75-1.75H113.677a1.75,1.75,0,1,0,0,3.5h58.879A1.753,1.753,0,0,0,174.306,129.08Z"/><path class="cls-24" d="M113.677,142.016h51.256a1.75,1.75,0,0,0,0-3.5H113.677a1.75,1.75,0,1,0,0,3.5Z"/><path class="cls-25" d="M172.49,151.264a1.752,1.752,0,0,0-1.75-1.75H113.677a1.75,1.75,0,0,0,0,3.5H170.74A1.753,1.753,0,0,0,172.49,151.264Z"/><path class="cls-26" d="M285.088,145.519H235.05V89.924h38.857l-.019-.039a5.748,5.748,0,1,0,0-11.5l-.006-.041H235.05V32.779a10.355,10.355,0,0,0-10.343-10.343H99.723A10.355,10.355,0,0,0,89.38,32.779V213.534a10.355,10.355,0,0,0,10.343,10.343H224.707a10.355,10.355,0,0,0,10.343-10.343v-6.478h49.562l-32.747-21.08-11.1,6.628-11.321-6.757.012.007-.693.45-31.95,20.752H230.05v6.478a5.349,5.349,0,0,1-5.343,5.343H99.723a5.349,5.349,0,0,1-5.343-5.343V32.779a5.349,5.349,0,0,1,5.343-5.343H224.707a5.349,5.349,0,0,1,5.343,5.343v45.57H195.3c-.006.008-.013.013-.019.021a.385.385,0,0,0-.223,0l-15.641,5.083a.718.718,0,0,0,0,1.375l15.641,5.082a.385.385,0,0,0,.233,0s0,.013.009.018H230.05v55.6H195.931a5.921,5.921,0,0,0-5.922,5.921v6.212l50.752,30.294,50.249-29.993V151.44A5.922,5.922,0,0,0,285.088,145.519Zm-88.3-60.165a1.218,1.218,0,1,1,0-2.435h77.5a1.217,1.217,0,0,1,1.217,1.218h0a1.217,1.217,0,0,1-1.217,1.217Z"/><path class="cls-27" d="M224.851,184.073l.772-.5L190.009,162.31v38.824a5.9,5.9,0,0,0,1.9,4.336Z"/><path class="cls-28" d="M255.906,183.82l.007,0,34.1,21.952a3.8,3.8,0,0,0,1-2.555V162.611L255.7,183.687Z"/><path class="cls-4" d="M12.514,6.367a5.594,5.594,0,0,1-3.6,5.222V45.542h-4V11.589a5.593,5.593,0,0,1,2-10.818h0A5.6,5.6,0,0,1,12.514,6.367Z"/><path class="cls-29" d="M46.051,0V4.72A46.846,46.846,0,0,0,5.264,45.541H0V59.568H14.027V45.541H9.3A42.845,42.845,0,0,1,46.051,8.751v5.276H60.077V0Z"/></svg>