<?xml version="1.0" standalone="no"?>
<!DOCTYPE svg PUBLIC "-//W3C//DTD SVG 20010904//EN"
 "http://www.w3.org/TR/2001/REC-SVG-20010904/DTD/svg10.dtd">
<svg version="1.0" xmlns="http://www.w3.org/2000/svg"
 width="700.000000pt" height="700.000000pt" viewBox="0 0 700.000000 700.000000"
 preserveAspectRatio="xMidYMid meet">
<metadata>
Created by potrace 1.11, written by Peter Selinger 2001-2013
</metadata>
<g transform="translate(0.000000,700.000000) scale(0.100000,-0.100000)"
fill="#000000" stroke="none">
<path d="M3269 6936 c-2 -2 -44 -6 -94 -10 -94 -7 -137 -12 -195 -22 -19 -3
-46 -7 -60 -9 -43 -6 -93 -16 -140 -26 -25 -6 -54 -13 -65 -15 -11 -2 -29 -6
-40 -8 -49 -10 -209 -58 -305 -91 -349 -121 -662 -290 -965 -519 -101 -77
-109 -83 -224 -187 -524 -472 -891 -1080 -1061 -1756 -31 -125 -49 -227 -76
-423 -19 -142 -24 -505 -10 -655 11 -111 30 -264 40 -323 42 -230 130 -534
206 -709 6 -13 14 -33 19 -45 25 -58 134 -280 167 -338 52 -93 194 -308 256
-387 475 -614 1113 -1039 1858 -1238 104 -27 313 -70 399 -80 30 -4 62 -8 72
-10 85 -17 439 -20 2019 -20 1799 0 1815 0 1842 20 15 11 36 37 47 58 18 36
19 61 18 390 -2 387 -2 383 -64 424 -25 16 -73 18 -555 23 l-527 5 102 105
c57 58 127 134 157 170 30 36 57 67 60 70 26 26 250 344 250 355 0 3 16 30 36
61 77 121 204 393 274 589 34 95 96 307 103 352 3 17 7 36 10 40 6 9 52 286
61 363 21 172 27 477 13 672 -20 296 -95 641 -205 933 -306 820 -915 1498
-1692 1883 -63 32 -133 65 -155 74 -22 9 -61 26 -86 36 -113 49 -297 109 -449
147 -128 33 -135 34 -185 41 -22 3 -46 7 -54 10 -16 5 -135 23 -206 30 -27 3
-61 8 -75 10 -27 6 -516 15 -521 10z m446 -930 c309 -32 597 -117 887 -262
335 -167 659 -441 892 -757 227 -308 399 -716 452 -1072 3 -22 8 -51 10 -65
14 -89 19 -179 19 -355 0 -176 -9 -347 -19 -364 -2 -3 -6 -28 -10 -56 -17
-140 -77 -358 -151 -539 -231 -570 -666 -1033 -1229 -1309 -192 -93 -504 -191
-681 -213 -22 -3 -45 -7 -52 -9 -57 -19 -520 -28 -643 -13 -252 30 -496 92
-694 176 -678 288 -1183 823 -1416 1502 -17 50 -33 99 -35 108 -2 9 -11 42
-20 72 -17 61 -55 249 -60 295 -16 156 -20 221 -19 355 0 85 3 187 6 225 46
510 249 997 581 1393 427 510 1051 835 1702 888 44 4 82 8 84 10 4 4 343 -4
396 -10z"/>
<path d="M3320 4758 c-630 -66 -1113 -594 -1124 -1228 -10 -551 334 -1039 860
-1218 64 -22 71 -24 194 -47 76 -14 337 -15 410 0 279 53 503 172 692 365 187
193 302 422 345 690 10 62 10 302 0 375 -34 243 -164 507 -339 685 -126 129
-303 247 -448 299 -19 7 -44 17 -55 22 -37 16 -179 47 -245 54 -99 11 -207 12
-290 3z"/>
</g>
</svg>
