<?xml version="1.0" encoding="utf-8"?>
<!-- Generator: Adobe Illustrator 23.0.4, SVG Export Plug-In . SVG Version: 6.00 Build 0)  -->
<svg version="1.1" id="Layer_1" xmlns="http://www.w3.org/2000/svg" xmlns:xlink="http://www.w3.org/1999/xlink" x="0px" y="0px"
	 viewBox="0 0 300 154.197" style="enable-background:new 0 0 300 154.197;" xml:space="preserve">
<style type="text/css">
	.st0{fill:none;stroke:#EB9691;stroke-width:35;stroke-miterlimit:10;}
	.st1{fill:#9CD3E7;}
	.st2{fill:#8CCA8B;}
	.st3{fill:#261B2D;}
</style>
<line class="st0" x1="27.744" y1="143.346" x2="27.744" y2="10.478"/>
<path class="st1" d="M230.425,62.452h-22.662c-0.909,0-1.647,0.737-1.647,1.647v22.563L230.425,62.452z"/>
<ellipse class="st2" cx="119.757" cy="77.862" rx="14.218" ry="14.218"/>
<g>
	<path class="st3" d="M160.544,106.397h-14.045c7.606-7.109,12.229-17.15,12.229-28.435c0-22.022-18.344-39.769-40.565-38.775
		c-20.233,0.895-36.787,18.045-37.085,38.278c-0.298,21.326,16.405,38.576,37.682,39.272h6.164h10.512h25.108
		c2.855,0,5.17-2.315,5.17-5.17C165.714,108.712,163.399,106.397,160.544,106.397z M91.369,77.962
		c0-15.709,12.726-28.435,28.435-28.435c15.709,0,28.435,12.726,28.435,28.435c0.099,15.411-11.931,27.839-27.341,28.435h-1.989
		C103.499,105.9,91.369,93.472,91.369,77.962z"/>
	<path class="st3" d="M259.715,45.394c0.168-1.368-0.163-2.772-1.1-3.875c-1.021-1.201-2.445-1.804-3.875-1.824l0.014-0.011h-61.91
		h-4.869c-2.864,0-5.185,2.321-5.185,5.185v5.255v61.443l0,0c0,1.449,0.606,2.9,1.816,3.936c1.018,0.871,2.298,1.227,3.567,1.146
		l-0.088,0.088c0,0,2.606,0.09,4.258-1.656c1.3-1.374,65.762-65.762,65.762-65.762s1.715-1.474,1.715-4.027L259.715,45.394z
		 M193.228,51.514c0-0.768,0.623-1.39,1.39-1.389l48.068,0.032l-16.862,16.862c-0.001,0.001-0.001,0.001-0.001,0.001l-32.595,32.595
		L193.228,51.514L193.228,51.514z"/>
	<path class="st3" d="M0.11,5.298v143.588c0,2.85,2.31,5.16,5.16,5.16h289.249c2.85,0,5.16-2.31,5.16-5.16V5.298
		c0-2.85-2.31-5.16-5.16-5.16H5.27C2.42,0.137,0.11,2.448,0.11,5.298z M12.08,10.478h33.115v132.868H12.08
		c-0.988,0-1.788-0.8-1.788-1.788V12.266C10.292,11.278,11.093,10.478,12.08,10.478z M287.643,143.346H55.536V10.478h232.042
		c0.972,0,1.76,0.788,1.76,1.76v129.413C289.339,142.587,288.58,143.346,287.643,143.346z"/>
</g>
</svg>
