<?xml version="1.0" encoding="utf-8"?>
<!-- Generator: Adobe Illustrator 17.1.0, SVG Export Plug-In . SVG Version: 6.00 Build 0)  -->
<!DOCTYPE svg PUBLIC "-//W3C//DTD SVG 1.1//EN" "http://www.w3.org/Graphics/SVG/1.1/DTD/svg11.dtd">
<svg version="1.1" id="Layer_1" xmlns="http://www.w3.org/2000/svg" xmlns:xlink="http://www.w3.org/1999/xlink" x="0px" y="0px"
	 viewBox="0 172.9 612 314.4" enable-background="new 0 172.9 612 314.4" xml:space="preserve">
<g>
	<path fill="#231F20" d="M608.4,172.9h-499H95.7H3.8c-2.2,0-3.8,1.6-3.8,3.8v306.9c0,2,1.6,3.8,3.8,3.8h91.9h13.7h499
		c2,0,3.8-1.6,3.8-3.8V176.6C612,174.5,610.4,172.9,608.4,172.9z M91.1,466.3H22c-0.6,0-1-0.4-1-1V194.7c0-0.6,0.4-1,1-1h69.3
		c0.4,0,0.6,0.2,0.8,0.6v271.2C91.9,466.1,91.5,466.3,91.1,466.3z M591.2,465.3c0,0.6-0.4,1-1,1H113.9c-0.4,0-0.6-0.2-0.8-0.6V194.5
		c0.2-0.4,0.4-0.6,0.8-0.6h476.2c0.6,0,1,0.4,1,1V465.3z"/>
	<path fill="#231F20" d="M322,385.7h-23c15.3-14.3,24.6-34.5,24.6-57.2c0-44.3-36.9-80-81.6-78c-40.7,1.8-74,36.3-74.6,77
		c-0.6,42.9,33,77.6,75.8,79h78.6c2,0,3.4-1.6,3.4-3.4v-14.1C325.4,387.1,323.8,385.7,322,385.7z M247.5,385.7h-4
		c-31-1-55.4-26-55.4-57.2c0-31.6,25.6-57.2,57.2-57.2s57.2,25.6,57.2,57.2C302.7,359.5,278.5,384.5,247.5,385.7z"/>
	<path fill="#231F20" d="M514.3,251.5H376.2c-2.4,0-4.2,2-4.2,4.2V393c0,7.9,6.4,14.3,14.3,14.3c3.8,0,7.5-1.6,10.1-4.2l128.2-127.4
		c4-4.2,5.2-10.1,3-15.5C525.3,254.9,520.1,251.5,514.3,251.5z M393,376.9V273.5c0-0.6,0.4-1,1-1h104.2L393,376.9z"/>
</g>
<path fill="#89DA90" d="M91.1,466.3H21.8c-0.6,0-1-0.4-1-1V194.7c0-0.6,0.4-1,1-1h69.3c0.6,0,1,0.4,1,1v270.6
	C91.9,465.9,91.5,466.3,91.1,466.3z"/>
<polygon fill="#89DA90" points="470.7,299.7 421.8,299.7 421.8,348.4 "/>
<circle fill="#89DA90" cx="245.2" cy="328.3" r="28.6"/>
</svg>
